AlegreyaSans-Bold.ufo
<glyph name="quotedbl" format="2">
  <advance width="443"/>
  <unicode hex="0022"/>
  <outline>
    <contour>
      <point x="204" y="646" type="line"/>
      <point x="53" y="637" type="line"/>
      <point x="63" y="369" type="line"/>
      <point x="78" y="358" type="line"/>
      <point x="166" y="372" type="line"/>
      <point x="214" y="634" type="line"/>
    </contour>
    <contour>
      <point x="397" y="646" type="line"/>
      <point x="246" y="637" type="line"/>
      <point x="256" y="369" type="line"/>
      <point x="271" y="358" type="line"/>
      <point x="359" y="372" type="line"/>
      <point x="407" y="634" type="line"/>
    </contour>
  </outline>
</glyph>
<glyph name="dollar" format="2">
  <advance width="474"/>
  <unicode hex="0024"/>
  <anchor x="215" y="0" name="bottom"/>
  <anchor x="252" y="513" name="top"/>
  <outline>
    <contour>
      <point x="306" y="431" type="line"/>
      <point x="195" y="431" type="line"/>
      <point x="171" y="82" type="line"/>
      <point x="283" y="82" type="line"/>
    </contour>
    <contour>
      <point x="283" y="82" type="line"/>
      <point x="171" y="82" type="line"/>
      <point x="159" y="-126" type="line"/>
      <point x="172" y="-140" type="line"/>
      <point x="269" y="-140" type="line"/>
    </contour>
    <contour>
      <point x="302" y="646" type="line"/>
      <point x="207" y="646" type="line"/>
      <point x="195" y="431" type="line"/>
      <point x="306" y="431" type="line"/>
      <point x="318" y="632" type="line"/>
    </contour>
    <contour>
      <point x="271" y="520" type="curve" smooth="yes"/>
      <point x="123" y="520"/>
      <point x="39" y="443"/>
      <point x="39" y="343" type="curve" smooth="yes"/>
      <point x="39" y="177"/>
      <point x="273" y="191"/>
      <point x="273" y="134" type="curve" smooth="yes"/>
      <point x="273" y="119"/>
      <point x="257" y="110"/>
      <point x="229" y="110" type="curve" smooth="yes"/>
      <point x="187" y="110"/>
      <point x="118" y="137"/>
      <point x="65" y="177" type="curve"/>
      <point x="48" y="166" type="line"/>
      <point x="24" y="18" type="line"/>
      <point x="91" y="-4"/>
      <point x="159" y="-11"/>
      <point x="208" y="-11" type="curve" smooth="yes"/>
      <point x="375" y="-11"/>
      <point x="441" y="79"/>
      <point x="441" y="166" type="curve" smooth="yes"/>
      <point x="441" y="329"/>
      <point x="208" y="315"/>
      <point x="208" y="373" type="curve" smooth="yes"/>
      <point x="208" y="385"/>
      <point x="221" y="394"/>
      <point x="247" y="394" type="curve" smooth="yes"/>
      <point x="275" y="394"/>
      <point x="330" y="377"/>
      <point x="381" y="346" type="curve"/>
      <point x="405" y="352" type="line"/>
      <point x="430" y="494" type="line"/>
      <point x="385" y="509"/>
      <point x="328" y="520"/>
    </contour>
  </outline>
</glyph>
<glyph name="ampersand" format="2">
  <advance width="730"/>
  <unicode hex="0026"/>
  <outline>
    <contour>
      <point x="305" y="655" type="curve"/>
      <point x="156" y="655"/>
      <point x="74" y="588"/>
      <point x="74" y="487" type="curve" smooth="yes"/>
      <point x="74" y="424"/>
      <point x="106" y="369"/>
      <point x="172" y="309" type="curve" smooth="yes"/>
      <point x="589" y="-71" type="line"/>
      <point x="601" y="-71" type="line"/>
      <point x="641" y="-47"/>
      <point x="675" y="-18"/>
      <point x="705" y="16" type="curve"/>
      <point x="705" y="28" type="line"/>
      <point x="290" y="406" type="line" smooth="yes"/>
      <point x="252" y="440"/>
      <point x="244" y="455"/>
      <point x="244" y="476" type="curve" smooth="yes"/>
      <point x="244" y="506"/>
      <point x="262" y="521"/>
      <point x="298" y="521" type="curve"/>
      <point x="333" y="521"/>
      <point x="369" y="510"/>
      <point x="408" y="488" type="curve"/>
      <point x="431" y="488" type="line"/>
      <point x="475" y="631" type="line"/>
      <point x="425" y="646"/>
      <point x="365" y="655"/>
    </contour>
    <contour>
      <point x="603" y="331" type="line"/>
      <point x="716" y="331" type="line"/>
      <point x="728" y="454" type="line"/>
      <point x="717" y="467" type="line"/>
      <point x="424" y="467" type="line"/>
      <point x="412" y="342" type="line"/>
      <point x="420" y="331" type="line"/>
      <point x="471" y="331" type="line"/>
      <point x="473" y="319"/>
      <point x="474" y="303"/>
      <point x="474" y="288" type="curve" smooth="yes"/>
      <point x="474" y="189"/>
      <point x="411" y="121"/>
      <point x="299" y="121" type="curve" smooth="yes"/>
      <point x="226" y="121"/>
      <point x="188" y="150"/>
      <point x="188" y="209" type="curve" smooth="yes"/>
      <point x="188" y="234"/>
      <point x="197" y="257"/>
      <point x="217" y="277" type="curve"/>
      <point x="137" y="397" type="line"/>
      <point x="133" y="336" type="line"/>
      <point x="64" y="304"/>
      <point x="21" y="255"/>
      <point x="21" y="177" type="curve" smooth="yes"/>
      <point x="21" y="60"/>
      <point x="119" y="-12"/>
      <point x="280" y="-12" type="curve" smooth="yes"/>
      <point x="479" y="-12"/>
      <point x="600" y="98"/>
      <point x="600" y="263" type="curve" smooth="yes"/>
      <point x="600" y="279"/>
      <point x="600" y="300"/>
      <point x="598" y="320" type="curve"/>
    </contour>
  </outline>
</glyph>
<glyph name="period" format="2">
  <advance width="228"/>
  <unicode hex="002E"/>
  <outline>
    <contour>
      <point x="118" y="190" type="curve" smooth="yes"/>
      <point x="55" y="190"/>
      <point x="16" y="150"/>
      <point x="16" y="86" type="curve" smooth="yes"/>
      <point x="16" y="25"/>
      <point x="49" y="-9"/>
      <point x="110" y="-9" type="curve" smooth="yes"/>
      <point x="172" y="-9"/>
      <point x="211" y="31"/>
      <point x="211" y="95" type="curve" smooth="yes"/>
      <point x="211" y="155"/>
      <point x="177" y="190"/>
    </contour>
  </outline>
</glyph>
<glyph name="one" format="2">
  <advance width="379"/>
  <unicode hex="0031"/>
  <outline>
    <contour>
      <point x="275" y="522" type="line"/>
      <point x="5" y="446" type="line"/>
      <point x="5" y="288" type="line"/>
      <point x="17" y="279" type="line"/>
      <point x="111" y="299" type="line"/>
      <point x="111" y="190" type="line"/>
      <point x="103" y="0" type="line"/>
      <point x="301" y="0" type="line"/>
      <point x="293" y="210" type="line"/>
      <point x="303" y="502" type="line"/>
    </contour>
  </outline>
</glyph>
<glyph name="question" format="2">
  <advance width="351"/>
  <unicode hex="003F"/>
  <outline>
    <contour>
      <point x="83" y="677" type="curve"/>
      <point x="66" y="668" type="line"/>
      <point x="31" y="560" type="line"/>
      <point x="45" y="542" type="line"/>
      <point x="172" y="534"/>
      <point x="207" y="516"/>
      <point x="207" y="480" type="curve" smooth="yes"/>
      <point x="207" y="455"/>
      <point x="190" y="435"/>
      <point x="159" y="422" type="curve" smooth="yes"/>
      <point x="75" y="389" type="line"/>
      <point x="69" y="378" type="line"/>
      <point x="82" y="252" type="line"/>
      <point x="95" y="240" type="line"/>
      <point x="231" y="260" type="line"/>
      <point x="224" y="331" type="line"/>
      <point x="227" y="337" type="line"/>
      <point x="285" y="367" type="line" smooth="yes"/>
      <point x="349" y="401"/>
      <point x="384" y="453"/>
      <point x="384" y="510" type="curve" smooth="yes"/>
      <point x="384" y="611"/>
      <point x="275" y="669"/>
    </contour>
    <contour>
      <point x="171" y="190" type="curve" smooth="yes"/>
      <point x="108" y="190"/>
      <point x="69" y="150"/>
      <point x="69" y="86" type="curve" smooth="yes"/>
      <point x="69" y="25"/>
      <point x="102" y="-9"/>
      <point x="163" y="-9" type="curve" smooth="yes"/>
      <point x="225" y="-9"/>
      <point x="264" y="31"/>
      <point x="264" y="95" type="curve" smooth="yes"/>
      <point x="264" y="155"/>
      <point x="230" y="190"/>
    </contour>
  </outline>
</glyph>
<glyph name="A" format="2">
  <advance width="627"/>
  <unicode hex="0041"/>
  <anchor x="314" y="0" name="bottom"/>
  <anchor x="617" y="0" name="ogonek"/>
  <anchor x="315" y="647" name="top"/>
  <outline>
    <contour>
      <point x="440" y="647" type="line"/>
      <point x="198" y="647" type="line"/>
      <point x="2" y="0" type="line"/>
      <point x="198" y="0" type="line"/>
      <point x="217" y="119" type="line"/>
      <point x="309" y="468" type="line"/>
      <point x="321" y="468" type="line"/>
      <point x="396" y="107" type="line"/>
      <point x="414" y="0" type="line"/>
      <point x="617" y="0" type="line"/>
    </contour>
    <contour>
      <point x="412" y="257" type="line"/>
      <point x="309" y="255" type="line"/>
      <point x="187" y="258" type="line"/>
      <point x="187" y="107" type="line"/>
      <point x="297" y="112" type="line"/>
      <point x="412" y="110" type="line"/>
    </contour>
  </outline>
</glyph>
<glyph name="E" format="2">
  <advance width="541"/>
  <unicode hex="0045"/>
  <anchor x="309" y="0" name="bottom"/>
  <anchor x="495" y="10" name="ogonek"/>
  <anchor x="292" y="647" name="top"/>
  <outline>
    <contour>
      <point x="264" y="647" type="line"/>
      <point x="60" y="647" type="line"/>
      <point x="70" y="190" type="line"/>
      <point x="60" y="0" type="line"/>
      <point x="261" y="0" type="line"/>
      <point x="253" y="210" type="line"/>
    </contour>
    <contour>
      <point x="517" y="160" type="line"/>
      <point x="351" y="154" type="line"/>
      <point x="194" y="154" type="line"/>
      <point x="194" y="11" type="line"/>
      <point x="194" y="0" type="line"/>
      <point x="516" y="0" type="line"/>
      <point x="528" y="146" type="line"/>
    </contour>
    <contour>
      <point x="461" y="405" type="line"/>
      <point x="357" y="402" type="line"/>
      <point x="204" y="402" type="line"/>
      <point x="204" y="259" type="line"/>
      <point x="204" y="248" type="line"/>
      <point x="344" y="248" type="line"/>
      <point x="460" y="245" type="line"/>
      <point x="472" y="391" type="line"/>
    </contour>
    <contour>
      <point x="524" y="647" type="line"/>
      <point x="194" y="647" type="line"/>
      <point x="194" y="504" type="line"/>
      <point x="194" y="493" type="line"/>
      <point x="363" y="493" type="line"/>
      <point x="522" y="487" type="line"/>
      <point x="535" y="633" type="line"/>
    </contour>
  </outline>
</glyph>
<glyph name="I" format="2">
  <advance width="327"/>
  <unicode hex="0049"/>
  <anchor x="261" y="0" name="ogonek"/>
  <anchor x="162" y="647" name="top"/>
  <outline>
    <contour>
      <point x="264" y="647" type="line"/>
      <point x="60" y="647" type="line"/>
      <point x="70" y="190" type="line"/>
      <point x="60" y="0" type="line"/>
      <point x="261" y="0" type="line"/>
      <point x="253" y="210" type="line"/>
    </contour>
  </outline>
</glyph>
<glyph name="M" format="2">
  <advance width="806"/>
  <unicode hex="004D"/>
  <anchor x="403" y="0" name="bottom"/>
  <anchor x="403" y="647" name="top"/>
  <outline>
    <contour>
      <point x="722" y="647" type="line"/>
      <point x="494" y="647" type="line"/>
      <point x="471" y="548" type="line"/>
      <point x="408" y="320" type="line"/>
      <point x="396" y="320" type="line"/>
      <point x="339" y="555" type="line"/>
      <point x="320" y="647" type="line"/>
      <point x="89" y="647" type="line"/>
      <point x="26" y="0" type="line"/>
      <point x="193" y="0" type="line"/>
      <point x="203" y="215" type="line"/>
      <point x="217" y="359" type="line"/>
      <point x="229" y="359" type="line"/>
      <point x="315" y="61" type="line"/>
      <point x="466" y="61" type="line"/>
      <point x="570" y="359" type="line"/>
      <point x="582" y="359" type="line"/>
      <point x="593" y="196" type="line"/>
      <point x="598" y="0" type="line"/>
      <point x="774" y="0" type="line"/>
    </contour>
  </outline>
</glyph>
<glyph name="R" format="2">
  <advance width="631"/>
  <unicode hex="0052"/>
  <anchor x="316" y="0" name="bottom"/>
  <anchor x="316" y="647" name="top"/>
  <outline>
    <contour>
      <point x="367" y="648" type="curve"/>
      <point x="60" y="647" type="line"/>
      <point x="178" y="500" type="line"/>
      <point x="296" y="509" type="line"/>
      <point x="357" y="506"/>
      <point x="383" y="482"/>
      <point x="383" y="428" type="curve" smooth="yes"/>
      <point x="383" y="380"/>
      <point x="367" y="352"/>
      <point x="329" y="335" type="curve"/>
      <point x="131" y="346" type="line"/>
      <point x="131" y="193" type="line"/>
      <point x="341" y="193" type="line"/>
      <point x="493" y="225"/>
      <point x="594" y="327"/>
      <point x="594" y="448" type="curve" smooth="yes"/>
      <point x="594" y="577"/>
      <point x="512" y="648"/>
    </contour>
    <contour>
      <point x="264" y="647" type="line"/>
      <point x="60" y="647" type="line"/>
      <point x="70" y="190" type="line"/>
      <point x="60" y="0" type="line"/>
      <point x="261" y="0" type="line"/>
      <point x="253" y="210" type="line"/>
    </contour>
    <contour>
      <point x="463" y="291" type="curve"/>
      <point x="282" y="289" type="line"/>
      <point x="319" y="191"/>
      <point x="364" y="96"/>
      <point x="407" y="4" type="curve"/>
      <point x="426" y="-12" type="line"/>
      <point x="495" y="-8"/>
      <point x="562" y="5"/>
      <point x="627" y="25" type="curve"/>
      <point x="630" y="47" type="line"/>
      <point x="570" y="127"/>
      <point x="515" y="209"/>
    </contour>
  </outline>
</glyph>
<glyph name="T" format="2">
  <advance width="519"/>
  <unicode hex="0054"/>
  <anchor x="261" y="0" name="bottom"/>
  <anchor x="261" y="324" name="center"/>
  <anchor x="261" y="647" name="top"/>
  <outline>
    <contour>
      <point x="361" y="627" type="line"/>
      <point x="164" y="627" type="line"/>
      <point x="171" y="190" type="line"/>
      <point x="161" y="0" type="line"/>
      <point x="361" y="0" type="line"/>
      <point x="353" y="210" type="line"/>
    </contour>
    <contour>
      <point x="502" y="647" type="line"/>
      <point x="19" y="647" type="line"/>
      <point x="8" y="501" type="line"/>
      <point x="20" y="487" type="line"/>
      <point x="153" y="493" type="line"/>
      <point x="370" y="493" type="line"/>
      <point x="502" y="487" type="line"/>
      <point x="513" y="633" type="line"/>
    </contour>
  </outline>
</glyph>
<glyph name="V" format="2">
  <advance width="615"/>
  <unicode hex="0056"/>
  <outline>
    <contour>
      <point x="619" y="647" type="line"/>
      <point x="423" y="647" type="line"/>
      <point x="404" y="528" type="line"/>
      <point x="312" y="179" type="line"/>
      <point x="300" y="179" type="line"/>
      <point x="225" y="540" type="line"/>
      <point x="207" y="647" type="line"/>
      <point x="4" y="647" type="line"/>
      <point x="181" y="0" type="line"/>
      <point x="423" y="0" type="line"/>
    </contour>
  </outline>
</glyph>
<glyph name="X" format="2">
  <advance width="659"/>
  <unicode hex="0058"/>
  <outline>
    <contour>
      <point x="643" y="647" type="line"/>
      <point x="434" y="647" type="line"/>
      <point x="404" y="577" type="line"/>
      <point x="339" y="464" type="line"/>
      <point x="282" y="566" type="line"/>
      <point x="247" y="647" type="line"/>
      <point x="7" y="647" type="line"/>
      <point x="205" y="311" type="line"/>
      <point x="13" y="0" type="line"/>
      <point x="216" y="0" type="line"/>
      <point x="248" y="69" type="line"/>
      <point x="322" y="184" type="line"/>
      <point x="380" y="79" type="line"/>
      <point x="414" y="0" type="line"/>
      <point x="653" y="0" type="line"/>
      <point x="458" y="342" type="line"/>
    </contour>
  </outline>
</glyph>
<glyph name="underscore" format="2">
  <advance width="438"/>
  <unicode hex="005F"/>
  <outline>
    <contour>
      <point x="441" y="-91" type="line"/>
      <point x="-6" y="-91" type="line"/>
      <point x="-15" y="-198" type="line"/>
      <point x="-3" y="-211" type="line"/>
      <point x="444" y="-211" type="line"/>
      <point x="453" y="-104" type="line"/>
    </contour>
  </outline>
</glyph>
<glyph name="a" format="2">
  <advance width="503"/>
  <unicode hex="0061"/>
  <anchor x="468" y="20" name="ogonek"/>
  <anchor x="246" y="472" name="top"/>
  <outline>
    <contour>
      <point x="258" y="484" type="curve" smooth="yes"/>
      <point x="187" y="484"/>
      <point x="109" y="466"/>
      <point x="47" y="434" type="curve"/>
      <point x="68" y="311" type="line"/>
      <point x="80" y="303" type="line"/>
      <point x="143" y="337"/>
      <point x="187" y="351"/>
      <point x="225" y="351" type="curve" smooth="yes"/>
      <point x="260" y="351"/>
      <point x="272" y="338"/>
      <point x="272" y="303" type="curve" smooth="yes"/>
      <point x="272" y="291" type="line"/>
      <point x="130" y="272" type="line" smooth="yes"/>
      <point x="53" y="261"/>
      <point x="15" y="217"/>
      <point x="15" y="145" type="curve" smooth="yes"/>
      <point x="15" y="49"/>
      <point x="81" y="-10"/>
      <point x="182" y="-11" type="curve"/>
      <point x="221" y="4"/>
      <point x="254" y="29"/>
      <point x="282" y="61" type="curve"/>
      <point x="289" y="61" type="line"/>
      <point x="306" y="16"/>
      <point x="337" y="-7"/>
      <point x="375" y="-10" type="curve"/>
      <point x="417" y="-7"/>
      <point x="444" y="3"/>
      <point x="468" y="20" type="curve"/>
      <point x="485" y="120" type="line"/>
      <point x="473" y="130" type="line"/>
      <point x="466" y="128"/>
      <point x="461" y="127"/>
      <point x="456" y="127" type="curve" smooth="yes"/>
      <point x="446" y="127"/>
      <point x="442" y="133"/>
      <point x="442" y="148" type="curve" smooth="yes"/>
      <point x="442" y="173"/>
      <point x="450" y="307"/>
      <point x="450" y="339" type="curve" smooth="yes"/>
      <point x="450" y="432"/>
      <point x="381" y="484"/>
    </contour>
    <contour>
      <point x="272" y="206" type="line"/>
      <point x="272" y="138" type="line"/>
      <point x="256" y="127"/>
      <point x="239" y="122"/>
      <point x="225" y="122" type="curve" smooth="yes"/>
      <point x="201" y="122"/>
      <point x="188" y="136"/>
      <point x="188" y="162" type="curve" smooth="yes"/>
      <point x="188" y="185"/>
      <point x="197" y="195"/>
      <point x="215" y="198" type="curve" smooth="yes"/>
    </contour>
  </outline>
</glyph>
<glyph name="b" format="2">
  <advance width="534"/>
  <unicode hex="0062"/>
  <anchor x="267" y="0" name="bottom"/>
  <anchor x="267" y="472" name="top"/>
  <outline>
    <contour>
      <point x="333" y="479" type="curve"/>
      <point x="297" y="462"/>
      <point x="265" y="437"/>
      <point x="237" y="404" type="curve"/>
      <point x="213" y="404" type="line"/>
      <point x="213" y="301" type="line"/>
      <point x="233" y="318"/>
      <point x="250" y="325"/>
      <point x="269" y="325" type="curve" smooth="yes"/>
      <point x="317" y="325"/>
      <point x="337" y="289"/>
      <point x="337" y="217" type="curve" smooth="yes"/>
      <point x="337" y="133"/>
      <point x="309" y="108"/>
      <point x="266" y="108" type="curve" smooth="yes"/>
      <point x="222" y="108"/>
      <point x="150" y="141"/>
      <point x="80" y="210" type="curve"/>
      <point x="80" y="39" type="line"/>
      <point x="146" y="6"/>
      <point x="216" y="-12"/>
      <point x="277" y="-12" type="curve"/>
      <point x="424" y="-12"/>
      <point x="520" y="77"/>
      <point x="520" y="248" type="curve" smooth="yes"/>
      <point x="520" y="392"/>
      <point x="451" y="479"/>
    </contour>
    <contour>
      <point x="238" y="702" type="line"/>
      <point x="44" y="689" type="line"/>
      <point x="51" y="190" type="line"/>
      <point x="43" y="7" type="line"/>
      <point x="60" y="-12" type="line"/>
      <point x="230" y="40" type="line"/>
      <point x="229" y="215" type="line"/>
    </contour>
  </outline>
</glyph>
<glyph name="c" format="2">
  <advance width="384"/>
  <unicode hex="0063"/>
  <anchor x="226" y="0" name="bottom"/>
  <anchor x="240" y="472" name="top"/>
  <outline>
    <contour>
      <point x="260" y="484" type="curve" smooth="yes"/>
      <point x="104" y="484"/>
      <point x="14" y="391"/>
      <point x="14" y="228" type="curve" smooth="yes"/>
      <point x="14" y="75"/>
      <point x="91" y="-12"/>
      <point x="226" y="-12" type="curve" smooth="yes"/>
      <point x="268" y="-12"/>
      <point x="311" y="-9"/>
      <point x="351" y="1" type="curve"/>
      <point x="371" y="144" type="line"/>
      <point x="358" y="155" type="line"/>
      <point x="322" y="145"/>
      <point x="297" y="140"/>
      <point x="273" y="140" type="curve" smooth="yes"/>
      <point x="223" y="140"/>
      <point x="200" y="173"/>
      <point x="200" y="249" type="curve" smooth="yes"/>
      <point x="200" y="302"/>
      <point x="219" y="326"/>
      <point x="261" y="326" type="curve" smooth="yes"/>
      <point x="283" y="326"/>
      <point x="305" y="318"/>
      <point x="337" y="305" type="curve"/>
      <point x="351" y="312" type="line"/>
      <point x="382" y="460" type="line"/>
      <point x="348" y="475"/>
      <point x="305" y="484"/>
    </contour>
  </outline>
</glyph>
<glyph name="f" format="2">
  <advance width="360"/>
  <unicode hex="0066"/>
  <outline>
    <contour>
      <point x="340" y="704" type="curve" smooth="yes"/>
      <point x="181" y="704"/>
      <point x="89" y="629"/>
      <point x="89" y="492" type="curve"/>
      <point x="93" y="190" type="line"/>
      <point x="84" y="0" type="line"/>
      <point x="279" y="0" type="line"/>
      <point x="271" y="210" type="line"/>
      <point x="277" y="527" type="line"/>
      <point x="278" y="560"/>
      <point x="295" y="569"/>
      <point x="319" y="569" type="curve" smooth="yes"/>
      <point x="341" y="569"/>
      <point x="369" y="562"/>
      <point x="412" y="545" type="curve"/>
      <point x="425" y="554" type="line"/>
      <point x="436" y="695" type="line"/>
      <point x="403" y="701"/>
      <point x="372" y="704"/>
    </contour>
    <contour>
      <point x="382" y="467" type="line"/>
      <point x="23" y="467" type="line"/>
      <point x="15" y="364" type="line"/>
      <point x="20" y="354" type="line"/>
      <point x="379" y="354" type="line"/>
      <point x="387" y="457" type="line"/>
    </contour>
  </outline>
</glyph>
<glyph name="k" format="2">
  <advance width="540"/>
  <unicode hex="006B"/>
  <anchor x="281" y="0" name="bottom"/>
  <anchor x="138" y="660" name="top"/>
  <anchor x="262" y="472" name="topright"/>
  <outline>
    <contour>
      <point x="527" y="472" type="line"/>
      <point x="328" y="472" type="line"/>
      <point x="307" y="416" type="line"/>
      <point x="222" y="257" type="line"/>
      <point x="222" y="245" type="line"/>
      <point x="250" y="160"/>
      <point x="286" y="79"/>
      <point x="330" y="-2" type="curve"/>
      <point x="350" y="-12" type="line"/>
      <point x="412" y="-6"/>
      <point x="471" y="0"/>
      <point x="533" y="12" type="curve"/>
      <point x="534" y="32" type="line"/>
      <point x="488" y="110"/>
      <point x="445" y="186"/>
      <point x="407" y="263" type="curve"/>
    </contour>
    <contour>
      <point x="239" y="702" type="line"/>
      <point x="45" y="689" type="line"/>
      <point x="52" y="190" type="line"/>
      <point x="43" y="0" type="line"/>
      <point x="238" y="0" type="line"/>
      <point x="230" y="210" type="line"/>
    </contour>
  </outline>
</glyph>
<glyph name="l" format="2">
  <advance width="282"/>
  <unicode hex="006C"/>
  <anchor x="141" y="0" name="bottom"/>
  <anchor x="141" y="680" name="top"/>
  <anchor x="262" y="472" name="topright"/>
  <outline>
    <contour>
      <point x="239" y="702" type="line"/>
      <point x="45" y="689" type="line"/>
      <point x="52" y="190" type="line"/>
      <point x="43" y="0" type="line"/>
      <point x="238" y="0" type="line"/>
      <point x="230" y="210" type="line"/>
    </contour>
  </outline>
</glyph>
<glyph name="q" format="2">
  <advance width="529"/>
  <unicode hex="0071"/>
  <outline>
    <contour>
      <point x="370" y="454" type="line"/>
      <point x="331" y="469"/>
      <point x="299" y="481"/>
      <point x="249" y="481" type="curve" smooth="yes"/>
      <point x="117" y="481"/>
      <point x="14" y="397"/>
      <point x="14" y="228" type="curve" smooth="yes"/>
      <point x="14" y="84"/>
      <point x="88" y="-9"/>
      <point x="217" y="-9" type="curve"/>
      <point x="246" y="4"/>
      <point x="272" y="23"/>
      <point x="295" y="46" type="curve"/>
      <point x="302" y="46" type="line"/>
      <point x="302" y="13" type="line"/>
      <point x="293" y="-185" type="line"/>
      <point x="487" y="-185" type="line"/>
      <point x="480" y="210" type="line"/>
      <point x="489" y="475" type="line"/>
      <point x="473" y="484" type="line"/>
    </contour>
    <contour>
      <point x="253" y="352" type="curve" smooth="yes"/>
      <point x="270" y="352"/>
      <point x="283" y="349"/>
      <point x="299" y="342" type="curve"/>
      <point x="302" y="188" type="line"/>
      <point x="301" y="155" type="line"/>
      <point x="287" y="142"/>
      <point x="271" y="135"/>
      <point x="254" y="135" type="curve" smooth="yes"/>
      <point x="215" y="135"/>
      <point x="196" y="173"/>
      <point x="196" y="259" type="curve" smooth="yes"/>
      <point x="196" y="331"/>
      <point x="209" y="352"/>
    </contour>
  </outline>
</glyph>
<glyph name="r" format="2">
  <advance width="376"/>
  <unicode hex="0072"/>
  <anchor x="136" y="0" name="bottom"/>
  <anchor x="212" y="472" name="top"/>
  <outline>
    <contour>
      <point x="227" y="474" type="line"/>
      <point x="42" y="461" type="line"/>
      <point x="49" y="190" type="line"/>
      <point x="40" y="0" type="line"/>
      <point x="235" y="0" type="line"/>
      <point x="227" y="210" type="line"/>
    </contour>
    <contour>
      <point x="351" y="473" type="curve" smooth="yes"/>
      <point x="299" y="473"/>
      <point x="263" y="441"/>
      <point x="236" y="386" type="curve"/>
      <point x="208" y="386" type="line"/>
      <point x="208" y="240" type="line"/>
      <point x="240" y="279"/>
      <point x="284" y="298"/>
      <point x="319" y="298" type="curve" smooth="yes"/>
      <point x="333" y="298"/>
      <point x="345" y="296"/>
      <point x="355" y="290" type="curve"/>
      <point x="374" y="296" type="line"/>
      <point x="374" y="471" type="line"/>
      <point x="364" y="473"/>
      <point x="357" y="473"/>
    </contour>
  </outline>
</glyph>
<glyph name="v" format="2">
  <advance width="468"/>
  <unicode hex="0076"/>
  <outline>
    <contour>
      <point x="182" y="476" type="line"/>
      <point x="0" y="469" type="line"/>
      <point x="119" y="0" type="line"/>
      <point x="331" y="0" type="line"/>
      <point x="471" y="472" type="line"/>
      <point x="303" y="472" type="line"/>
      <point x="285" y="369" type="line"/>
      <point x="240" y="179" type="line"/>
      <point x="230" y="179" type="line"/>
      <point x="195" y="381" type="line"/>
    </contour>
  </outline>
</glyph>
<glyph name="x" format="2">
  <advance width="490"/>
  <unicode hex="0078"/>
  <outline>
    <contour>
      <point x="209" y="475" type="line"/>
      <point x="0" y="468" type="line"/>
      <point x="125" y="234" type="line"/>
      <point x="2" y="0" type="line"/>
      <point x="170" y="0" type="line"/>
      <point x="194" y="55" type="line"/>
      <point x="232" y="128" type="line"/>
      <point x="260" y="64" type="line"/>
      <point x="285" y="-8" type="line"/>
      <point x="490" y="5" type="line"/>
      <point x="365" y="238" type="line"/>
      <point x="490" y="471" type="line"/>
      <point x="323" y="471" type="line"/>
      <point x="296" y="416" type="line"/>
      <point x="260" y="344" type="line"/>
      <point x="231" y="407" type="line"/>
    </contour>
  </outline>
</glyph>
<glyph name="z" format="2">
  <advance width="438"/>
  <unicode hex="007A"/>
  <anchor x="219" y="0" name="bottom"/>
  <anchor x="219" y="472" name="top"/>
  <outline>
    <contour>
      <point x="29" y="475" type="line"/>
      <point x="17" y="357" type="line"/>
      <point x="27" y="345" type="line"/>
      <point x="122" y="352" type="line"/>
      <point x="212" y="352" type="line"/>
      <point x="20" y="109" type="line"/>
      <point x="20" y="-5" type="line"/>
      <point x="105" y="0" type="line"/>
      <point x="271" y="0" type="line"/>
      <point x="413" y="-3" type="line"/>
      <point x="425" y="115" type="line"/>
      <point x="415" y="127" type="line"/>
      <point x="320" y="120" type="line"/>
      <point x="224" y="120" type="line"/>
      <point x="413" y="359" type="line"/>
      <point x="413" y="473" type="line"/>
      <point x="347" y="472" type="line"/>
      <point x="148" y="472" type="line"/>
    </contour>
  </outline>
</glyph>
<glyph name="cent" format="2">
  <advance width="382"/>
  <unicode hex="00A2"/>
  <outline>
    <contour>
      <point x="254" y="520" type="curve" smooth="yes"/>
      <point x="102" y="520"/>
      <point x="14" y="427"/>
      <point x="14" y="267" type="curve" smooth="yes"/>
      <point x="14" y="117"/>
      <point x="91" y="29"/>
      <point x="226" y="29" type="curve" smooth="yes"/>
      <point x="270" y="29"/>
      <point x="315" y="36"/>
      <point x="355" y="50" type="curve"/>
      <point x="373" y="169" type="line"/>
      <point x="360" y="179" type="line"/>
      <point x="324" y="166"/>
      <point x="293" y="159"/>
      <point x="264" y="159" type="curve" smooth="yes"/>
      <point x="203" y="159"/>
      <point x="171" y="200"/>
      <point x="171" y="285" type="curve" smooth="yes"/>
      <point x="171" y="352"/>
      <point x="200" y="385"/>
      <point x="255" y="385" type="curve" smooth="yes"/>
      <point x="279" y="385"/>
      <point x="305" y="378"/>
      <point x="335" y="365" type="curve"/>
      <point x="348" y="370" type="line"/>
      <point x="375" y="496" type="line"/>
      <point x="341" y="511"/>
      <point x="298" y="520"/>
    </contour>
    <contour>
      <point x="270" y="99" type="line"/>
      <point x="159" y="99" type="line"/>
      <point x="146" y="-113" type="line" smooth="yes"/>
      <point x="159" y="-127" type="line" smooth="yes"/>
      <point x="256" y="-127" type="line" smooth="yes"/>
    </contour>
    <contour>
      <point x="290" y="445" type="line"/>
      <point x="180" y="445" type="line"/>
      <point x="159" y="99" type="line"/>
      <point x="270" y="99" type="line"/>
    </contour>
    <contour>
      <point x="286" y="660" type="line" smooth="yes"/>
      <point x="191" y="660" type="line" smooth="yes"/>
      <point x="180" y="445" type="line"/>
      <point x="290" y="445" type="line"/>
      <point x="301" y="646" type="line" smooth="yes"/>
    </contour>
  </outline>
</glyph>
<glyph name="yen" format="2">
  <advance width="579"/>
  <unicode hex="00A5"/>
  <anchor x="299" y="513" name="top"/>
  <outline>
    <contour>
      <point x="547" y="185" type="line"/>
      <point x="40" y="185" type="line"/>
      <point x="35" y="108" type="line"/>
      <point x="41" y="99" type="line"/>
      <point x="549" y="99" type="line"/>
      <point x="555" y="178" type="line"/>
    </contour>
    <contour>
      <point x="224" y="326" type="line"/>
      <point x="40" y="326" type="line"/>
      <point x="35" y="249" type="line"/>
      <point x="41" y="240" type="line"/>
      <point x="226" y="240" type="line"/>
    </contour>
    <contour>
      <point x="547" y="326" type="line"/>
      <point x="357" y="326" type="line"/>
      <point x="355" y="240" type="line"/>
      <point x="549" y="240" type="line"/>
      <point x="555" y="319" type="line"/>
    </contour>
    <contour>
      <point x="572" y="511" type="line"/>
      <point x="398" y="511" type="line"/>
      <point x="378" y="460" type="line"/>
      <point x="297" y="322" type="line"/>
      <point x="287" y="322" type="line"/>
      <point x="216" y="466" type="line"/>
      <point x="201" y="511" type="line"/>
      <point x="23" y="511" type="line"/>
      <point x="255" y="54" type="line"/>
      <point x="310" y="54" type="line"/>
    </contour>
    <contour>
      <point x="369" y="224" type="line"/>
      <point x="206" y="224" type="line"/>
      <point x="209" y="133" type="line"/>
      <point x="201" y="0" type="line"/>
      <point x="371" y="0" type="line"/>
      <point x="364" y="133" type="line"/>
    </contour>
  </outline>
</glyph>
<glyph name="brokenbar" format="2">
  <advance width="300"/>
  <unicode hex="00A6"/>
  <outline>
    <contour>
      <point x="212" y="810" type="line"/>
      <point x="77" y="799" type="line"/>
      <point x="76" y="376" type="line"/>
      <point x="89" y="365" type="line"/>
      <point x="222" y="382" type="line"/>
      <point x="226" y="797" type="line"/>
    </contour>
    <contour>
      <point x="206" y="161" type="line"/>
      <point x="76" y="146" type="line"/>
      <point x="75" y="-240" type="line"/>
      <point x="90" y="-256" type="line"/>
      <point x="222" y="-245" type="line"/>
      <point x="221" y="145" type="line"/>
    </contour>
  </outline>
</glyph>
<glyph name="section" format="2">
  <advance width="446"/>
  <unicode hex="00A7"/>
  <outline>
    <contour>
      <point x="204" y="431" type="line"/>
      <point x="94" y="421"/>
      <point x="7" y="329"/>
      <point x="7" y="231" type="curve" smooth="yes"/>
      <point x="7" y="76"/>
      <point x="229" y="86"/>
      <point x="229" y="41" type="curve" smooth="yes"/>
      <point x="229" y="33"/>
      <point x="222" y="25"/>
      <point x="199" y="25" type="curve" smooth="yes"/>
      <point x="160" y="25"/>
      <point x="99" y="49"/>
      <point x="48" y="88" type="curve"/>
      <point x="32" y="77" type="line"/>
      <point x="8" y="-68" type="line"/>
      <point x="61" y="-85"/>
      <point x="134" y="-95"/>
      <point x="179" y="-95" type="curve" smooth="yes"/>
      <point x="305" y="-95"/>
      <point x="394" y="-17"/>
      <point x="394" y="75" type="curve" smooth="yes"/>
      <point x="394" y="222"/>
      <point x="171" y="200"/>
      <point x="171" y="283" type="curve" smooth="yes"/>
      <point x="171" y="312"/>
      <point x="195" y="339"/>
      <point x="229" y="361" type="curve"/>
    </contour>
    <contour>
      <point x="262" y="659" type="curve" smooth="yes"/>
      <point x="136" y="659"/>
      <point x="45" y="579"/>
      <point x="45" y="485" type="curve" smooth="yes"/>
      <point x="45" y="337"/>
      <point x="267" y="360"/>
      <point x="267" y="277" type="curve" smooth="yes"/>
      <point x="267" y="248"/>
      <point x="240" y="221"/>
      <point x="195" y="199" type="curve"/>
      <point x="228" y="133" type="line"/>
      <point x="342" y="143"/>
      <point x="432" y="233"/>
      <point x="432" y="330" type="curve" smooth="yes"/>
      <point x="432" y="482"/>
      <point x="209" y="472"/>
      <point x="209" y="518" type="curve" smooth="yes"/>
      <point x="209" y="527"/>
      <point x="218" y="535"/>
      <point x="237" y="535" type="curve" smooth="yes"/>
      <point x="265" y="535"/>
      <point x="313" y="518"/>
      <point x="361" y="488" type="curve"/>
      <point x="383" y="496" type="line"/>
      <point x="406" y="634" type="line"/>
      <point x="366" y="649"/>
      <point x="307" y="659"/>
    </contour>
  </outline>
</glyph>
<glyph name="logicalnot" format="2">
  <advance width="480"/>
  <unicode hex="00AC"/>
  <outline>
    <contour>
      <point x="434" y="320" type="line"/>
      <point x="24" y="320" type="line"/>
      <point x="15" y="203" type="line"/>
      <point x="27" y="190" type="line"/>
      <point x="310" y="190" type="line"/>
      <point x="310" y="41" type="line"/>
      <point x="323" y="29" type="line"/>
      <point x="440" y="38" type="line"/>
      <point x="440" y="311" type="line"/>
    </contour>
  </outline>
</glyph>
<glyph name="degree" format="2">
  <advance width="292"/>
  <unicode hex="00B0"/>
  <outline>
    <contour>
      <point x="146" y="659" type="curve" smooth="yes"/>
      <point x="71" y="659"/>
      <point x="11" y="599"/>
      <point x="11" y="524" type="curve" smooth="yes"/>
      <point x="11" y="449"/>
      <point x="71" y="389"/>
      <point x="146" y="389" type="curve" smooth="yes"/>
      <point x="221" y="389"/>
      <point x="281" y="449"/>
      <point x="281" y="524" type="curve" smooth="yes"/>
      <point x="281" y="599"/>
      <point x="221" y="659"/>
    </contour>
    <contour>
      <point x="146" y="580" type="curve" smooth="yes"/>
      <point x="179" y="580"/>
      <point x="202" y="557"/>
      <point x="202" y="524" type="curve" smooth="yes"/>
      <point x="202" y="490"/>
      <point x="179" y="468"/>
      <point x="146" y="468" type="curve" smooth="yes"/>
      <point x="112" y="468"/>
      <point x="90" y="490"/>
      <point x="90" y="524" type="curve" smooth="yes"/>
      <point x="90" y="557"/>
      <point x="112" y="580"/>
    </contour>
  </outline>
</glyph>
<glyph name="paragraph" format="2">
  <advance width="564"/>
  <unicode hex="00B6"/>
  <outline>
    <contour>
      <point x="545" y="647" type="line"/>
      <point x="284" y="647" type="line" smooth="yes"/>
      <point x="108" y="647"/>
      <point x="10" y="565"/>
      <point x="10" y="418" type="curve" smooth="yes"/>
      <point x="10" y="305"/>
      <point x="77" y="223"/>
      <point x="198" y="190" type="curve"/>
      <point x="267" y="287" type="line"/>
      <point x="237" y="325"/>
      <point x="220" y="370"/>
      <point x="220" y="412" type="curve" smooth="yes"/>
      <point x="220" y="458"/>
      <point x="233" y="489"/>
      <point x="256" y="500" type="curve"/>
      <point x="287.238" y="500" type="line"/>
      <point x="294" y="193" type="line"/>
      <point x="294" y="137" type="line" smooth="yes"/>
      <point x="294" y="77"/>
      <point x="268" y="44"/>
      <point x="198" y="10" type="curve"/>
      <point x="198" y="-6" type="line"/>
      <point x="248" y="-95" type="line"/>
      <point x="425" y="-38"/>
      <point x="479" y="29"/>
      <point x="479" y="144" type="curve"/>
      <point x="477" y="213" type="line"/>
      <point x="484.445" y="499" type="line"/>
      <point x="544" y="499" type="line"/>
      <point x="556" y="634" type="line"/>
    </contour>
  </outline>
</glyph>
<glyph name="Oslash" format="2">
  <advance width="653"/>
  <unicode hex="00D8"/>
  <anchor x="327" y="0" name="bottom"/>
  <anchor x="327" y="324" name="center"/>
  <anchor x="499" y="46" name="ogonek"/>
  <anchor x="327" y="650" name="top"/>
  <anchor x="20" y="647" name="topleft"/>
  <anchor x="633" y="647" name="topright"/>
  <outline>
    <contour>
      <point x="565" y="706" type="line"/>
      <point x="465" y="752" type="line"/>
      <point x="70" y="-71" type="line"/>
      <point x="78" y="-88" type="line"/>
      <point x="182" y="-135" type="line"/>
      <point x="577" y="687" type="line"/>
    </contour>
    <contour>
      <point x="341" y="659" type="curve" smooth="yes"/>
      <point x="135" y="659"/>
      <point x="17" y="533"/>
      <point x="17" y="312" type="curve" smooth="yes"/>
      <point x="17" y="106"/>
      <point x="124" y="-12"/>
      <point x="312" y="-12" type="curve" smooth="yes"/>
      <point x="518" y="-12"/>
      <point x="636" y="116"/>
      <point x="636" y="340" type="curve" smooth="yes"/>
      <point x="636" y="543"/>
      <point x="529" y="659"/>
    </contour>
    <contour>
      <point x="323" y="499" type="curve" smooth="yes"/>
      <point x="404" y="499"/>
      <point x="426" y="458"/>
      <point x="426" y="297" type="curve" smooth="yes"/>
      <point x="426" y="169"/>
      <point x="405" y="136"/>
      <point x="330" y="136" type="curve" smooth="yes"/>
      <point x="249" y="136"/>
      <point x="227" y="177"/>
      <point x="227" y="339" type="curve" smooth="yes"/>
      <point x="227" y="466"/>
      <point x="248" y="499"/>
    </contour>
  </outline>
</glyph>
<glyph name="germandbls" format="2">
  <advance width="659"/>
  <unicode hex="00DF"/>
  <outline>
    <contour>
      <point x="357" y="704" type="curve" smooth="yes"/>
      <point x="199" y="704"/>
      <point x="85" y="621"/>
      <point x="85" y="472" type="curve" smooth="yes"/>
      <point x="90" y="190" type="line"/>
      <point x="81" y="0" type="line"/>
      <point x="276" y="0" type="line"/>
      <point x="268" y="210" type="line"/>
      <point x="273" y="497" type="line" smooth="yes"/>
      <point x="274" y="554"/>
      <point x="305" y="569"/>
      <point x="345" y="569" type="curve" smooth="yes"/>
      <point x="386" y="569"/>
      <point x="407" y="552"/>
      <point x="407" y="517" type="curve" smooth="yes"/>
      <point x="407" y="448"/>
      <point x="326" y="447"/>
      <point x="326" y="342" type="curve" smooth="yes"/>
      <point x="326" y="187"/>
      <point x="503" y="174"/>
      <point x="503" y="122" type="curve" smooth="yes"/>
      <point x="503" y="111"/>
      <point x="495" y="106"/>
      <point x="479" y="106" type="curve" smooth="yes"/>
      <point x="446" y="106"/>
      <point x="388" y="129"/>
      <point x="342" y="169" type="curve"/>
      <point x="326" y="157" type="line"/>
      <point x="303" y="14" type="line"/>
      <point x="361" y="-5"/>
      <point x="416" y="-12"/>
      <point x="459" y="-12" type="curve" smooth="yes"/>
      <point x="607" y="-12"/>
      <point x="665" y="71"/>
      <point x="665" y="157" type="curve" smooth="yes"/>
      <point x="665" y="307"/>
      <point x="488" y="303"/>
      <point x="488" y="379" type="curve" smooth="yes"/>
      <point x="488" y="430"/>
      <point x="569" y="455"/>
      <point x="569" y="549" type="curve" smooth="yes"/>
      <point x="569" y="631"/>
      <point x="506" y="704"/>
    </contour>
    <contour>
      <point x="179" y="467" type="line"/>
      <point x="23" y="467" type="line"/>
      <point x="15" y="364" type="line"/>
      <point x="20" y="354" type="line"/>
      <point x="176" y="354" type="line"/>
      <point x="184" y="457" type="line"/>
    </contour>
  </outline>
</glyph>
<glyph name="hbar" format="2">
  <advance width="552"/>
  <unicode hex="0127"/>
  <anchor x="283" y="0" name="bottom"/>
  <anchor x="280" y="236" name="center"/>
  <anchor x="146" y="660" name="top"/>
  <anchor x="270" y="472" name="topright"/>
  <outline>
    <contour>
      <point x="324" y="0" type="line"/>
      <point x="519" y="0" type="line"/>
      <point x="512" y="210" type="line"/>
      <point x="516" y="346" type="line" smooth="yes"/>
      <point x="518" y="431"/>
      <point x="464" y="478"/>
      <point x="364" y="478" type="curve"/>
      <point x="316" y="462"/>
      <point x="280" y="437"/>
      <point x="247" y="404" type="curve"/>
      <point x="217" y="404" type="line"/>
      <point x="216" y="296" type="line"/>
      <point x="244" y="316"/>
      <point x="266" y="325"/>
      <point x="287" y="325" type="curve" smooth="yes"/>
      <point x="318" y="325"/>
      <point x="334" y="306"/>
      <point x="334" y="264" type="curve"/>
    </contour>
    <contour>
      <point x="51" y="0" type="line"/>
      <point x="246" y="0" type="line"/>
      <point x="238" y="210" type="line"/>
      <point x="247" y="702" type="line"/>
      <point x="53" y="689" type="line"/>
      <point x="60" y="190" type="line"/>
    </contour>
    <contour>
      <point x="-4" y="511" type="line"/>
      <point x="355" y="511" type="line"/>
      <point x="362" y="599" type="line"/>
      <point x="350" y="612" type="line"/>
      <point x="-9" y="612" type="line"/>
      <point x="-16" y="524" type="line"/>
    </contour>
  </outline>
</glyph>
<glyph name="kgreenlandic" format="2">
  <advance width="538"/>
  <unicode hex="0138"/>
  <anchor x="270" y="0" name="bottom"/>
  <anchor x="247" y="10" name="ogonek"/>
  <anchor x="270" y="472" name="top"/>
  <outline>
    <contour>
      <point x="525" y="472" type="line"/>
      <point x="326" y="472" type="line"/>
      <point x="305" y="416" type="line"/>
      <point x="220" y="257" type="line"/>
      <point x="220" y="245" type="line"/>
      <point x="248" y="160"/>
      <point x="284" y="79"/>
      <point x="328" y="-2" type="curve"/>
      <point x="348" y="-12" type="line"/>
      <point x="410" y="-6"/>
      <point x="469" y="0"/>
      <point x="531" y="12" type="curve"/>
      <point x="532" y="32" type="line"/>
      <point x="486" y="110"/>
      <point x="443" y="186"/>
      <point x="405" y="263" type="curve"/>
    </contour>
    <contour>
      <point x="40" y="0" type="line"/>
      <point x="235" y="0" type="line"/>
      <point x="227" y="210" type="line"/>
      <point x="236" y="474" type="line"/>
      <point x="42" y="461" type="line"/>
      <point x="49" y="190" type="line"/>
    </contour>
  </outline>
</glyph>
<glyph name="lslash" format="2">
  <advance width="321"/>
  <unicode hex="0142"/>
  <anchor x="161" y="0" name="bottom"/>
  <anchor x="161" y="680" name="top"/>
  <anchor x="282" y="472" name="topright"/>
  <outline>
    <contour>
      <point x="305" y="479" type="line"/>
      <point x="182" y="417" type="line"/>
      <point x="182" y="440" type="line"/>
      <point x="-30" y="334" type="line"/>
      <point x="7" y="229" type="line"/>
      <point x="17" y="227" type="line"/>
      <point x="186" y="311" type="line"/>
      <point x="186" y="288" type="line"/>
      <point x="351" y="371" type="line"/>
      <point x="314" y="475" type="line"/>
    </contour>
    <contour>
      <point x="259" y="702" type="line"/>
      <point x="65" y="689" type="line"/>
      <point x="72" y="190" type="line"/>
      <point x="63" y="0" type="line"/>
      <point x="258" y="0" type="line"/>
      <point x="250" y="210" type="line"/>
    </contour>
  </outline>
</glyph>
<glyph name="Tcedilla" format="2">
  <advance width="519"/>
  <unicode hex="0162"/>
  <anchor x="270" y="-208" name="bottom"/>
  <anchor x="261" y="324" name="center"/>
  <anchor x="261" y="647" name="top"/>
  <outline>
    <contour>
      <point x="361" y="627" type="line"/>
      <point x="164" y="627" type="line"/>
      <point x="171" y="190" type="line"/>
      <point x="161" y="0" type="line"/>
      <point x="361" y="0" type="line"/>
      <point x="353" y="210" type="line"/>
    </contour>
    <contour>
      <point x="502" y="647" type="line"/>
      <point x="19" y="647" type="line"/>
      <point x="8" y="501" type="line"/>
      <point x="20" y="487" type="line"/>
      <point x="153" y="493" type="line"/>
      <point x="370" y="493" type="line"/>
      <point x="502" y="487" type="line"/>
      <point x="513" y="633" type="line"/>
    </contour>
    <contour>
      <point x="301" y="0" type="line"/>
      <point x="218" y="0" type="line"/>
      <point x="202" y="-78" type="line"/>
      <point x="252" y="-105" type="line" smooth="yes"/>
      <point x="260" y="-109"/>
      <point x="264" y="-113"/>
      <point x="264" y="-120" type="curve" smooth="yes"/>
      <point x="264" y="-129"/>
      <point x="259" y="-134"/>
      <point x="248" y="-134" type="curve" smooth="yes"/>
      <point x="234" y="-134"/>
      <point x="209" y="-124"/>
      <point x="188" y="-106" type="curve"/>
      <point x="180" y="-109" type="line"/>
      <point x="169" y="-184" type="line"/>
      <point x="196" y="-199"/>
      <point x="226" y="-208"/>
      <point x="261" y="-208" type="curve" smooth="yes"/>
      <point x="330" y="-208"/>
      <point x="371" y="-172"/>
      <point x="371" y="-124" type="curve" smooth="yes"/>
      <point x="371" y="-100"/>
      <point x="361" y="-79"/>
      <point x="327" y="-61" type="curve" smooth="yes"/>
      <point x="293" y="-42" type="line"/>
    </contour>
  </outline>
</glyph>
<glyph name="tbar" format="2">
  <advance width="367"/>
  <unicode hex="0167"/>
  <anchor x="214" y="0" name="bottom"/>
  <anchor x="184" y="236" name="center"/>
  <anchor x="170" y="556" name="top"/>
  <anchor x="354" y="472" name="topright"/>
  <outline>
    <contour>
      <point x="329" y="304" type="line"/>
      <point x="10" y="304" type="line"/>
      <point x="3" y="216" type="line"/>
      <point x="15" y="203" type="line"/>
      <point x="334" y="203" type="line"/>
      <point x="341" y="291" type="line"/>
    </contour>
    <contour>
      <point x="231" y="-7" type="curve"/>
      <point x="268" y="-1"/>
      <point x="309" y="14"/>
      <point x="337" y="31" type="curve"/>
      <point x="355" y="139" type="line"/>
      <point x="343" y="154" type="line"/>
      <point x="323" y="147"/>
      <point x="300" y="142"/>
      <point x="283" y="142" type="curve" smooth="yes"/>
      <point x="254" y="142"/>
      <point x="244" y="153"/>
      <point x="244" y="185" type="curve"/>
      <point x="259" y="589" type="line"/>
      <point x="247" y="600" type="line"/>
      <point x="66" y="552" type="line"/>
      <point x="68" y="229" type="line"/>
      <point x="62" y="125" type="line"/>
      <point x="62" y="46"/>
      <point x="124" y="-7"/>
    </contour>
    <contour>
      <point x="5" y="354" type="line"/>
      <point x="349" y="354" type="line"/>
      <point x="357" y="457" type="line"/>
      <point x="352" y="467" type="line"/>
      <point x="8" y="467" type="line"/>
      <point x="0" y="364" type="line"/>
    </contour>
  </outline>
</glyph>
<glyph name="Schwa" format="2">
  <advance width="640"/>
  <unicode hex="018F"/>
  <anchor x="219" y="468" name="bottom"/>
  <anchor x="50" y="458" name="ogonek"/>
  <anchor x="234" y="0" name="top"/>
  <outline>
    <contour>
      <point x="285" y="656" type="curve" smooth="yes"/>
      <point x="219" y="656"/>
      <point x="153" y="645"/>
      <point x="87" y="622" type="curve"/>
      <point x="51" y="468" type="line"/>
      <point x="69" y="455" type="line"/>
      <point x="148" y="483"/>
      <point x="215" y="497"/>
      <point x="271" y="497" type="curve" smooth="yes"/>
      <point x="379" y="497"/>
      <point x="424" y="444"/>
      <point x="424" y="312" type="curve" smooth="yes"/>
      <point x="424" y="191"/>
      <point x="386" y="133"/>
      <point x="305" y="133" type="curve" smooth="yes"/>
      <point x="244" y="133"/>
      <point x="207" y="172"/>
      <point x="207" y="225" type="curve"/>
      <point x="209" y="244" type="line"/>
      <point x="451" y="251" type="line"/>
      <point x="452" y="364" type="line"/>
      <point x="51" y="361" type="line"/>
      <point x="26" y="330" type="line"/>
      <point x="21" y="299"/>
      <point x="18" y="272"/>
      <point x="18" y="246" type="curve" smooth="yes"/>
      <point x="18" y="98"/>
      <point x="127" y="-11"/>
      <point x="301" y="-11" type="curve" smooth="yes"/>
      <point x="500" y="-11"/>
      <point x="623" y="116"/>
      <point x="623" y="322" type="curve" smooth="yes"/>
      <point x="623" y="532"/>
      <point x="496" y="656"/>
    </contour>
  </outline>
</glyph>
<glyph name="florin" format="2">
  <advance width="361"/>
  <unicode hex="0192"/>
  <outline>
    <contour>
      <point x="359" y="626" type="curve" smooth="yes"/>
      <point x="210" y="626"/>
      <point x="114" y="556"/>
      <point x="98" y="429" type="curve" smooth="yes"/>
      <point x="94" y="397" type="line"/>
      <point x="23" y="397" type="line"/>
      <point x="12" y="299" type="line"/>
      <point x="16" y="290" type="line"/>
      <point x="82" y="290" type="line"/>
      <point x="70" y="167" type="line"/>
      <point x="57" y="60" type="line" smooth="yes"/>
      <point x="48" y="2"/>
      <point x="27" y="-32"/>
      <point x="-17" y="-58" type="curve"/>
      <point x="-19" y="-72" type="line"/>
      <point x="61" y="-151" type="line"/>
      <point x="169" y="-99"/>
      <point x="213" y="-36"/>
      <point x="225" y="64" type="curve"/>
      <point x="238" y="186" type="line"/>
      <point x="253" y="290" type="line"/>
      <point x="353" y="290" type="line"/>
      <point x="363" y="387" type="line"/>
      <point x="359" y="397" type="line"/>
      <point x="268" y="397" type="line"/>
      <point x="277" y="461" type="line" smooth="yes"/>
      <point x="282" y="491"/>
      <point x="299" y="500"/>
      <point x="324" y="500" type="curve" smooth="yes"/>
      <point x="344" y="500"/>
      <point x="369" y="494"/>
      <point x="408" y="478" type="curve"/>
      <point x="421" y="486" type="line"/>
      <point x="448" y="617" type="line"/>
      <point x="417" y="623"/>
      <point x="389" y="626"/>
    </contour>
  </outline>
</glyph>
<glyph name="Aringacute" format="2">
  <advance width="627"/>
  <unicode hex="01FA"/>
  <anchor x="319" y="506" name="_top"/>
  <anchor x="344" y="980" name="top"/>
  <outline>
    <contour>
      <point x="423" y="647" type="line"/>
      <point x="216" y="647" type="line"/>
      <point x="2" y="0" type="line"/>
      <point x="198" y="0" type="line"/>
      <point x="217" y="115" type="line"/>
      <point x="309" y="450" type="line"/>
      <point x="321" y="450" type="line"/>
      <point x="396" y="103" type="line"/>
      <point x="414" y="0" type="line"/>
      <point x="617" y="0" type="line"/>
    </contour>
    <contour>
      <point x="412" y="248" type="line"/>
      <point x="309" y="246" type="line"/>
      <point x="187" y="248" type="line"/>
      <point x="187" y="103" type="line"/>
      <point x="297" y="108" type="line"/>
      <point x="412" y="106" type="line"/>
    </contour>
    <contour>
      <point x="274" y="288" type="move"/>
    </contour>
    <contour>
      <point x="324" y="789" type="curve" smooth="yes"/>
      <point x="249" y="789"/>
      <point x="210" y="751"/>
      <point x="210" y="678" type="curve" smooth="yes"/>
      <point x="210" y="607"/>
      <point x="246" y="571"/>
      <point x="316" y="571" type="curve" smooth="yes"/>
      <point x="391" y="571"/>
      <point x="430" y="612"/>
      <point x="430" y="685" type="curve" smooth="yes"/>
      <point x="430" y="754"/>
      <point x="395" y="789"/>
    </contour>
    <contour>
      <point x="319" y="711" type="curve" smooth="yes"/>
      <point x="345" y="711"/>
      <point x="355" y="702"/>
      <point x="355" y="678" type="curve" smooth="yes"/>
      <point x="355" y="655"/>
      <point x="346" y="647"/>
      <point x="321" y="647" type="curve" smooth="yes"/>
      <point x="295" y="647"/>
      <point x="285" y="656"/>
      <point x="285" y="681" type="curve" smooth="yes"/>
      <point x="285" y="703"/>
      <point x="294" y="711"/>
    </contour>
    <contour>
      <point x="439.567" y="979.901" type="line"/>
      <point x="363.439" y="948.19"/>
      <point x="287.728" y="919.449"/>
      <point x="199.72" y="889.406" type="curve"/>
      <point x="218.439" y="807.026" type="line"/>
      <point x="234.713" y="800.703" type="line"/>
      <point x="313.723" y="809.8"/>
      <point x="391.031" y="821.155"/>
      <point x="479.924" y="835.931" type="curve"/>
      <point x="488.088" y="850.937" type="line"/>
      <point x="455.841" y="973.578" type="line"/>
    </contour>
  </outline>
</glyph>
<glyph name="jdotless" format="2">
  <advance width="306"/>
  <unicode hex="0237"/>
  <anchor x="155" y="472" name="top"/>
  <outline>
    <contour>
      <point x="258" y="476" type="line"/>
      <point x="77" y="467" type="line"/>
      <point x="6" y="467" type="line"/>
      <point x="-2" y="365" type="line"/>
      <point x="8" y="354" type="line"/>
      <point x="72" y="354" type="line"/>
      <point x="76" y="190" type="line"/>
      <point x="76" y="31" type="line" smooth="yes"/>
      <point x="76" y="-30"/>
      <point x="54" y="-70"/>
      <point x="7" y="-95" type="curve"/>
      <point x="7" y="-111" type="line"/>
      <point x="72" y="-197" type="line"/>
      <point x="202" y="-145"/>
      <point x="261" y="-72"/>
      <point x="261" y="35" type="curve"/>
      <point x="254" y="210" type="line"/>
      <point x="263" y="472" type="line"/>
    </contour>
  </outline>
</glyph>
<glyph name="primemod" format="2">
  <advance width="250"/>
  <unicode hex="02B9"/>
  <outline>
    <contour>
      <point x="204" y="646" type="line"/>
      <point x="53" y="637" type="line"/>
      <point x="63" y="369" type="line"/>
      <point x="78" y="358" type="line"/>
      <point x="166" y="372" type="line"/>
      <point x="214" y="634" type="line"/>
    </contour>
  </outline>
</glyph>
<glyph name="ringhalfright" format="2">
  <advance width="205"/>
  <unicode hex="02BE"/>
  <outline>
    <contour>
      <point x="40" y="395" type="line"/>
      <point x="131" y="395"/>
      <point x="177" y="439"/>
      <point x="177" y="526" type="curve" smooth="yes"/>
      <point x="177" y="612"/>
      <point x="138" y="646"/>
      <point x="40" y="646" type="curve"/>
      <point x="40" y="556" type="line"/>
      <point x="79" y="556"/>
      <point x="91" y="548"/>
      <point x="91" y="518" type="curve" smooth="yes"/>
      <point x="91" y="490"/>
      <point x="75" y="479"/>
      <point x="40" y="484" type="curve"/>
    </contour>
  </outline>
</glyph>
<glyph name="verticallinelowmod" format="2">
  <advance width="234"/>
  <unicode hex="02CC"/>
  <outline>
    <contour>
      <point x="47" y="-230" type="line"/>
      <point x="187" y="-230" type="line"/>
      <point x="187" y="-46" type="line"/>
      <point x="47" y="-46" type="line"/>
    </contour>
  </outline>
</glyph>
<glyph name="acutecomb" format="2">
  <unicode hex="0301"/>
  <anchor x="175" y="472" name="_top"/>
  <anchor x="195" y="755" name="top"/>
  <outline>
    <contour>
      <point x="252" y="755" type="line"/>
      <point x="189" y="701"/>
      <point x="126" y="650"/>
      <point x="51" y="594" type="curve"/>
      <point x="95" y="522" type="line"/>
      <point x="112" y="521" type="line"/>
      <point x="184" y="554"/>
      <point x="254" y="589"/>
      <point x="335" y="630" type="curve"/>
      <point x="338" y="647" type="line"/>
      <point x="269" y="754" type="line"/>
    </contour>
  </outline>
</glyph>
<glyph name="dieresiscomb" format="2">
  <unicode hex="0308"/>
  <anchor x="195" y="472" name="_top"/>
  <anchor x="195" y="717" name="top"/>
  <outline>
    <contour>
      <point x="101.66" y="717.3" type="curve" smooth="yes"/>
      <point x="46.85" y="717.3"/>
      <point x="12.92" y="682.5"/>
      <point x="12.92" y="626.82" type="curve" smooth="yes"/>
      <point x="12.92" y="573.75"/>
      <point x="41.63" y="544.17"/>
      <point x="94.7" y="544.17" type="curve" smooth="yes"/>
      <point x="148.64" y="544.17"/>
      <point x="182.57" y="578.97"/>
      <point x="182.57" y="634.65" type="curve" smooth="yes"/>
      <point x="182.57" y="686.85"/>
      <point x="152.99" y="717.3"/>
    </contour>
    <contour>
      <point x="294.66" y="717.3" type="curve" smooth="yes"/>
      <point x="239.85" y="717.3"/>
      <point x="205.92" y="682.5"/>
      <point x="205.92" y="626.82" type="curve" smooth="yes"/>
      <point x="205.92" y="573.75"/>
      <point x="234.63" y="544.17"/>
      <point x="287.7" y="544.17" type="curve" smooth="yes"/>
      <point x="341.64" y="544.17"/>
      <point x="375.57" y="578.97"/>
      <point x="375.57" y="634.65" type="curve" smooth="yes"/>
      <point x="375.57" y="686.85"/>
      <point x="345.99" y="717.3"/>
    </contour>
  </outline>
</glyph>
<glyph name="caroncomb" format="2">
  <unicode hex="030C"/>
  <anchor x="193" y="472" name="_top"/>
  <anchor x="193" y="748" name="top"/>
  <outline>
    <contour>
      <point x="326" y="748" type="line"/>
      <point x="308" y="748" type="line"/>
      <point x="264" y="720"/>
      <point x="222" y="692"/>
      <point x="193" y="670" type="curve"/>
      <point x="164" y="692"/>
      <point x="122" y="720"/>
      <point x="78" y="748" type="curve"/>
      <point x="60" y="748" type="line"/>
      <point x="13" y="676" type="line"/>
      <point x="70" y="627"/>
      <point x="129" y="573"/>
      <point x="176" y="526" type="curve"/>
      <point x="210" y="526" type="line"/>
      <point x="266" y="581"/>
      <point x="324" y="635"/>
      <point x="373" y="676" type="curve"/>
    </contour>
  </outline>
</glyph>
<glyph name="horncomb" format="2">
  <unicode hex="031B"/>
  <anchor x="126" y="472" name="_topright"/>
  <anchor x="126" y="472" name="topright"/>
  <outline>
    <contour>
      <point x="27" y="376" type="line"/>
      <point x="144" y="376"/>
      <point x="224" y="437"/>
      <point x="224" y="527" type="curve" smooth="yes"/>
      <point x="224" y="587"/>
      <point x="189" y="630"/>
      <point x="140" y="630" type="curve" smooth="yes"/>
      <point x="107" y="630"/>
      <point x="72" y="611"/>
      <point x="47" y="593" type="curve"/>
      <point x="44" y="579" type="line"/>
      <point x="62" y="563"/>
      <point x="73" y="540"/>
      <point x="73" y="517" type="curve" smooth="yes"/>
      <point x="73" y="489"/>
      <point x="58" y="472"/>
      <point x="27" y="472" type="curve"/>
    </contour>
  </outline>
</glyph>
<glyph name="ogonekcomb" format="2">
  <unicode hex="0328"/>
  <anchor x="239" y="43" name="_ogonek"/>
  <outline>
    <contour>
      <point x="139" y="-197" type="curve" smooth="yes"/>
      <point x="175" y="-197"/>
      <point x="215" y="-184"/>
      <point x="253" y="-161" type="curve"/>
      <point x="233" y="-77" type="line"/>
      <point x="224" y="-74" type="line"/>
      <point x="194" y="-87"/>
      <point x="169" y="-93"/>
      <point x="153" y="-93" type="curve" smooth="yes"/>
      <point x="138" y="-93"/>
      <point x="131" y="-88"/>
      <point x="131" y="-76" type="curve" smooth="yes"/>
      <point x="131" y="-58"/>
      <point x="152" y="-35"/>
      <point x="239" y="43" type="curve"/>
      <point x="144" y="43" type="line"/>
      <point x="39" y="-12"/>
      <point x="17" y="-57"/>
      <point x="17" y="-99" type="curve" smooth="yes"/>
      <point x="17" y="-159"/>
      <point x="66" y="-197"/>
    </contour>
  </outline>
</glyph>
<glyph name="macronbelowcomb" format="2">
  <unicode hex="0331"/>
  <anchor x="185" y="0" name="_bottom"/>
  <anchor x="185" y="-184" name="bottom"/>
  <outline>
    <contour>
      <point x="311" y="-64" type="line"/>
      <point x="55" y="-64" type="line"/>
      <point x="46" y="-171" type="line"/>
      <point x="58" y="-184" type="line"/>
      <point x="314" y="-184" type="line"/>
      <point x="323" y="-77" type="line"/>
    </contour>
  </outline>
</glyph>
<glyph name="lowernumeral-greek" format="2">
  <advance width="250"/>
  <unicode hex="0375"/>
  <outline>
    <contour>
      <point x="46" y="-172" type="line"/>
      <point x="197" y="-163" type="line"/>
      <point x="187" y="105" type="line"/>
      <point x="172" y="116" type="line"/>
      <point x="84" y="102" type="line"/>
      <point x="36" y="-160" type="line"/>
    </contour>
  </outline>
</glyph>
<glyph name="dieresistonos" format="2">
  <advance width="486"/>
  <unicode hex="0385"/>
  <anchor x="243" y="472" name="_top"/>
  <outline>
    <contour>
      <point x="230" y="541" type="line"/>
      <point x="252" y="547" type="line"/>
      <point x="349" y="727" type="line"/>
      <point x="342" y="740" type="line"/>
      <point x="234" y="783" type="line"/>
      <point x="223" y="774" type="line"/>
      <point x="207" y="704"/>
      <point x="188" y="636"/>
      <point x="168" y="569" type="curve"/>
    </contour>
    <contour>
      <point x="80" y="554" type="curve" smooth="yes"/>
      <point x="128" y="554"/>
      <point x="158" y="585"/>
      <point x="158" y="633" type="curve" smooth="yes"/>
      <point x="158" y="679"/>
      <point x="132" y="705"/>
      <point x="87" y="705" type="curve" smooth="yes"/>
      <point x="39" y="705"/>
      <point x="9" y="674"/>
      <point x="9" y="626" type="curve" smooth="yes"/>
      <point x="9" y="579"/>
      <point x="34" y="554"/>
    </contour>
    <contour>
      <point x="400" y="554" type="curve" smooth="yes"/>
      <point x="448" y="554"/>
      <point x="477" y="585"/>
      <point x="477" y="633" type="curve" smooth="yes"/>
      <point x="477" y="679"/>
      <point x="451" y="705"/>
      <point x="406" y="705" type="curve" smooth="yes"/>
      <point x="358" y="705"/>
      <point x="328" y="674"/>
      <point x="328" y="626" type="curve" smooth="yes"/>
      <point x="328" y="579"/>
      <point x="353" y="554"/>
    </contour>
  </outline>
</glyph>
<glyph name="Theta" format="2">
  <advance width="683"/>
  <unicode hex="0398"/>
  <outline>
    <contour>
      <point x="271" y="249" type="line"/>
      <point x="419" y="254" type="line"/>
      <point x="424" y="379" type="line"/>
      <point x="412" y="391" type="line"/>
      <point x="264" y="386" type="line"/>
      <point x="259" y="261" type="line"/>
    </contour>
    <contour>
      <point x="356" y="659" type="curve" smooth="yes"/>
      <point x="144" y="659"/>
      <point x="17" y="529"/>
      <point x="17" y="312" type="curve" smooth="yes"/>
      <point x="17" y="110"/>
      <point x="133" y="-12"/>
      <point x="327" y="-12" type="curve" smooth="yes"/>
      <point x="539" y="-12"/>
      <point x="666" y="120"/>
      <point x="666" y="340" type="curve" smooth="yes"/>
      <point x="666" y="539"/>
      <point x="550" y="659"/>
    </contour>
    <contour>
      <point x="338" y="499" type="curve" smooth="yes"/>
      <point x="433" y="499"/>
      <point x="463" y="451"/>
      <point x="463" y="296" type="curve" smooth="yes"/>
      <point x="463" y="180"/>
      <point x="431" y="136"/>
      <point x="345" y="136" type="curve" smooth="yes"/>
      <point x="249" y="136"/>
      <point x="220" y="183"/>
      <point x="220" y="340" type="curve" smooth="yes"/>
      <point x="220" y="459"/>
      <point x="250" y="499"/>
    </contour>
  </outline>
</glyph>
<glyph name="Lambda" format="2">
  <advance width="622"/>
  <unicode hex="039B"/>
  <outline>
    <contour>
      <point x="441" y="647" type="line"/>
      <point x="192" y="647" type="line"/>
      <point x="2" y="0" type="line"/>
      <point x="204" y="0" type="line"/>
      <point x="223" y="121" type="line"/>
      <point x="306" y="464" type="line"/>
      <point x="319" y="464" type="line"/>
      <point x="386" y="109" type="line"/>
      <point x="404" y="0" type="line"/>
      <point x="612" y="0" type="line"/>
    </contour>
  </outline>
</glyph>
<glyph name="Phi" format="2">
  <advance width="834"/>
  <unicode hex="03A6"/>
  <outline>
    <contour>
      <point x="405" y="47" type="curve" smooth="yes"/>
      <point x="669" y="47"/>
      <point x="816" y="126"/>
      <point x="816" y="340" type="curve" smooth="yes"/>
      <point x="816" y="526"/>
      <point x="683" y="616"/>
      <point x="428" y="616" type="curve" smooth="yes"/>
      <point x="164" y="616"/>
      <point x="18" y="538"/>
      <point x="18" y="323" type="curve" smooth="yes"/>
      <point x="18" y="137"/>
      <point x="151" y="47"/>
    </contour>
    <contour>
      <point x="424" y="189" type="curve" smooth="yes"/>
      <point x="270" y="189"/>
      <point x="209" y="221"/>
      <point x="209" y="332" type="curve" smooth="yes"/>
      <point x="209" y="437"/>
      <point x="269" y="472"/>
      <point x="411" y="472" type="curve" smooth="yes"/>
      <point x="568" y="472"/>
      <point x="625" y="435"/>
      <point x="625" y="324" type="curve" smooth="yes"/>
      <point x="625" y="218"/>
      <point x="563" y="189"/>
    </contour>
    <contour>
      <point x="324" y="-38" type="line"/>
      <point x="508" y="-38" type="line"/>
      <point x="502" y="210" type="line"/>
      <point x="511" y="684" type="line"/>
      <point x="324" y="684" type="line"/>
      <point x="333" y="190" type="line"/>
    </contour>
  </outline>
</glyph>
<glyph name="Omega" format="2">
  <advance width="689"/>
  <unicode hex="03A9"/>
  <anchor x="334" y="0" name="bottom"/>
  <anchor x="334" y="647" name="top"/>
  <anchor x="-14" y="647" name="topleft"/>
  <outline>
    <contour>
      <point x="43" y="-6" type="line"/>
      <point x="141" y="0" type="line"/>
      <point x="276" y="0" type="line"/>
      <point x="315" y="-3" type="line"/>
      <point x="324" y="4" type="line"/>
      <point x="321" y="191" type="line"/>
      <point x="266" y="230"/>
      <point x="246" y="274"/>
      <point x="246" y="362" type="curve" smooth="yes"/>
      <point x="246" y="463"/>
      <point x="271" y="500"/>
      <point x="340" y="500" type="curve" smooth="yes"/>
      <point x="413" y="500"/>
      <point x="440" y="460"/>
      <point x="440" y="351" type="curve" smooth="yes"/>
      <point x="440" y="264"/>
      <point x="422" y="227"/>
      <point x="367" y="191" type="curve"/>
      <point x="365" y="4" type="line"/>
      <point x="372" y="-3" type="line"/>
      <point x="412" y="0" type="line"/>
      <point x="551" y="0" type="line"/>
      <point x="637" y="-4" type="line"/>
      <point x="655" y="146" type="line"/>
      <point x="645" y="158" type="line"/>
      <point x="547" y="148" type="line"/>
      <point x="505" y="148" type="line"/>
      <point x="505" y="157" type="line"/>
      <point x="603" y="212"/>
      <point x="649" y="288"/>
      <point x="649" y="392" type="curve" smooth="yes"/>
      <point x="649" y="555"/>
      <point x="534" y="659"/>
      <point x="354" y="659" type="curve" smooth="yes"/>
      <point x="165" y="659"/>
      <point x="42" y="548"/>
      <point x="42" y="377" type="curve" smooth="yes"/>
      <point x="42" y="271"/>
      <point x="89" y="198"/>
      <point x="182" y="157" type="curve"/>
      <point x="182" y="148" type="line"/>
      <point x="137" y="148" type="line"/>
      <point x="51" y="156" type="line"/>
      <point x="33" y="6" type="line"/>
    </contour>
  </outline>
</glyph>
<glyph name="beta" format="2">
  <advance width="543"/>
  <unicode hex="03B2"/>
  <outline>
    <contour>
      <point x="44" y="-185" type="line"/>
      <point x="237" y="-185" type="line"/>
      <point x="229" y="484" type="line"/>
      <point x="229" y="537"/>
      <point x="245" y="561"/>
      <point x="280" y="561" type="curve" smooth="yes"/>
      <point x="310" y="561"/>
      <point x="326" y="543"/>
      <point x="326" y="508" type="curve" smooth="yes"/>
      <point x="326" y="478"/>
      <point x="314" y="452"/>
      <point x="290" y="430" type="curve"/>
      <point x="258" y="430" type="line"/>
      <point x="252" y="306" type="line"/>
      <point x="261" y="294" type="line"/>
      <point x="291" y="294" type="line" smooth="yes"/>
      <point x="327" y="294"/>
      <point x="351" y="258"/>
      <point x="351" y="206" type="curve" smooth="yes"/>
      <point x="351" y="150"/>
      <point x="324" y="118"/>
      <point x="276" y="118" type="curve" smooth="yes"/>
      <point x="223" y="118"/>
      <point x="145" y="154"/>
      <point x="81" y="208" type="curve"/>
      <point x="81" y="40" type="line"/>
      <point x="146" y="7"/>
      <point x="215" y="-11"/>
      <point x="280" y="-11" type="curve" smooth="yes"/>
      <point x="429" y="-11"/>
      <point x="531" y="79"/>
      <point x="531" y="211" type="curve" smooth="yes"/>
      <point x="531" y="328"/>
      <point x="454" y="394"/>
      <point x="318" y="394" type="curve"/>
      <point x="335" y="350" type="line"/>
      <point x="442" y="384"/>
      <point x="502" y="452"/>
      <point x="502" y="539" type="curve" smooth="yes"/>
      <point x="502" y="640"/>
      <point x="423" y="704"/>
      <point x="299" y="704" type="curve" smooth="yes"/>
      <point x="143" y="704"/>
      <point x="53" y="605"/>
      <point x="53" y="435" type="curve" smooth="yes"/>
      <point x="53" y="190" type="line"/>
    </contour>
  </outline>
</glyph>
<glyph name="gamma" format="2">
  <advance width="459"/>
  <unicode hex="03B3"/>
  <outline>
    <contour>
      <point x="125" y="-185" type="line"/>
      <point x="319" y="-185" type="line"/>
      <point x="313" y="88" type="line"/>
      <point x="131" y="88" type="line"/>
    </contour>
    <contour>
      <point x="450" y="472" type="curve"/>
      <point x="300" y="476" type="line"/>
      <point x="291" y="466" type="line"/>
      <point x="295" y="407"/>
      <point x="285" y="338"/>
      <point x="258" y="252" type="curve" smooth="yes"/>
      <point x="239" y="189" type="line"/>
      <point x="229" y="189" type="line"/>
      <point x="194" y="381" type="line"/>
      <point x="181" y="476" type="line"/>
      <point x="-1" y="469" type="line"/>
      <point x="130" y="-2" type="line"/>
      <point x="314" y="-2" type="line"/>
      <point x="392" y="203" type="line" smooth="yes"/>
      <point x="447" y="347"/>
      <point x="457" y="396"/>
    </contour>
  </outline>
</glyph>
<glyph name="epsilon" format="2">
  <advance width="458"/>
  <unicode hex="03B5"/>
  <anchor x="229" y="472" name="top"/>
  <outline>
    <contour>
      <point x="240" y="-11" type="curve"/>
      <point x="295" y="-11"/>
      <point x="367" y="-2"/>
      <point x="416" y="11" type="curve"/>
      <point x="432" y="130" type="line"/>
      <point x="419" y="141" type="line"/>
      <point x="372" y="127"/>
      <point x="322" y="119"/>
      <point x="273" y="119" type="curve" smooth="yes"/>
      <point x="218" y="119"/>
      <point x="195" y="129"/>
      <point x="195" y="152" type="curve" smooth="yes"/>
      <point x="195" y="171"/>
      <point x="209" y="179"/>
      <point x="241" y="179" type="curve" smooth="yes"/>
      <point x="373" y="179" type="line"/>
      <point x="382" y="282" type="line"/>
      <point x="376" y="292" type="line"/>
      <point x="238" y="292" type="line"/>
      <point x="220" y="301"/>
      <point x="212" y="311"/>
      <point x="212" y="323" type="curve" smooth="yes"/>
      <point x="212" y="342"/>
      <point x="235" y="353"/>
      <point x="274" y="353" type="curve" smooth="yes"/>
      <point x="313" y="353"/>
      <point x="354" y="342"/>
      <point x="395" y="322" type="curve"/>
      <point x="409" y="329" type="line"/>
      <point x="436" y="457" type="line"/>
      <point x="394" y="472"/>
      <point x="321" y="483"/>
      <point x="254" y="483" type="curve" smooth="yes"/>
      <point x="114" y="483"/>
      <point x="31" y="434"/>
      <point x="31" y="347" type="curve" smooth="yes"/>
      <point x="31" y="278"/>
      <point x="83" y="239"/>
      <point x="210" y="212" type="curve"/>
      <point x="238" y="265" type="line"/>
      <point x="91" y="265"/>
      <point x="13" y="217"/>
      <point x="13" y="128" type="curve" smooth="yes"/>
      <point x="13" y="37"/>
      <point x="92" y="-11"/>
    </contour>
  </outline>
</glyph>
<glyph name="zeta" format="2">
  <advance width="430"/>
  <unicode hex="03B6"/>
  <outline>
    <contour>
      <point x="207" y="-194" type="line"/>
      <point x="364" y="-129"/>
      <point x="433" y="-64"/>
      <point x="433" y="35" type="curve" smooth="yes"/>
      <point x="433" y="101"/>
      <point x="385" y="150"/>
      <point x="312" y="162" type="curve" smooth="yes"/>
      <point x="256" y="171" type="line" smooth="yes"/>
      <point x="214" y="178"/>
      <point x="190" y="204"/>
      <point x="190" y="242" type="curve" smooth="yes"/>
      <point x="190" y="301"/>
      <point x="261" y="388"/>
      <point x="440" y="575" type="curve"/>
      <point x="440" y="701" type="line"/>
      <point x="375" y="700" type="line"/>
      <point x="173" y="700" type="line"/>
      <point x="53" y="702" type="line"/>
      <point x="41" y="569" type="line"/>
      <point x="47" y="562" type="line"/>
      <point x="142" y="571" type="line"/>
      <point x="240" y="571" type="line"/>
      <point x="64" y="408"/>
      <point x="8" y="309"/>
      <point x="8" y="211" type="curve" smooth="yes"/>
      <point x="8" y="100"/>
      <point x="75" y="25"/>
      <point x="196" y="13" type="curve" smooth="yes"/>
      <point x="247" y="8" type="line" smooth="yes"/>
      <point x="259" y="7"/>
      <point x="264" y="5"/>
      <point x="264" y="2" type="curve" smooth="yes"/>
      <point x="264" y="-5"/>
      <point x="249" y="-10"/>
      <point x="143" y="-58" type="curve"/>
      <point x="133" y="-79" type="line"/>
    </contour>
  </outline>
</glyph>
<glyph name="eta" format="2">
  <advance width="547"/>
  <unicode hex="03B7"/>
  <anchor x="133" y="0" name="bottom"/>
  <anchor x="274" y="472" name="top"/>
  <outline>
    <contour>
      <point x="354" y="478" type="curve"/>
      <point x="306" y="462"/>
      <point x="270" y="437"/>
      <point x="237" y="404" type="curve"/>
      <point x="207" y="404" type="line"/>
      <point x="206" y="296" type="line"/>
      <point x="234" y="316"/>
      <point x="256" y="325"/>
      <point x="277" y="325" type="curve" smooth="yes"/>
      <point x="308" y="325"/>
      <point x="324" y="306"/>
      <point x="324" y="264" type="curve"/>
      <point x="314" y="-185" type="line"/>
      <point x="509" y="-185" type="line"/>
      <point x="502" y="210" type="line"/>
      <point x="506" y="346" type="line" smooth="yes"/>
      <point x="508" y="431"/>
      <point x="454" y="478"/>
    </contour>
    <contour>
      <point x="230" y="474" type="line"/>
      <point x="45" y="461" type="line"/>
      <point x="52" y="190" type="line"/>
      <point x="43" y="0" type="line"/>
      <point x="238" y="0" type="line"/>
      <point x="230" y="210" type="line"/>
    </contour>
  </outline>
</glyph>
<glyph name="rho" format="2">
  <advance width="520"/>
  <unicode hex="03C1"/>
  <anchor x="271" y="472" name="top"/>
  <outline>
    <contour>
      <point x="25" y="-185" type="line"/>
      <point x="219" y="-185" type="line"/>
      <point x="211" y="260" type="line"/>
      <point x="211" y="311"/>
      <point x="227" y="335"/>
      <point x="260" y="335" type="curve" smooth="yes"/>
      <point x="302" y="335"/>
      <point x="323" y="298"/>
      <point x="323" y="220" type="curve" smooth="yes"/>
      <point x="323" y="143"/>
      <point x="300" y="118"/>
      <point x="250" y="118" type="curve" smooth="yes"/>
      <point x="195" y="118"/>
      <point x="119" y="159"/>
      <point x="63" y="220" type="curve"/>
      <point x="63" y="43" type="line"/>
      <point x="141" y="4"/>
      <point x="199" y="-12"/>
      <point x="262" y="-12" type="curve" smooth="yes"/>
      <point x="417" y="-12"/>
      <point x="506" y="84"/>
      <point x="506" y="251" type="curve" smooth="yes"/>
      <point x="506" y="401"/>
      <point x="423" y="479"/>
      <point x="287" y="479" type="curve" smooth="yes"/>
      <point x="119" y="479"/>
      <point x="33" y="379"/>
      <point x="33" y="206" type="curve"/>
    </contour>
  </outline>
</glyph>
<glyph name="sigmafinal" format="2">
  <advance width="410"/>
  <unicode hex="03C2"/>
  <outline>
    <contour>
      <point x="183" y="-194" type="line"/>
      <point x="330" y="-123"/>
      <point x="397" y="-50"/>
      <point x="397" y="38" type="curve" smooth="yes"/>
      <point x="397" y="104"/>
      <point x="359" y="147"/>
      <point x="282" y="166" type="curve" smooth="yes"/>
      <point x="250" y="174" type="line" smooth="yes"/>
      <point x="212" y="183"/>
      <point x="197" y="206"/>
      <point x="197" y="252" type="curve" smooth="yes"/>
      <point x="197" y="303"/>
      <point x="216" y="326"/>
      <point x="259" y="326" type="curve" smooth="yes"/>
      <point x="280" y="326"/>
      <point x="300" y="320"/>
      <point x="334" y="304" type="curve"/>
      <point x="348" y="312" type="line"/>
      <point x="379" y="459" type="line"/>
      <point x="332" y="476"/>
      <point x="288" y="484"/>
      <point x="247" y="484" type="curve" smooth="yes"/>
      <point x="109" y="484"/>
      <point x="10" y="393"/>
      <point x="10" y="245" type="curve" smooth="yes"/>
      <point x="10" y="131"/>
      <point x="67" y="56"/>
      <point x="183" y="20" type="curve" smooth="yes"/>
      <point x="221" y="8" type="line" smooth="yes"/>
      <point x="227" y="6"/>
      <point x="229" y="5"/>
      <point x="229" y="3" type="curve" smooth="yes"/>
      <point x="229" y="-6"/>
      <point x="200" y="-22"/>
      <point x="119" y="-58" type="curve"/>
      <point x="109" y="-79" type="line"/>
    </contour>
  </outline>
</glyph>
<glyph name="sigma" format="2">
  <advance width="537"/>
  <unicode hex="03C3"/>
  <outline>
    <contour>
      <point x="234" y="-12" type="curve" smooth="yes"/>
      <point x="381" y="-12"/>
      <point x="478" y="75"/>
      <point x="478" y="207" type="curve" smooth="yes"/>
      <point x="478" y="252"/>
      <point x="466" y="284"/>
      <point x="434" y="325" type="curve"/>
      <point x="452" y="379" type="line"/>
      <point x="263" y="430" type="line"/>
      <point x="287" y="364"/>
      <point x="301" y="281"/>
      <point x="301" y="210" type="curve" smooth="yes"/>
      <point x="301" y="141"/>
      <point x="287" y="114"/>
      <point x="250" y="114" type="curve" smooth="yes"/>
      <point x="210" y="114"/>
      <point x="197" y="145"/>
      <point x="197" y="241" type="curve" smooth="yes"/>
      <point x="197" y="321"/>
      <point x="206" y="334"/>
      <point x="263" y="334" type="curve" smooth="yes"/>
      <point x="522" y="334" type="line"/>
      <point x="531" y="462" type="line"/>
      <point x="526" y="472" type="line"/>
      <point x="272" y="472" type="line" smooth="yes"/>
      <point x="101" y="472"/>
      <point x="14" y="388"/>
      <point x="14" y="224" type="curve" smooth="yes"/>
      <point x="14" y="70"/>
      <point x="90" y="-12"/>
    </contour>
  </outline>
</glyph>
<glyph name="tau" format="2">
  <advance width="433"/>
  <unicode hex="03C4"/>
  <outline>
    <contour>
      <point x="283" y="-7" type="curve"/>
      <point x="316" y="-1"/>
      <point x="353" y="14"/>
      <point x="378" y="30" type="curve"/>
      <point x="395" y="131" type="line"/>
      <point x="383" y="145" type="line"/>
      <point x="367" y="140"/>
      <point x="349" y="137"/>
      <point x="337" y="137" type="curve" smooth="yes"/>
      <point x="311" y="137"/>
      <point x="303" y="146"/>
      <point x="303" y="177" type="curve"/>
      <point x="314" y="460" type="line"/>
      <point x="127" y="455" type="line"/>
      <point x="132" y="236" type="line"/>
      <point x="127" y="128" type="line"/>
      <point x="127" y="47"/>
      <point x="186" y="-7"/>
    </contour>
    <contour>
      <point x="47" y="302" type="line"/>
      <point x="90" y="326"/>
      <point x="131" y="337"/>
      <point x="178" y="337" type="curve" smooth="yes"/>
      <point x="412" y="337" type="line"/>
      <point x="422" y="462" type="line"/>
      <point x="417" y="471" type="line"/>
      <point x="150" y="471" type="line" smooth="yes"/>
      <point x="78" y="471"/>
      <point x="31" y="450"/>
      <point x="-8" y="399" type="curve"/>
      <point x="-8" y="380" type="line"/>
      <point x="29" y="304" type="line"/>
    </contour>
  </outline>
</glyph>
<glyph name="upsilon" format="2">
  <advance width="512"/>
  <unicode hex="03C5"/>
  <anchor x="256" y="472" name="top"/>
  <outline>
    <contour>
      <point x="248" y="-11" type="curve" smooth="yes"/>
      <point x="391" y="-11"/>
      <point x="470" y="53"/>
      <point x="473" y="169" type="curve" smooth="yes"/>
      <point x="481" y="475" type="line"/>
      <point x="297" y="462" type="line"/>
      <point x="301" y="194" type="line" smooth="yes"/>
      <point x="302" y="149"/>
      <point x="289" y="135"/>
      <point x="254" y="135" type="curve" smooth="yes"/>
      <point x="220" y="135"/>
      <point x="209" y="149"/>
      <point x="210" y="194" type="curve" smooth="yes"/>
      <point x="218" y="474" type="line"/>
      <point x="34" y="462" type="line"/>
      <point x="37" y="252" type="line"/>
      <point x="35" y="169" type="line" smooth="yes"/>
      <point x="32" y="52"/>
      <point x="107" y="-11"/>
    </contour>
  </outline>
</glyph>
<glyph name="phi" format="2">
  <advance width="725"/>
  <unicode hex="03C6"/>
  <outline>
    <contour>
      <point x="279" y="304" type="curve" smooth="yes"/>
      <point x="267" y="-185" type="line"/>
      <point x="450" y="-185" type="line"/>
      <point x="441" y="289" type="line" smooth="yes"/>
      <point x="440" y="329"/>
      <point x="457" y="355"/>
      <point x="483" y="355" type="curve" smooth="yes"/>
      <point x="516" y="355"/>
      <point x="534" y="315"/>
      <point x="534" y="242" type="curve" smooth="yes"/>
      <point x="534" y="139"/>
      <point x="497" y="109"/>
      <point x="373" y="109" type="curve" smooth="yes"/>
      <point x="238" y="109"/>
      <point x="191" y="145"/>
      <point x="191" y="250" type="curve" smooth="yes"/>
      <point x="191" y="314"/>
      <point x="208" y="346"/>
      <point x="254" y="371" type="curve"/>
      <point x="254" y="395" type="line"/>
      <point x="191" y="488" type="line"/>
      <point x="75" y="450"/>
      <point x="12" y="360"/>
      <point x="12" y="232" type="curve" smooth="yes"/>
      <point x="12" y="62"/>
      <point x="123" y="-19"/>
      <point x="354" y="-19" type="curve" smooth="yes"/>
      <point x="595" y="-19"/>
      <point x="713" y="70"/>
      <point x="713" y="250" type="curve" smooth="yes"/>
      <point x="713" y="399"/>
      <point x="632" y="484"/>
      <point x="492" y="484" type="curve" smooth="yes"/>
      <point x="365" y="484"/>
      <point x="282" y="414"/>
    </contour>
  </outline>
</glyph>
<glyph name="omega" format="2">
  <advance width="728"/>
  <unicode hex="03C9"/>
  <anchor x="364" y="0" name="bottom"/>
  <anchor x="364" y="441" name="top"/>
  <outline>
    <contour>
      <point x="201" y="-7" type="curve"/>
      <point x="289" y="-7"/>
      <point x="353" y="39"/>
      <point x="379" y="140" type="curve"/>
      <point x="334" y="140" type="line"/>
      <point x="359" y="41"/>
      <point x="418" y="-7"/>
      <point x="512" y="-7" type="curve" smooth="yes"/>
      <point x="632" y="-7"/>
      <point x="710" y="68"/>
      <point x="710" y="232" type="curve" smooth="yes"/>
      <point x="710" y="351"/>
      <point x="692" y="461"/>
      <point x="530" y="488" type="curve"/>
      <point x="466" y="386" type="line"/>
      <point x="466" y="362" type="line"/>
      <point x="525" y="346"/>
      <point x="527" y="318"/>
      <point x="527" y="232" type="curve" smooth="yes"/>
      <point x="527" y="150"/>
      <point x="519" y="119"/>
      <point x="487" y="119" type="curve" smooth="yes"/>
      <point x="469" y="119"/>
      <point x="453" y="135"/>
      <point x="453" y="179" type="curve" smooth="yes"/>
      <point x="453" y="310" type="line"/>
      <point x="446" y="316" type="line"/>
      <point x="275" y="306" type="line"/>
      <point x="275" y="170" type="line" smooth="yes"/>
      <point x="275" y="127"/>
      <point x="255" y="119"/>
      <point x="239" y="119" type="curve" smooth="yes"/>
      <point x="206" y="119"/>
      <point x="199" y="151"/>
      <point x="199" y="235" type="curve" smooth="yes"/>
      <point x="199" y="311"/>
      <point x="205" y="336"/>
      <point x="261" y="361" type="curve"/>
      <point x="261" y="385" type="line"/>
      <point x="197" y="488" type="line"/>
      <point x="59" y="456"/>
      <point x="17" y="361"/>
      <point x="17" y="233" type="curve" smooth="yes"/>
      <point x="17" y="70"/>
      <point x="85" y="-7"/>
    </contour>
  </outline>
</glyph>
<glyph name="kappaSymbol" format="2">
  <advance width="538"/>
  <unicode hex="03F0"/>
  <outline>
    <contour>
      <point x="351" y="-12" type="line"/>
      <point x="413" y="-6"/>
      <point x="472" y="0"/>
      <point x="534" y="12" type="curve"/>
      <point x="535" y="32" type="line"/>
      <point x="489" y="110"/>
      <point x="446" y="186"/>
      <point x="408" y="263" type="curve"/>
      <point x="528" y="472" type="line"/>
      <point x="329" y="472" type="line"/>
      <point x="308" y="416" type="line"/>
      <point x="223" y="257" type="line"/>
      <point x="223" y="245" type="line"/>
      <point x="251" y="160"/>
      <point x="287" y="79"/>
      <point x="331" y="-2" type="curve"/>
    </contour>
    <contour>
      <point x="43" y="0" type="line"/>
      <point x="238" y="0" type="line"/>
      <point x="230" y="210" type="line"/>
      <point x="239" y="474" type="line"/>
      <point x="45" y="461" type="line"/>
      <point x="52" y="190" type="line"/>
    </contour>
  </outline>
</glyph>
<glyph name="Lje-cy" format="2">
  <advance width="955"/>
  <unicode hex="0409"/>
  <outline>
    <contour>
      <point x="471" y="0" type="line"/>
      <point x="636" y="0" type="line"/>
      <point x="827" y="0"/>
      <point x="943" y="93"/>
      <point x="943" y="241" type="curve" smooth="yes"/>
      <point x="943" y="358"/>
      <point x="869" y="422"/>
      <point x="728" y="422" type="curve" smooth="yes"/>
      <point x="462" y="422" type="line"/>
      <point x="462" y="278" type="line"/>
      <point x="660" y="284" type="line" smooth="yes"/>
      <point x="706" y="285"/>
      <point x="732" y="257"/>
      <point x="732" y="214" type="curve" smooth="yes"/>
      <point x="732" y="177"/>
      <point x="713" y="148"/>
      <point x="677" y="136" type="curve"/>
      <point x="471" y="150" type="line"/>
    </contour>
    <contour>
      <point x="39" y="-17" type="line"/>
      <point x="88" y="-17" type="line" smooth="yes"/>
      <point x="228" y="-17"/>
      <point x="278" y="85"/>
      <point x="329" y="472" type="curve" smooth="yes"/>
      <point x="352" y="647" type="line"/>
      <point x="176" y="647" type="line"/>
      <point x="160" y="509" type="line" smooth="yes"/>
      <point x="128" y="231"/>
      <point x="100" y="164"/>
      <point x="7" y="148" type="curve"/>
    </contour>
    <contour>
      <point x="399" y="0" type="line"/>
      <point x="600" y="0" type="line"/>
      <point x="592" y="210" type="line"/>
      <point x="603" y="647" type="line"/>
      <point x="399" y="647" type="line"/>
      <point x="409" y="190" type="line"/>
    </contour>
    <contour>
      <point x="256" y="499" type="line"/>
      <point x="504" y="499" type="line"/>
      <point x="504" y="647" type="line"/>
      <point x="176" y="647" type="line"/>
    </contour>
  </outline>
</glyph>
<glyph name="Nje-cy" format="2">
  <advance width="1000"/>
  <unicode hex="040A"/>
  <outline>
    <contour>
      <point x="516" y="0" type="line"/>
      <point x="681" y="0" type="line"/>
      <point x="872" y="0"/>
      <point x="988" y="93"/>
      <point x="988" y="241" type="curve" smooth="yes"/>
      <point x="988" y="358"/>
      <point x="914" y="419"/>
      <point x="773" y="419" type="curve" smooth="yes"/>
      <point x="507" y="419" type="line"/>
      <point x="507" y="270" type="line"/>
      <point x="705" y="275" type="line" smooth="yes"/>
      <point x="751" y="277"/>
      <point x="777" y="254"/>
      <point x="777" y="211" type="curve" smooth="yes"/>
      <point x="777" y="175"/>
      <point x="758" y="148"/>
      <point x="722" y="136" type="curve"/>
      <point x="516" y="149" type="line"/>
    </contour>
    <contour>
      <point x="59" y="0" type="line"/>
      <point x="260" y="0" type="line"/>
      <point x="252" y="210" type="line"/>
      <point x="263" y="647" type="line"/>
      <point x="59" y="647" type="line"/>
      <point x="69" y="190" type="line"/>
    </contour>
    <contour>
      <point x="232" y="260" type="line"/>
      <point x="346" y="264" type="line"/>
      <point x="467" y="264" type="line"/>
      <point x="467" y="412" type="line"/>
      <point x="358" y="410" type="line"/>
      <point x="232" y="413" type="line"/>
    </contour>
    <contour>
      <point x="445" y="0" type="line"/>
      <point x="645" y="0" type="line"/>
      <point x="637" y="209" type="line"/>
      <point x="648" y="648" type="line"/>
      <point x="445" y="648" type="line"/>
      <point x="456" y="189" type="line"/>
    </contour>
  </outline>
</glyph>
<glyph name="Tshe-cy" format="2">
  <advance width="720"/>
  <unicode hex="040B"/>
  <outline>
    <contour>
      <point x="494" y="0" type="line"/>
      <point x="694" y="0" type="line"/>
      <point x="687" y="208" type="line"/>
      <point x="687" y="365"/>
      <point x="625" y="434"/>
      <point x="481" y="434" type="curve"/>
      <point x="436" y="417"/>
      <point x="397" y="392"/>
      <point x="367" y="360" type="curve"/>
      <point x="340" y="360" type="line"/>
      <point x="343" y="231" type="line"/>
      <point x="378" y="254"/>
      <point x="409" y="265"/>
      <point x="438" y="265" type="curve" smooth="yes"/>
      <point x="485" y="265"/>
      <point x="504" y="238"/>
      <point x="504" y="174" type="curve"/>
    </contour>
    <contour>
      <point x="160" y="0" type="line"/>
      <point x="361" y="0" type="line"/>
      <point x="353" y="210" type="line"/>
      <point x="364" y="647" type="line"/>
      <point x="160" y="647" type="line"/>
      <point x="170" y="190" type="line"/>
    </contour>
    <contour>
      <point x="21" y="487" type="line"/>
      <point x="134" y="493" type="line"/>
      <point x="421" y="493" type="line"/>
      <point x="553" y="487" type="line"/>
      <point x="564" y="633" type="line"/>
      <point x="553" y="647" type="line"/>
      <point x="20" y="647" type="line"/>
      <point x="9" y="501" type="line"/>
    </contour>
  </outline>
</glyph>
<glyph name="Dzhe-cy" format="2">
  <advance width="681"/>
  <unicode hex="040F"/>
  <outline>
    <contour>
      <point x="419" y="0" type="line"/>
      <point x="620" y="0" type="line"/>
      <point x="612" y="210" type="line"/>
      <point x="623" y="647" type="line"/>
      <point x="419" y="647" type="line"/>
      <point x="429" y="190" type="line"/>
    </contour>
    <contour>
      <point x="59" y="0" type="line"/>
      <point x="260" y="0" type="line"/>
      <point x="252" y="210" type="line"/>
      <point x="263" y="647" type="line"/>
      <point x="59" y="647" type="line"/>
      <point x="69" y="190" type="line"/>
    </contour>
    <contour>
      <point x="223" y="0" type="line"/>
      <point x="444" y="0" type="line"/>
      <point x="444" y="152" type="line"/>
      <point x="223" y="152" type="line"/>
    </contour>
    <contour>
      <point x="267" y="-167" type="line"/>
      <point x="412" y="-157" type="line"/>
      <point x="438" y="102" type="line"/>
      <point x="240" y="102" type="line"/>
    </contour>
  </outline>
</glyph>
<glyph name="Be-cy" format="2">
  <advance width="630"/>
  <unicode hex="0411"/>
  <outline>
    <contour>
      <point x="131" y="0" type="line"/>
      <point x="297" y="0" type="line"/>
      <point x="489" y="0"/>
      <point x="606" y="88"/>
      <point x="606" y="233" type="curve" smooth="yes"/>
      <point x="606" y="348"/>
      <point x="531" y="408"/>
      <point x="389" y="408" type="curve" smooth="yes"/>
      <point x="122" y="408" type="line"/>
      <point x="122" y="267" type="line"/>
      <point x="322" y="272" type="line" smooth="yes"/>
      <point x="369" y="273"/>
      <point x="395" y="249"/>
      <point x="395" y="207" type="curve" smooth="yes"/>
      <point x="395" y="171"/>
      <point x="375" y="145"/>
      <point x="338" y="133" type="curve"/>
      <point x="131" y="147" type="line"/>
    </contour>
    <contour>
      <point x="59" y="0" type="line"/>
      <point x="259" y="0" type="line"/>
      <point x="251" y="209" type="line"/>
      <point x="262" y="647" type="line"/>
      <point x="59" y="647" type="line"/>
      <point x="70" y="189" type="line"/>
    </contour>
    <contour>
      <point x="198" y="493" type="line"/>
      <point x="400" y="493" type="line"/>
      <point x="567" y="487" type="line"/>
      <point x="579" y="633" type="line"/>
      <point x="569" y="647" type="line"/>
      <point x="198" y="647" type="line"/>
    </contour>
  </outline>
</glyph>
<glyph name="Tse-cy" format="2">
  <advance width="704"/>
  <unicode hex="0426"/>
  <outline>
    <contour>
      <point x="408" y="0" type="line"/>
      <point x="609" y="0" type="line"/>
      <point x="601" y="210" type="line"/>
      <point x="612" y="647" type="line"/>
      <point x="408" y="647" type="line"/>
      <point x="418" y="190" type="line"/>
    </contour>
    <contour>
      <point x="161" y="0" type="line"/>
      <point x="513" y="0" type="line"/>
      <point x="513" y="162" type="line"/>
      <point x="161" y="162" type="line"/>
    </contour>
    <contour>
      <point x="59" y="0" type="line"/>
      <point x="260" y="0" type="line"/>
      <point x="252" y="210" type="line"/>
      <point x="263" y="647" type="line"/>
      <point x="59" y="647" type="line"/>
      <point x="69" y="190" type="line"/>
    </contour>
    <component base="descender-cy.case" xOffset="392"/>
  </outline>
</glyph>
<glyph name="Ereversed-cy" format="2">
  <advance width="580"/>
  <unicode hex="042D"/>
  <outline>
    <contour>
      <point x="199" y="-11" type="curve" smooth="yes"/>
      <point x="432" y="-11"/>
      <point x="555" y="110"/>
      <point x="555" y="339" type="curve" smooth="yes"/>
      <point x="555" y="555"/>
      <point x="448" y="658"/>
      <point x="222" y="658" type="curve" smooth="yes"/>
      <point x="167" y="658"/>
      <point x="112" y="652"/>
      <point x="55" y="639" type="curve"/>
      <point x="39" y="481" type="line"/>
      <point x="56" y="471" type="line"/>
      <point x="121" y="485"/>
      <point x="168" y="491"/>
      <point x="207" y="491" type="curve" smooth="yes"/>
      <point x="312" y="491"/>
      <point x="344" y="449"/>
      <point x="344" y="316" type="curve" smooth="yes"/>
      <point x="344" y="195"/>
      <point x="312" y="152"/>
      <point x="217" y="152" type="curve" smooth="yes"/>
      <point x="170" y="152"/>
      <point x="112" y="164"/>
      <point x="70" y="183" type="curve"/>
      <point x="56" y="175" type="line"/>
      <point x="22" y="16" type="line"/>
      <point x="78" y="-2"/>
      <point x="138" y="-11"/>
    </contour>
    <contour>
      <point x="126" y="245" type="line"/>
      <point x="250" y="248" type="line"/>
      <point x="414" y="248" type="line"/>
      <point x="415" y="391" type="line"/>
      <point x="414" y="402" type="line"/>
      <point x="263" y="402" type="line"/>
      <point x="127" y="405" type="line"/>
      <point x="115" y="259" type="line"/>
    </contour>
  </outline>
</glyph>
<glyph name="be-cy" format="2">
  <advance width="515"/>
  <unicode hex="0431"/>
  <outline>
    <contour>
      <point x="253" y="-12" type="curve" smooth="yes"/>
      <point x="417" y="-12"/>
      <point x="500" y="73"/>
      <point x="500" y="241" type="curve" smooth="yes"/>
      <point x="500" y="387"/>
      <point x="437" y="461"/>
      <point x="314" y="461" type="curve"/>
      <point x="280" y="449"/>
      <point x="249" y="424"/>
      <point x="221" y="390" type="curve"/>
      <point x="196" y="396" type="line"/>
      <point x="196" y="287" type="line"/>
      <point x="214" y="304"/>
      <point x="231" y="311"/>
      <point x="252" y="311" type="curve" smooth="yes"/>
      <point x="301" y="311"/>
      <point x="317" y="283"/>
      <point x="317" y="199" type="curve" smooth="yes"/>
      <point x="317" y="132"/>
      <point x="307" y="114"/>
      <point x="269" y="114" type="curve" smooth="yes"/>
      <point x="222" y="114"/>
      <point x="212" y="148"/>
      <point x="212" y="311" type="curve" smooth="yes"/>
      <point x="212" y="439" type="line" smooth="yes"/>
      <point x="212" y="478"/>
      <point x="225" y="494"/>
      <point x="263" y="502" type="curve" smooth="yes"/>
      <point x="351" y="520" type="line" smooth="yes"/>
      <point x="382" y="526"/>
      <point x="419" y="533"/>
      <point x="447" y="540" type="curve"/>
      <point x="440" y="693" type="line"/>
      <point x="424" y="705" type="line"/>
      <point x="385" y="688"/>
      <point x="360" y="680"/>
      <point x="325" y="670" type="curve" smooth="yes"/>
      <point x="232" y="642" type="line" smooth="yes"/>
      <point x="80" y="596"/>
      <point x="29" y="510"/>
      <point x="29" y="301" type="curve" smooth="yes"/>
      <point x="29" y="74"/>
      <point x="91" y="-12"/>
    </contour>
  </outline>
</glyph>
<glyph name="de-cy" format="2">
  <advance width="582"/>
  <unicode hex="0434"/>
  <anchor x="328" y="0" name="_bottomright"/>
  <outline>
    <contour>
      <point x="97" y="75" type="line"/>
      <point x="213" y="104"/>
      <point x="250" y="125"/>
      <point x="277" y="333" type="curve" smooth="yes"/>
      <point x="295" y="471" type="line"/>
      <point x="146" y="471" type="line"/>
      <point x="132" y="366" type="line" smooth="yes"/>
      <point x="110" y="207"/>
      <point x="97" y="170"/>
      <point x="38" y="137" type="curve"/>
    </contour>
    <contour>
      <point x="38" y="0" type="line"/>
      <point x="380" y="0" type="line"/>
      <point x="380" y="137" type="line"/>
      <point x="38" y="137" type="line"/>
    </contour>
    <contour>
      <point x="213" y="347" type="line"/>
      <point x="415" y="347" type="line"/>
      <point x="415" y="471" type="line"/>
      <point x="146" y="471" type="line"/>
    </contour>
    <contour>
      <point x="324" y="0" type="line"/>
      <point x="515" y="0" type="line"/>
      <point x="507" y="210" type="line"/>
      <point x="516" y="471" type="line"/>
      <point x="326" y="471" type="line"/>
      <point x="333" y="190" type="line"/>
    </contour>
    <contour>
      <point x="440" y="-134" type="line"/>
      <point x="562" y="-126" type="line"/>
      <point x="562" y="137" type="line"/>
      <point x="396" y="137" type="line"/>
    </contour>
    <contour>
      <point x="325" y="0" type="line"/>
      <point x="554" y="0" type="line"/>
      <point x="562" y="137" type="line"/>
      <point x="367" y="137" type="line"/>
    </contour>
    <contour>
      <point x="241" y="0" type="line"/>
      <point x="200" y="137" type="line"/>
      <point x="5" y="137" type="line"/>
      <point x="13" y="0" type="line"/>
    </contour>
    <contour>
      <point x="5" y="-134" type="line"/>
      <point x="128" y="-126" type="line"/>
      <point x="171" y="137" type="line"/>
      <point x="5" y="137" type="line"/>
    </contour>
  </outline>
</glyph>
<glyph name="el-cy" format="2">
  <advance width="531"/>
  <unicode hex="043B"/>
  <outline>
    <contour>
      <point x="25" y="-13" type="line"/>
      <point x="66" y="-14" type="line" smooth="yes"/>
      <point x="173" y="-17"/>
      <point x="209" y="49"/>
      <point x="250" y="332" type="curve" smooth="yes"/>
      <point x="270" y="472" type="line"/>
      <point x="118" y="472" type="line"/>
      <point x="105" y="365" type="line" smooth="yes"/>
      <point x="84" y="194"/>
      <point x="63" y="155"/>
      <point x="-2" y="139" type="curve"/>
    </contour>
    <contour>
      <point x="186" y="345" type="line"/>
      <point x="390" y="345" type="line"/>
      <point x="390" y="472" type="line"/>
      <point x="117" y="472" type="line"/>
    </contour>
    <contour>
      <point x="290" y="0" type="line"/>
      <point x="485" y="0" type="line"/>
      <point x="477" y="210" type="line"/>
      <point x="486" y="472" type="line"/>
      <point x="292" y="472" type="line"/>
      <point x="299" y="190" type="line"/>
    </contour>
  </outline>
</glyph>
<glyph name="em-cy" format="2">
  <advance width="648"/>
  <unicode hex="043C"/>
  <outline>
    <contour>
      <point x="25" y="0" type="line"/>
      <point x="168" y="0" type="line"/>
      <point x="176" y="159" type="line"/>
      <point x="183" y="232" type="line"/>
      <point x="193" y="232" type="line"/>
      <point x="252" y="41" type="line"/>
      <point x="376" y="41" type="line"/>
      <point x="449" y="232" type="line"/>
      <point x="460" y="232" type="line"/>
      <point x="465" y="143" type="line"/>
      <point x="464" y="0" type="line"/>
      <point x="618" y="0" type="line"/>
      <point x="580" y="471" type="line"/>
      <point x="388" y="471" type="line"/>
      <point x="370" y="397" type="line"/>
      <point x="328" y="257" type="line"/>
      <point x="319" y="257" type="line"/>
      <point x="283" y="406" type="line"/>
      <point x="269" y="471" type="line"/>
      <point x="74" y="471" type="line"/>
    </contour>
  </outline>
</glyph>
<glyph name="en-cy" format="2">
  <advance width="571"/>
  <unicode hex="043D"/>
  <anchor x="282" y="0" name="bottom"/>
  <anchor x="330" y="0" name="bottomright"/>
  <anchor x="282" y="236" name="center"/>
  <anchor x="282" y="471" name="top"/>
  <anchor x="31" y="471" name="topleft"/>
  <outline>
    <contour>
      <point x="207" y="305" type="line"/>
      <point x="207" y="159" type="line"/>
      <point x="281" y="163" type="line"/>
      <point x="359" y="161" type="line"/>
      <point x="359" y="304" type="line"/>
      <point x="291" y="303" type="line"/>
    </contour>
    <contour>
      <point x="44" y="0" type="line"/>
      <point x="239" y="0" type="line"/>
      <point x="231" y="210" type="line"/>
      <point x="240" y="472" type="line"/>
      <point x="46" y="472" type="line"/>
      <point x="53" y="190" type="line"/>
    </contour>
    <contour>
      <point x="330" y="0" type="line"/>
      <point x="525" y="0" type="line"/>
      <point x="517" y="210" type="line"/>
      <point x="526" y="472" type="line"/>
      <point x="332" y="472" type="line"/>
      <point x="339" y="190" type="line"/>
    </contour>
  </outline>
</glyph>
<glyph name="che-cy" format="2">
  <advance width="521"/>
  <unicode hex="0447"/>
  <anchor x="280" y="0" name="bottomright"/>
  <anchor x="247" y="472" name="top"/>
  <outline>
    <contour>
      <point x="301" y="286" type="line"/>
      <point x="280" y="273"/>
      <point x="261" y="267"/>
      <point x="246" y="267" type="curve" smooth="yes"/>
      <point x="222" y="267"/>
      <point x="207" y="283"/>
      <point x="207" y="314" type="curve"/>
      <point x="211" y="472" type="line"/>
      <point x="18" y="472" type="line"/>
      <point x="23" y="275" type="line" smooth="yes"/>
      <point x="26" y="171"/>
      <point x="78" y="124"/>
      <point x="193" y="124" type="curve"/>
      <point x="226" y="137"/>
      <point x="254" y="155"/>
      <point x="278" y="177" type="curve"/>
      <point x="300" y="177" type="line"/>
    </contour>
    <contour>
      <point x="280" y="0" type="line"/>
      <point x="475" y="0" type="line"/>
      <point x="467" y="210" type="line"/>
      <point x="476" y="472" type="line"/>
      <point x="282" y="472" type="line"/>
      <point x="289" y="190" type="line"/>
    </contour>
  </outline>
</glyph>
<glyph name="ereversed-cy" format="2">
  <advance width="450"/>
  <unicode hex="044D"/>
  <outline>
    <contour>
      <point x="163" y="-12" type="curve" smooth="yes"/>
      <point x="337" y="-12"/>
      <point x="437" y="82"/>
      <point x="437" y="246" type="curve" smooth="yes"/>
      <point x="437" y="401"/>
      <point x="348" y="484"/>
      <point x="181" y="484" type="curve" smooth="yes"/>
      <point x="134" y="484"/>
      <point x="81" y="479"/>
      <point x="46" y="471" type="curve"/>
      <point x="26" y="333" type="line"/>
      <point x="41" y="322" type="line"/>
      <point x="81" y="332"/>
      <point x="116" y="337"/>
      <point x="147" y="337" type="curve" smooth="yes"/>
      <point x="223" y="337"/>
      <point x="261" y="300"/>
      <point x="261" y="225" type="curve" smooth="yes"/>
      <point x="261" y="159"/>
      <point x="234" y="131"/>
      <point x="165" y="131" type="curve" smooth="yes"/>
      <point x="134" y="131"/>
      <point x="110" y="136"/>
      <point x="64" y="152" type="curve"/>
      <point x="49" y="145" type="line"/>
      <point x="17" y="12" type="line"/>
      <point x="59" y="-3"/>
      <point x="110" y="-12"/>
    </contour>
    <contour>
      <point x="99" y="170" type="line"/>
      <point x="186" y="172" type="line"/>
      <point x="309" y="173" type="line"/>
      <point x="309" y="293" type="line"/>
      <point x="196" y="293" type="line"/>
      <point x="99" y="295" type="line"/>
      <point x="90" y="182" type="line"/>
    </contour>
  </outline>
</glyph>
<glyph name="ia-cy" format="2">
  <advance width="519"/>
  <unicode hex="044F"/>
  <outline>
    <contour>
      <point x="209" y="140" type="curve"/>
      <point x="390" y="140" type="line"/>
      <point x="390" y="258" type="line"/>
      <point x="259" y="245" type="line"/>
      <point x="226" y="256"/>
      <point x="214" y="277"/>
      <point x="214" y="309" type="curve" smooth="yes"/>
      <point x="214" y="340"/>
      <point x="228" y="355"/>
      <point x="257" y="356" type="curve"/>
      <point x="352" y="349" type="line"/>
      <point x="474" y="472" type="line"/>
      <point x="235" y="473" type="line"/>
      <point x="118" y="473"/>
      <point x="31" y="402"/>
      <point x="31" y="306" type="curve" smooth="yes"/>
      <point x="31" y="208"/>
      <point x="81" y="169"/>
    </contour>
    <contour>
      <point x="180" y="-9" type="curve"/>
      <point x="195" y="4" type="line"/>
      <point x="223" y="70"/>
      <point x="253" y="139"/>
      <point x="277" y="212" type="curve"/>
      <point x="138" y="213" type="line"/>
      <point x="83" y="137"/>
      <point x="40" y="83"/>
      <point x="2" y="41" type="curve"/>
      <point x="5" y="22" type="line"/>
      <point x="46" y="4"/>
      <point x="104" y="-6"/>
    </contour>
    <contour>
      <point x="289" y="0" type="line"/>
      <point x="473" y="0" type="line"/>
      <point x="465" y="210" type="line"/>
      <point x="474" y="472" type="line"/>
      <point x="298" y="472" type="line"/>
      <point x="298" y="190" type="line"/>
    </contour>
  </outline>
</glyph>
<glyph name="dje-cy" format="2">
  <advance width="556"/>
  <unicode hex="0452"/>
  <outline>
    <contour>
      <point x="337" y="-191" type="line"/>
      <point x="497" y="-67"/>
      <point x="522" y="-3"/>
      <point x="522" y="278" type="curve" smooth="yes"/>
      <point x="522" y="430"/>
      <point x="484" y="478"/>
      <point x="364" y="478" type="curve"/>
      <point x="319" y="463"/>
      <point x="282" y="439"/>
      <point x="247" y="404" type="curve"/>
      <point x="217" y="404" type="line"/>
      <point x="216" y="296" type="line"/>
      <point x="243" y="316"/>
      <point x="265" y="325"/>
      <point x="289" y="325" type="curve" smooth="yes"/>
      <point x="332" y="325"/>
      <point x="340" y="311"/>
      <point x="340" y="238" type="curve" smooth="yes"/>
      <point x="340" y="13"/>
      <point x="327" y="-42"/>
      <point x="258" y="-106" type="curve"/>
      <point x="258" y="-123" type="line"/>
    </contour>
    <contour>
      <point x="51" y="0" type="line"/>
      <point x="246" y="0" type="line"/>
      <point x="238" y="210" type="line"/>
      <point x="247" y="702" type="line"/>
      <point x="53" y="689" type="line"/>
      <point x="60" y="190" type="line"/>
    </contour>
    <contour>
      <point x="-4" y="511" type="line"/>
      <point x="355" y="511" type="line"/>
      <point x="362" y="599" type="line"/>
      <point x="350" y="612" type="line"/>
      <point x="-9" y="612" type="line"/>
      <point x="-16" y="524" type="line"/>
    </contour>
  </outline>
</glyph>
<glyph name="lje-cy" format="2">
  <advance width="754"/>
  <unicode hex="0459"/>
  <outline>
    <contour>
      <point x="372" y="0" type="line"/>
      <point x="506" y="0" type="line"/>
      <point x="658" y="0"/>
      <point x="753" y="72"/>
      <point x="753" y="187" type="curve" smooth="yes"/>
      <point x="753" y="273"/>
      <point x="692" y="319"/>
      <point x="577" y="319" type="curve" smooth="yes"/>
      <point x="364" y="319" type="line"/>
      <point x="364" y="204" type="line"/>
      <point x="522" y="209" type="line" smooth="yes"/>
      <point x="550" y="210"/>
      <point x="569" y="191"/>
      <point x="569" y="164" type="curve" smooth="yes"/>
      <point x="569" y="145"/>
      <point x="556" y="124"/>
      <point x="537" y="115" type="curve"/>
      <point x="372" y="124" type="line"/>
    </contour>
    <contour>
      <point x="25" y="-13" type="line"/>
      <point x="66" y="-14" type="line" smooth="yes"/>
      <point x="172" y="-17"/>
      <point x="209" y="49"/>
      <point x="249" y="332" type="curve" smooth="yes"/>
      <point x="269" y="472" type="line"/>
      <point x="117" y="472" type="line"/>
      <point x="104" y="365" type="line" smooth="yes"/>
      <point x="83" y="194"/>
      <point x="63" y="155"/>
      <point x="-2" y="139" type="curve"/>
    </contour>
    <contour>
      <point x="290" y="0" type="line"/>
      <point x="485" y="0" type="line"/>
      <point x="477" y="210" type="line"/>
      <point x="486" y="472" type="line"/>
      <point x="292" y="472" type="line"/>
      <point x="299" y="190" type="line"/>
    </contour>
    <contour>
      <point x="185" y="345" type="line"/>
      <point x="390" y="345" type="line"/>
      <point x="390" y="472" type="line"/>
      <point x="116" y="472" type="line"/>
    </contour>
  </outline>
</glyph>
<glyph name="Yat-cy" format="2">
  <advance width="712"/>
  <unicode hex="0462"/>
  <outline>
    <contour>
      <point x="230" y="0" type="line"/>
      <point x="395" y="0" type="line"/>
      <point x="586" y="0"/>
      <point x="702" y="85"/>
      <point x="702" y="219" type="curve" smooth="yes"/>
      <point x="702" y="325"/>
      <point x="628" y="384"/>
      <point x="487" y="384" type="curve" smooth="yes"/>
      <point x="221" y="384" type="line"/>
      <point x="221" y="253" type="line"/>
      <point x="419" y="258" type="line" smooth="yes"/>
      <point x="465" y="259"/>
      <point x="491" y="234"/>
      <point x="491" y="195" type="curve" smooth="yes"/>
      <point x="491" y="161"/>
      <point x="472" y="135"/>
      <point x="436" y="124" type="curve"/>
      <point x="230" y="136" type="line"/>
    </contour>
    <contour>
      <point x="159" y="0" type="line"/>
      <point x="359" y="0" type="line"/>
      <point x="351" y="209" type="line"/>
      <point x="362" y="700" type="line"/>
      <point x="159" y="700" type="line"/>
      <point x="170" y="189" type="line"/>
    </contour>
    <contour>
      <point x="549" y="608" type="line"/>
      <point x="19" y="608" type="line"/>
      <point x="8" y="473" type="line"/>
      <point x="20" y="460" type="line"/>
      <point x="153" y="466" type="line"/>
      <point x="397" y="466" type="line"/>
      <point x="549" y="460" type="line"/>
      <point x="560" y="595" type="line"/>
    </contour>
  </outline>
</glyph>
<glyph name="yat-cy" format="2">
  <advance width="556"/>
  <unicode hex="0463"/>
  <outline>
    <contour>
      <point x="94" y="0" type="line"/>
      <point x="289" y="0" type="line"/>
      <point x="281" y="210" type="line"/>
      <point x="290" y="702" type="line"/>
      <point x="96" y="689" type="line"/>
      <point x="103" y="190" type="line"/>
    </contour>
    <contour>
      <point x="8" y="348" type="line"/>
      <point x="109" y="353" type="line"/>
      <point x="316" y="353" type="line"/>
      <point x="417" y="348" type="line"/>
      <point x="427" y="461" type="line"/>
      <point x="417" y="472" type="line"/>
      <point x="7" y="472" type="line"/>
      <point x="-2" y="360" type="line"/>
    </contour>
    <contour>
      <point x="176" y="0" type="line"/>
      <point x="310" y="0" type="line"/>
      <point x="462" y="0"/>
      <point x="557" y="67"/>
      <point x="557" y="175" type="curve" smooth="yes"/>
      <point x="557" y="255"/>
      <point x="496" y="298"/>
      <point x="381" y="298" type="curve" smooth="yes"/>
      <point x="168" y="298" type="line"/>
      <point x="168" y="188" type="line"/>
      <point x="326" y="193" type="line" smooth="yes"/>
      <point x="354" y="194"/>
      <point x="373" y="178"/>
      <point x="373" y="153" type="curve" smooth="yes"/>
      <point x="373" y="135"/>
      <point x="360" y="116"/>
      <point x="341" y="107" type="curve"/>
      <point x="176" y="116" type="line"/>
    </contour>
  </outline>
</glyph>
<glyph name="Yusbig-cy" format="2">
  <advance width="924"/>
  <unicode hex="046A"/>
  <outline>
    <contour>
      <point x="197" y="-12" type="curve"/>
      <point x="219" y="0" type="line"/>
      <point x="280" y="97"/>
      <point x="300" y="131"/>
      <point x="320" y="170" type="curve" smooth="yes"/>
      <point x="348" y="221"/>
      <point x="354" y="223"/>
      <point x="462" y="224" type="curve" smooth="yes"/>
      <point x="568" y="225"/>
      <point x="573" y="223"/>
      <point x="604" y="170" type="curve" smooth="yes"/>
      <point x="659" y="75"/>
      <point x="683" y="34"/>
      <point x="705" y="0" type="curve"/>
      <point x="726" y="-12" type="line"/>
      <point x="784" y="-6"/>
      <point x="845" y="4"/>
      <point x="923" y="20" type="curve"/>
      <point x="926" y="41" type="line"/>
      <point x="879" y="102"/>
      <point x="839" y="157"/>
      <point x="796" y="216" type="curve" smooth="yes"/>
      <point x="694" y="358"/>
      <point x="665" y="371"/>
      <point x="462" y="371" type="curve" smooth="yes"/>
      <point x="259" y="371"/>
      <point x="230" y="358"/>
      <point x="128" y="216" type="curve" smooth="yes"/>
      <point x="85" y="157"/>
      <point x="45" y="102"/>
      <point x="-2" y="41" type="curve"/>
      <point x="1" y="20" type="line"/>
      <point x="74" y="3"/>
      <point x="131" y="-6"/>
    </contour>
    <contour>
      <point x="363" y="0" type="line"/>
      <point x="560" y="0" type="line"/>
      <point x="552" y="210" type="line"/>
      <point x="555" y="304" type="line"/>
      <point x="369" y="304" type="line"/>
      <point x="372" y="190" type="line"/>
    </contour>
    <contour>
      <point x="269" y="346" type="line"/>
      <point x="656" y="346" type="line"/>
      <point x="822" y="511" type="line"/>
      <point x="822" y="647" type="line"/>
      <point x="103" y="647" type="line"/>
      <point x="103" y="511" type="line"/>
    </contour>
    <contour>
      <point x="462" y="353" type="line"/>
      <point x="322" y="506" type="line"/>
      <point x="602" y="506" type="line"/>
    </contour>
  </outline>
</glyph>
<glyph name="yusbig-cy" format="2">
  <advance width="739"/>
  <unicode hex="046B"/>
  <outline>
    <contour>
      <point x="161" y="-9" type="curve"/>
      <point x="180" y="1" type="line"/>
      <point x="212" y="55"/>
      <point x="228" y="80"/>
      <point x="244" y="112" type="curve" smooth="yes"/>
      <point x="262" y="150"/>
      <point x="273" y="150"/>
      <point x="360" y="151" type="curve" smooth="yes"/>
      <point x="459" y="152"/>
      <point x="476" y="147"/>
      <point x="496" y="113" type="curve" smooth="yes"/>
      <point x="520" y="71"/>
      <point x="548" y="23"/>
      <point x="559" y="1" type="curve"/>
      <point x="577" y="-9" type="line"/>
      <point x="617" y="-6"/>
      <point x="656" y="0"/>
      <point x="749" y="17" type="curve"/>
      <point x="751" y="35" type="line"/>
      <point x="719" y="76"/>
      <point x="693" y="113"/>
      <point x="662" y="153" type="curve" smooth="yes"/>
      <point x="579" y="261"/>
      <point x="540" y="277"/>
      <point x="360" y="277" type="curve" smooth="yes"/>
      <point x="187" y="277"/>
      <point x="162" y="266"/>
      <point x="78" y="153" type="curve" smooth="yes"/>
      <point x="50" y="116"/>
      <point x="22" y="79"/>
      <point x="-12" y="35" type="curve"/>
      <point x="-9" y="17" type="line"/>
      <point x="56" y="3"/>
      <point x="104" y="-5"/>
    </contour>
    <contour>
      <point x="269" y="0" type="line"/>
      <point x="469" y="0" type="line"/>
      <point x="462" y="155" type="line"/>
      <point x="465" y="220" type="line"/>
      <point x="274" y="220" type="line"/>
      <point x="277" y="137" type="line"/>
    </contour>
    <contour>
      <point x="200" y="259" type="line"/>
      <point x="538" y="259" type="line"/>
      <point x="648" y="355" type="line"/>
      <point x="648" y="472" type="line"/>
      <point x="90" y="472" type="line"/>
      <point x="90" y="355" type="line"/>
    </contour>
    <contour>
      <point x="369" y="265" type="line"/>
      <point x="278" y="352" type="line"/>
      <point x="459" y="352" type="line"/>
    </contour>
  </outline>
</glyph>
<glyph name="izhitsa-cy" format="2">
  <advance width="468"/>
  <unicode hex="0475"/>
  <outline>
    <contour>
      <point x="446" y="477" type="line"/>
      <point x="336" y="477"/>
      <point x="295" y="447"/>
      <point x="275" y="351" type="curve" smooth="yes"/>
      <point x="240" y="179" type="line"/>
      <point x="230" y="179" type="line"/>
      <point x="195" y="381" type="line"/>
      <point x="182" y="476" type="line"/>
      <point x="0" y="469" type="line"/>
      <point x="119" y="0" type="line"/>
      <point x="332" y="0" type="line"/>
      <point x="410" y="277" type="line" smooth="yes"/>
      <point x="421" y="317"/>
      <point x="431" y="327"/>
      <point x="463" y="330" type="curve"/>
      <point x="468" y="343" type="line"/>
    </contour>
  </outline>
</glyph>
<glyph name="zhedescender-cy" format="2">
  <advance width="823"/>
  <unicode hex="0497"/>
  <outline>
    <contour>
      <point x="187" y="-12" type="curve"/>
      <point x="207" y="-2" type="line"/>
      <point x="250" y="79"/>
      <point x="285" y="160"/>
      <point x="312" y="245" type="curve"/>
      <point x="312" y="257" type="line"/>
      <point x="229" y="416" type="line"/>
      <point x="209" y="472" type="line"/>
      <point x="10" y="472" type="line"/>
      <point x="127" y="263" type="line"/>
      <point x="90" y="186"/>
      <point x="48" y="110"/>
      <point x="3" y="32" type="curve"/>
      <point x="4" y="12" type="line"/>
      <point x="66" y="0"/>
      <point x="125" y="-6"/>
    </contour>
    <contour>
      <point x="296" y="0" type="line"/>
      <point x="491" y="0" type="line"/>
      <point x="483" y="210" type="line"/>
      <point x="492" y="472" type="line"/>
      <point x="298" y="472" type="line"/>
      <point x="305" y="190" type="line"/>
    </contour>
    <contour>
      <point x="687" y="-135" type="line"/>
      <point x="812" y="-126" type="line"/>
      <point x="812" y="140" type="line"/>
      <point x="642" y="140" type="line"/>
    </contour>
    <contour>
      <point x="597" y="0" type="line"/>
      <point x="804" y="0" type="line"/>
      <point x="812" y="140" type="line"/>
      <point x="646" y="140" type="line"/>
    </contour>
    <contour>
      <point x="597" y="0" type="line"/>
      <point x="786" y="12" type="line"/>
      <point x="787" y="32" type="line"/>
      <point x="741" y="110"/>
      <point x="698" y="186"/>
      <point x="660" y="263" type="curve"/>
      <point x="780" y="472" type="line"/>
      <point x="581" y="472" type="line"/>
      <point x="560" y="416" type="line"/>
      <point x="475" y="257" type="line"/>
      <point x="475" y="245" type="line"/>
      <point x="501" y="164"/>
      <point x="535" y="87"/>
      <point x="577" y="10" type="curve"/>
    </contour>
  </outline>
</glyph>
<glyph name="Kadescender-cy" format="2">
  <advance width="719"/>
  <unicode hex="049A"/>
  <outline>
    <contour>
      <point x="436" y="341" type="curve"/>
      <point x="626" y="647" type="line"/>
      <point x="414" y="647" type="line"/>
      <point x="380" y="577" type="line"/>
      <point x="236" y="344" type="line"/>
      <point x="236" y="332" type="line"/>
      <point x="295" y="218"/>
      <point x="357" y="99"/>
      <point x="421" y="-10" type="curve"/>
      <point x="443" y="-11" type="line"/>
      <point x="643" y="20" type="line"/>
      <point x="646" y="42" type="line"/>
      <point x="572" y="139"/>
      <point x="501" y="239"/>
    </contour>
    <contour>
      <point x="59" y="0" type="line"/>
      <point x="260" y="0" type="line"/>
      <point x="252" y="210" type="line"/>
      <point x="263" y="647" type="line"/>
      <point x="59" y="647" type="line"/>
      <point x="69" y="190" type="line"/>
    </contour>
    <contour>
      <point x="561" y="-147" type="line"/>
      <point x="706" y="-137" type="line"/>
      <point x="706" y="162" type="line"/>
      <point x="508" y="162" type="line"/>
    </contour>
    <contour>
      <point x="443" y="-11" type="line"/>
      <point x="696" y="0" type="line"/>
      <point x="706" y="162" type="line"/>
      <point x="484" y="162" type="line"/>
    </contour>
  </outline>
</glyph>
<glyph name="kadescender-cy" format="2">
  <advance width="571"/>
  <unicode hex="049B"/>
  <outline>
    <contour>
      <point x="408" y="263" type="curve"/>
      <point x="528" y="472" type="line"/>
      <point x="329" y="472" type="line"/>
      <point x="308" y="416" type="line"/>
      <point x="223" y="257" type="line"/>
      <point x="223" y="245" type="line"/>
      <point x="249" y="164"/>
      <point x="283" y="87"/>
      <point x="325" y="10" type="curve"/>
      <point x="345" y="0" type="line"/>
      <point x="534" y="12" type="line"/>
      <point x="535" y="32" type="line"/>
      <point x="489" y="110"/>
      <point x="446" y="186"/>
    </contour>
    <contour>
      <point x="43" y="0" type="line"/>
      <point x="238" y="0" type="line"/>
      <point x="230" y="210" type="line"/>
      <point x="239" y="474" type="line"/>
      <point x="45" y="461" type="line"/>
      <point x="52" y="190" type="line"/>
    </contour>
    <contour>
      <point x="435" y="-135" type="line"/>
      <point x="560" y="-126" type="line"/>
      <point x="560" y="140" type="line"/>
      <point x="390" y="140" type="line"/>
    </contour>
    <contour>
      <point x="345" y="0" type="line"/>
      <point x="552" y="0" type="line"/>
      <point x="560" y="140" type="line"/>
      <point x="394" y="140" type="line"/>
    </contour>
  </outline>
</glyph>
<glyph name="Kaverticalstroke-cy" format="2">
  <advance width="759"/>
  <unicode hex="049C"/>
  <anchor x="286" y="276" name="_center"/>
  <outline>
    <contour>
      <point x="564" y="-12" type="line"/>
      <point x="622" y="-6"/>
      <point x="691" y="5"/>
      <point x="749" y="20" type="curve"/>
      <point x="752" y="42" type="line"/>
      <point x="688" y="139"/>
      <point x="626" y="239"/>
      <point x="569" y="341" type="curve"/>
      <point x="736" y="647" type="line"/>
      <point x="539" y="647" type="line"/>
      <point x="509" y="577" type="line"/>
      <point x="384" y="344" type="line"/>
      <point x="384" y="332" type="line"/>
      <point x="436" y="222"/>
      <point x="490" y="109"/>
      <point x="545" y="0" type="curve"/>
    </contour>
    <contour>
      <point x="59" y="0" type="line"/>
      <point x="260" y="0" type="line"/>
      <point x="252" y="210" type="line"/>
      <point x="263" y="647" type="line"/>
      <point x="59" y="647" type="line"/>
      <point x="69" y="190" type="line"/>
    </contour>
    <contour>
      <point x="175" y="256" type="line"/>
      <point x="496" y="256" type="line"/>
      <point x="496" y="408" type="line"/>
      <point x="175" y="408" type="line"/>
    </contour>
    <contour>
      <point x="307" y="118" type="line"/>
      <point x="398" y="123" type="line"/>
      <point x="398" y="544" type="line"/>
      <point x="388" y="552" type="line"/>
      <point x="297" y="546" type="line"/>
      <point x="297" y="126" type="line"/>
    </contour>
  </outline>
</glyph>
<glyph name="kaverticalstroke-cy" format="2">
  <advance width="604"/>
  <unicode hex="049D"/>
  <outline>
    <contour>
      <point x="428" y="-12" type="line"/>
      <point x="485" y="-6"/>
      <point x="539" y="0"/>
      <point x="595" y="11" type="curve"/>
      <point x="596" y="30" type="line"/>
      <point x="559" y="108"/>
      <point x="524" y="185"/>
      <point x="493" y="262" type="curve"/>
      <point x="590" y="472" type="line"/>
      <point x="408" y="472" type="line"/>
      <point x="391" y="417" type="line"/>
      <point x="323" y="257" type="line"/>
      <point x="323" y="245" type="line"/>
      <point x="345" y="160"/>
      <point x="374" y="79"/>
      <point x="409" y="-2" type="curve"/>
    </contour>
    <contour>
      <point x="43" y="0" type="line"/>
      <point x="227" y="0" type="line"/>
      <point x="219" y="210" type="line"/>
      <point x="228" y="474" type="line"/>
      <point x="45" y="461" type="line"/>
      <point x="52" y="191" type="line"/>
    </contour>
    <contour>
      <point x="134" y="178" type="line"/>
      <point x="381" y="178" type="line"/>
      <point x="381" y="302" type="line"/>
      <point x="134" y="302" type="line"/>
    </contour>
    <contour>
      <point x="257" y="80" type="line"/>
      <point x="331" y="84" type="line"/>
      <point x="331" y="400" type="line"/>
      <point x="322" y="406" type="line"/>
      <point x="249" y="402" type="line"/>
      <point x="249" y="87" type="line"/>
    </contour>
  </outline>
</glyph>
<glyph name="Kabashkir-cy" format="2">
  <advance width="751"/>
  <unicode hex="04A0"/>
  <outline>
    <contour>
      <point x="727" y="647" type="line"/>
      <point x="515" y="647" type="line"/>
      <point x="481" y="577" type="line"/>
      <point x="337" y="344" type="line"/>
      <point x="337" y="332" type="line"/>
      <point x="396" y="218"/>
      <point x="458" y="109"/>
      <point x="522" y="0" type="curve"/>
      <point x="544" y="-12" type="line"/>
      <point x="611" y="-6"/>
      <point x="677" y="5"/>
      <point x="744" y="20" type="curve"/>
      <point x="747" y="42" type="line"/>
      <point x="673" y="139"/>
      <point x="602" y="239"/>
      <point x="537" y="341" type="curve"/>
    </contour>
    <contour>
      <point x="364" y="647" type="line"/>
      <point x="160" y="647" type="line"/>
      <point x="170" y="190" type="line"/>
      <point x="160" y="0" type="line"/>
      <point x="361" y="0" type="line"/>
      <point x="353" y="210" type="line"/>
    </contour>
    <contour>
      <point x="262" y="493" type="line"/>
      <point x="262" y="647" type="line"/>
      <point x="19" y="647" type="line"/>
      <point x="8" y="501" type="line"/>
      <point x="20" y="487" type="line"/>
      <point x="153" y="493" type="line"/>
    </contour>
  </outline>
</glyph>
<glyph name="Enghe-cy" format="2">
  <advance width="882"/>
  <unicode hex="04A4"/>
  <outline>
    <contour>
      <point x="445" y="0" type="line"/>
      <point x="646" y="0" type="line"/>
      <point x="638" y="210" type="line"/>
      <point x="649" y="647" type="line"/>
      <point x="445" y="647" type="line"/>
      <point x="455" y="190" type="line"/>
    </contour>
    <contour>
      <point x="59" y="0" type="line"/>
      <point x="260" y="0" type="line"/>
      <point x="252" y="210" type="line"/>
      <point x="263" y="647" type="line"/>
      <point x="59" y="647" type="line"/>
      <point x="69" y="190" type="line"/>
    </contour>
    <contour>
      <point x="232" y="238" type="line"/>
      <point x="346" y="242" type="line"/>
      <point x="467" y="240" type="line"/>
      <point x="467" y="402" type="line"/>
      <point x="358" y="400" type="line"/>
      <point x="232" y="403" type="line"/>
    </contour>
    <contour>
      <point x="550" y="647" type="line"/>
      <point x="550" y="493" type="line"/>
      <point x="730" y="493" type="line"/>
      <point x="862" y="487" type="line"/>
      <point x="873" y="633" type="line"/>
      <point x="862" y="647" type="line"/>
    </contour>
  </outline>
</glyph>
<glyph name="enghe-cy" format="2">
  <advance width="682"/>
  <unicode hex="04A5"/>
  <outline>
    <contour>
      <point x="207" y="305" type="line"/>
      <point x="207" y="159" type="line"/>
      <point x="281" y="163" type="line"/>
      <point x="359" y="161" type="line"/>
      <point x="359" y="304" type="line"/>
      <point x="291" y="303" type="line"/>
    </contour>
    <contour>
      <point x="44" y="0" type="line"/>
      <point x="239" y="0" type="line"/>
      <point x="231" y="210" type="line"/>
      <point x="240" y="472" type="line"/>
      <point x="46" y="472" type="line"/>
      <point x="53" y="190" type="line"/>
    </contour>
    <contour>
      <point x="330" y="0" type="line"/>
      <point x="525" y="0" type="line"/>
      <point x="517" y="210" type="line"/>
      <point x="526" y="472" type="line"/>
      <point x="332" y="472" type="line"/>
      <point x="339" y="190" type="line"/>
    </contour>
    <contour>
      <point x="672" y="334" type="line"/>
      <point x="682" y="461" type="line"/>
      <point x="674" y="472" type="line"/>
      <point x="476" y="472" type="line"/>
      <point x="477" y="349" type="line"/>
      <point x="476" y="340" type="line"/>
      <point x="564" y="340" type="line"/>
    </contour>
  </outline>
</glyph>
<glyph name="ustrait-cy" format="2">
  <advance width="464"/>
  <unicode hex="04AF"/>
  <anchor x="220" y="-12" name="center"/>
  <outline>
    <contour>
      <point x="138" y="-32" type="line"/>
      <point x="304" y="-32" type="line"/>
      <point x="469" y="472" type="line"/>
      <point x="301" y="472" type="line"/>
      <point x="283" y="376" type="line"/>
      <point x="238" y="199" type="line"/>
      <point x="228" y="199" type="line"/>
      <point x="193" y="387" type="line"/>
      <point x="180" y="476" type="line"/>
      <point x="-2" y="469" type="line"/>
    </contour>
    <contour>
      <point x="125" y="-185" type="line"/>
      <point x="319" y="-185" type="line"/>
      <point x="314" y="81" type="line"/>
      <point x="131" y="81" type="line"/>
    </contour>
  </outline>
</glyph>
<glyph name="hadescender-cy" format="2">
  <advance width="532"/>
  <unicode hex="04B3"/>
  <anchor x="289" y="-8" name="bottomright"/>
  <outline>
    <contour>
      <point x="213" y="475" type="line"/>
      <point x="4" y="468" type="line"/>
      <point x="129" y="234" type="line"/>
      <point x="6" y="0" type="line"/>
      <point x="174" y="0" type="line"/>
      <point x="198" y="55" type="line"/>
      <point x="236" y="128" type="line"/>
      <point x="264" y="64" type="line"/>
      <point x="286" y="0" type="line"/>
      <point x="491" y="13" type="line"/>
      <point x="369" y="238" type="line"/>
      <point x="494" y="471" type="line"/>
      <point x="327" y="471" type="line"/>
      <point x="300" y="416" type="line"/>
      <point x="264" y="344" type="line"/>
      <point x="235" y="407" type="line"/>
    </contour>
    <contour>
      <point x="394" y="-135" type="line"/>
      <point x="519" y="-126" type="line"/>
      <point x="519" y="140" type="line"/>
      <point x="349" y="140" type="line"/>
    </contour>
    <contour>
      <point x="286" y="0" type="line"/>
      <point x="511" y="0" type="line"/>
      <point x="519" y="140" type="line"/>
      <point x="329" y="140" type="line"/>
    </contour>
  </outline>
</glyph>
<glyph name="Cheverticalstroke-cy" format="2">
  <advance width="684"/>
  <unicode hex="04B8"/>
  <outline>
    <contour>
      <point x="626" y="647" type="line"/>
      <point x="423" y="647" type="line"/>
      <point x="432" y="190" type="line"/>
      <point x="423" y="0" type="line"/>
      <point x="623" y="0" type="line"/>
      <point x="615" y="210" type="line"/>
    </contour>
    <contour>
      <point x="445" y="381" type="line"/>
      <point x="396" y="357"/>
      <point x="354" y="346"/>
      <point x="318" y="346" type="curve" smooth="yes"/>
      <point x="260" y="346"/>
      <point x="230" y="377"/>
      <point x="231" y="436" type="curve" smooth="yes"/>
      <point x="234" y="647" type="line"/>
      <point x="30" y="647" type="line"/>
      <point x="36" y="384" type="line" smooth="yes"/>
      <point x="39" y="245"/>
      <point x="117" y="178"/>
      <point x="277" y="178" type="curve"/>
      <point x="332" y="195"/>
      <point x="381" y="220"/>
      <point x="420" y="252" type="curve"/>
      <point x="449" y="252" type="line"/>
    </contour>
    <contour>
      <point x="292" y="93" type="line"/>
      <point x="382" y="98" type="line"/>
      <point x="382" y="509" type="line"/>
      <point x="372" y="517" type="line"/>
      <point x="281" y="511" type="line"/>
      <point x="281" y="101" type="line"/>
    </contour>
  </outline>
</glyph>
<glyph name="figuredash" format="2">
  <advance width="475"/>
  <unicode hex="2012"/>
  <outline>
    <contour>
      <point x="478" y="325" type="line"/>
      <point x="-6" y="325" type="line"/>
      <point x="-15" y="208" type="line"/>
      <point x="-3" y="195" type="line"/>
      <point x="481" y="195" type="line"/>
      <point x="490" y="312" type="line"/>
    </contour>
  </outline>
</glyph>
<glyph name="endash" format="2">
  <advance width="443"/>
  <unicode hex="2013"/>
  <outline>
    <contour>
      <point x="450" y="325" type="line"/>
      <point x="-10" y="325" type="line"/>
      <point x="-19" y="208" type="line"/>
      <point x="-7" y="195" type="line"/>
      <point x="453" y="195" type="line"/>
      <point x="462" y="312" type="line"/>
    </contour>
  </outline>
</glyph>
<glyph name="euro" format="2">
  <advance width="455"/>
  <unicode hex="20AC"/>
  <outline>
    <contour>
      <point x="324" y="519" type="curve" smooth="yes"/>
      <point x="178" y="519"/>
      <point x="86" y="444"/>
      <point x="64" y="312" type="curve"/>
      <point x="240" y="312" type="line"/>
      <point x="247" y="363"/>
      <point x="273" y="383"/>
      <point x="317" y="383" type="curve" smooth="yes"/>
      <point x="346" y="383"/>
      <point x="384" y="374"/>
      <point x="411" y="360" type="curve"/>
      <point x="421" y="367" type="line"/>
      <point x="449" y="500" type="line"/>
      <point x="412" y="512"/>
      <point x="370" y="519"/>
    </contour>
    <contour>
      <point x="240" y="312" type="curve"/>
      <point x="64" y="312" type="line"/>
      <point x="60" y="290"/>
      <point x="58" y="267"/>
      <point x="58" y="243" type="curve" smooth="yes"/>
      <point x="58" y="227"/>
      <point x="59" y="211"/>
      <point x="61" y="197" type="curve"/>
      <point x="242" y="197" type="line"/>
      <point x="238" y="215"/>
      <point x="236" y="236"/>
      <point x="236" y="262" type="curve" smooth="yes"/>
      <point x="236" y="281"/>
      <point x="237" y="297"/>
    </contour>
    <contour>
      <point x="242" y="197" type="curve"/>
      <point x="61" y="197" type="line"/>
      <point x="76" y="63"/>
      <point x="160" y="-9"/>
      <point x="316" y="-9" type="curve" smooth="yes"/>
      <point x="349" y="-9"/>
      <point x="385" y="-7"/>
      <point x="421" y="3" type="curve"/>
      <point x="434" y="135" type="line"/>
      <point x="421" y="143" type="line"/>
      <point x="394" y="134"/>
      <point x="352" y="127"/>
      <point x="326" y="127" type="curve" smooth="yes"/>
      <point x="281" y="127"/>
      <point x="253" y="148"/>
    </contour>
    <contour>
      <point x="356" y="355" type="line"/>
      <point x="4" y="355" type="line"/>
      <point x="-1" y="277" type="line"/>
      <point x="5" y="268" type="line"/>
      <point x="358" y="268" type="line"/>
      <point x="363" y="348" type="line"/>
    </contour>
    <contour>
      <point x="356" y="242" type="line"/>
      <point x="4" y="242" type="line"/>
      <point x="-1" y="163" type="line"/>
      <point x="5" y="155" type="line"/>
      <point x="358" y="155" type="line"/>
      <point x="363" y="234" type="line" smooth="yes"/>
    </contour>
  </outline>
</glyph>
<glyph name="peso" format="2">
  <advance width="630"/>
  <unicode hex="20B1"/>
  <outline>
    <contour>
      <point x="366" y="513" type="curve"/>
      <point x="92" y="513" type="line"/>
      <point x="202" y="377" type="line"/>
      <point x="299" y="386" type="line"/>
      <point x="345" y="383"/>
      <point x="365" y="368"/>
      <point x="365" y="328" type="curve" smooth="yes"/>
      <point x="365" y="297"/>
      <point x="356" y="281"/>
      <point x="332" y="263" type="curve"/>
      <point x="157" y="274" type="line"/>
      <point x="157" y="135" type="line"/>
      <point x="309" y="135" type="line"/>
      <point x="458" y="135"/>
      <point x="560" y="221"/>
      <point x="560" y="346" type="curve" smooth="yes"/>
      <point x="560" y="453"/>
      <point x="490" y="513"/>
    </contour>
    <contour>
      <point x="281" y="513" type="line"/>
      <point x="92" y="513" type="line"/>
      <point x="101" y="149" type="line"/>
      <point x="92" y="0" type="line"/>
      <point x="278" y="0" type="line"/>
      <point x="270" y="168" type="line"/>
    </contour>
    <contour>
      <point x="0" y="319" type="line"/>
      <point x="630" y="319" type="line"/>
      <point x="635" y="394" type="line"/>
      <point x="630" y="403" type="line"/>
      <point x="0" y="403" type="line"/>
      <point x="-6" y="328" type="line"/>
    </contour>
    <contour>
      <point x="0" y="242" type="line"/>
      <point x="630" y="242" type="line"/>
      <point x="635" y="317" type="line"/>
      <point x="630" y="326" type="line"/>
      <point x="0" y="326" type="line"/>
      <point x="-6" y="251" type="line"/>
    </contour>
  </outline>
</glyph>
<glyph name="cedi" format="2">
  <advance width="405"/>
  <unicode hex="20B5"/>
  <anchor x="244" y="0" name="bottom"/>
  <anchor x="249" y="513" name="top"/>
  <outline>
    <contour>
      <point x="317" y="431" type="line"/>
      <point x="206" y="431" type="line"/>
      <point x="182" y="82" type="line"/>
      <point x="294" y="82" type="line"/>
    </contour>
    <contour>
      <point x="294" y="82" type="line"/>
      <point x="182" y="82" type="line"/>
      <point x="170" y="-126" type="line"/>
      <point x="183" y="-140" type="line"/>
      <point x="280" y="-140" type="line"/>
    </contour>
    <contour>
      <point x="313" y="646" type="line"/>
      <point x="218" y="646" type="line"/>
      <point x="206" y="431" type="line"/>
      <point x="317" y="431" type="line"/>
      <point x="329" y="632" type="line"/>
    </contour>
    <contour>
      <point x="276" y="522" type="curve" smooth="yes"/>
      <point x="92" y="522"/>
      <point x="-12" y="422"/>
      <point x="-12" y="251" type="curve" smooth="yes"/>
      <point x="-12" y="82"/>
      <point x="79" y="-10"/>
      <point x="267" y="-10" type="curve" smooth="yes"/>
      <point x="302" y="-10"/>
      <point x="340" y="-9"/>
      <point x="379" y="-2" type="curve"/>
      <point x="394" y="144" type="line"/>
      <point x="379" y="153" type="line"/>
      <point x="351" y="147"/>
      <point x="309" y="143"/>
      <point x="282" y="143" type="curve" smooth="yes"/>
      <point x="214" y="143"/>
      <point x="184" y="181"/>
      <point x="184" y="273" type="curve" smooth="yes"/>
      <point x="184" y="348"/>
      <point x="209" y="372"/>
      <point x="269" y="372" type="curve" smooth="yes"/>
      <point x="298" y="372"/>
      <point x="340" y="364"/>
      <point x="368" y="351" type="curve"/>
      <point x="380" y="359" type="line"/>
      <point x="411" y="506" type="line"/>
      <point x="371" y="516"/>
      <point x="326" y="522"/>
    </contour>
  </outline>
</glyph>
<glyph name="liraTurkish" format="2">
  <advance width="497"/>
  <unicode hex="20BA"/>
  <outline>
    <contour>
      <point x="81" y="0" type="line"/>
      <point x="382" y="0"/>
      <point x="455" y="32"/>
      <point x="521" y="192" type="curve"/>
      <point x="515" y="208" type="line"/>
      <point x="373" y="227" type="line"/>
      <point x="349" y="157"/>
      <point x="313" y="124"/>
      <point x="239" y="119" type="curve"/>
    </contour>
    <contour>
      <point x="35" y="136" type="line"/>
      <point x="168" y="186" type="line"/>
      <point x="166" y="169" type="line"/>
      <point x="365" y="245" type="line"/>
      <point x="345" y="325" type="line"/>
      <point x="339" y="329" type="line"/>
      <point x="173" y="266" type="line"/>
      <point x="175" y="282" type="line"/>
      <point x="8" y="221" type="line"/>
      <point x="27" y="139" type="line"/>
    </contour>
    <contour>
      <point x="81" y="0" type="line"/>
      <point x="259" y="59" type="line"/>
      <point x="259" y="168" type="line"/>
      <point x="270" y="513" type="line"/>
      <point x="81" y="513" type="line"/>
      <point x="90" y="149" type="line"/>
    </contour>
    <contour>
      <point x="35" y="286" type="line"/>
      <point x="168" y="336" type="line"/>
      <point x="166" y="319" type="line"/>
      <point x="365" y="395" type="line"/>
      <point x="345" y="475" type="line"/>
      <point x="339" y="479" type="line"/>
      <point x="173" y="416" type="line"/>
      <point x="175" y="432" type="line"/>
      <point x="8" y="371" type="line"/>
      <point x="27" y="289" type="line"/>
    </contour>
  </outline>
</glyph>
<glyph name="manat" format="2">
  <advance width="657"/>
  <unicode hex="20BC"/>
  <outline>
    <contour>
      <point x="26" y="-9" type="curve"/>
      <point x="215" y="10" type="line"/>
      <point x="215" y="277"/>
      <point x="248" y="356"/>
      <point x="330" y="356" type="curve" smooth="yes"/>
      <point x="412" y="356"/>
      <point x="442" y="272"/>
      <point x="442" y="-9" type="curve"/>
      <point x="631" y="10" type="line"/>
      <point x="631" y="405"/>
      <point x="565" y="513"/>
      <point x="335" y="513" type="curve" smooth="yes"/>
      <point x="97" y="513"/>
      <point x="26" y="393"/>
    </contour>
    <contour>
      <point x="295" y="56" type="line"/>
      <point x="364" y="65" type="line"/>
      <point x="368" y="585" type="line"/>
      <point x="360" y="593" type="line"/>
      <point x="290" y="587" type="line"/>
      <point x="289" y="64" type="line"/>
    </contour>
  </outline>
</glyph>
<glyph name="ruble" format="2">
  <advance width="496"/>
  <unicode hex="20BD"/>
  <anchor x="270" y="0" name="bottom"/>
  <anchor x="270" y="503" name="top"/>
  <outline>
    <contour>
      <point x="325" y="513" type="curve"/>
      <point x="56" y="513" type="line"/>
      <point x="159" y="390" type="line"/>
      <point x="262" y="397" type="line"/>
      <point x="305" y="396"/>
      <point x="324" y="382"/>
      <point x="324" y="347" type="curve" smooth="yes"/>
      <point x="324" y="318"/>
      <point x="315" y="304"/>
      <point x="293" y="287" type="curve"/>
      <point x="116" y="297" type="line"/>
      <point x="116" y="172" type="line"/>
      <point x="271" y="171" type="line"/>
      <point x="409" y="171"/>
      <point x="504" y="250"/>
      <point x="504" y="363" type="curve" smooth="yes"/>
      <point x="504" y="459"/>
      <point x="439" y="513"/>
    </contour>
    <contour>
      <point x="231" y="513" type="line"/>
      <point x="56" y="513" type="line"/>
      <point x="65" y="175" type="line"/>
      <point x="58" y="0" type="line"/>
      <point x="231" y="0" type="line"/>
      <point x="221" y="192" type="line"/>
    </contour>
    <contour>
      <point x="320" y="128" type="line"/>
      <point x="5" y="128" type="line"/>
      <point x="0" y="68" type="line"/>
      <point x="6" y="60" type="line"/>
      <point x="322" y="60" type="line"/>
      <point x="327" y="119" type="line"/>
    </contour>
  </outline>
</glyph>
<glyph name="leftRightArrow" format="2">
  <advance width="786"/>
  <unicode hex="2194"/>
  <outline>
    <contour>
      <point x="332" y="39" type="line"/>
      <point x="332" y="63" type="line"/>
      <point x="166" y="241" type="line"/>
      <point x="332" y="419" type="line"/>
      <point x="332" y="443" type="line"/>
      <point x="226" y="465" type="line"/>
      <point x="25" y="255" type="line"/>
      <point x="25" y="226" type="line"/>
      <point x="226" y="17" type="line"/>
    </contour>
    <contour>
      <point x="761" y="227" type="line"/>
      <point x="761" y="256" type="line"/>
      <point x="560" y="465" type="line"/>
      <point x="454" y="443" type="line"/>
      <point x="454" y="419" type="line"/>
      <point x="620" y="241" type="line"/>
      <point x="454" y="63" type="line"/>
      <point x="454" y="39" type="line"/>
      <point x="560" y="17" type="line"/>
    </contour>
    <contour>
      <point x="653" y="181" type="line"/>
      <point x="653" y="301" type="line"/>
      <point x="133" y="301" type="line"/>
      <point x="133" y="181" type="line"/>
    </contour>
  </outline>
</glyph>
<glyph name="emptyset" format="2">
  <advance width="634"/>
  <unicode hex="2205"/>
  <outline>
    <contour>
      <point x="303" y="-12" type="curve" smooth="yes"/>
      <point x="500" y="-12"/>
      <point x="620" y="115"/>
      <point x="620" y="323" type="curve" smooth="yes"/>
      <point x="620" y="532"/>
      <point x="511" y="659"/>
      <point x="332" y="659" type="curve" smooth="yes"/>
      <point x="135" y="659"/>
      <point x="15" y="532"/>
      <point x="15" y="323" type="curve" smooth="yes"/>
      <point x="15" y="115"/>
      <point x="124" y="-12"/>
    </contour>
    <contour>
      <point x="173" y="-135" type="line"/>
      <point x="568" y="687" type="line"/>
      <point x="556" y="706" type="line"/>
      <point x="456" y="752" type="line"/>
      <point x="61" y="-71" type="line"/>
      <point x="69" y="-88" type="line"/>
    </contour>
    <contour>
      <point x="322" y="118" type="curve" smooth="yes"/>
      <point x="226" y="118"/>
      <point x="167" y="196"/>
      <point x="167" y="323" type="curve" smooth="yes"/>
      <point x="167" y="449"/>
      <point x="222" y="526"/>
      <point x="311" y="526" type="curve" smooth="yes"/>
      <point x="409" y="526"/>
      <point x="468" y="449"/>
      <point x="468" y="323" type="curve" smooth="yes"/>
      <point x="468" y="196"/>
      <point x="413" y="118"/>
    </contour>
  </outline>
</glyph>
<glyph name="radical" format="2">
  <advance width="494"/>
  <unicode hex="221A"/>
  <outline>
    <contour>
      <point x="557" y="710" type="line"/>
      <point x="428" y="710" type="line"/>
      <point x="414" y="698" type="line"/>
      <point x="268" y="165" type="line"/>
      <point x="257" y="165" type="line"/>
      <point x="199" y="465" type="line"/>
      <point x="193" y="472" type="line"/>
      <point x="-32" y="472" type="line"/>
      <point x="-36" y="347" type="line"/>
      <point x="-31" y="340" type="line"/>
      <point x="64" y="340" type="line"/>
      <point x="139" y="0" type="line"/>
      <point x="349" y="0" type="line"/>
    </contour>
  </outline>
</glyph>
<glyph name="notequal" format="2">
  <advance width="480"/>
  <unicode hex="2260"/>
  <outline>
    <contour>
      <point x="358" y="563" type="line"/>
      <point x="240" y="563" type="line"/>
      <point x="100" y="-39" type="line"/>
      <point x="109" y="-53" type="line"/>
      <point x="230" y="-53" type="line"/>
      <point x="370" y="550" type="line"/>
    </contour>
    <contour>
      <point x="454" y="426" type="line"/>
      <point x="24" y="426" type="line"/>
      <point x="15" y="309" type="line"/>
      <point x="27" y="296" type="line"/>
      <point x="457" y="296" type="line"/>
      <point x="466" y="413" type="line"/>
    </contour>
    <contour>
      <point x="454" y="213" type="line"/>
      <point x="24" y="213" type="line"/>
      <point x="15" y="96" type="line"/>
      <point x="27" y="83" type="line"/>
      <point x="457" y="83" type="line"/>
      <point x="466" y="200" type="line"/>
    </contour>
  </outline>
</glyph>
<glyph name="lozenge" format="2">
  <advance width="532"/>
  <unicode hex="25CA"/>
  <outline>
    <contour>
      <point x="340" y="651" type="line"/>
      <point x="188" y="644" type="line"/>
      <point x="35" y="301" type="line"/>
      <point x="35" y="252" type="line"/>
      <point x="187" y="-86" type="line"/>
      <point x="202" y="-93" type="line"/>
      <point x="353" y="-86" type="line"/>
      <point x="506" y="255" type="line"/>
      <point x="507" y="306" type="line"/>
      <point x="353" y="644" type="line"/>
    </contour>
    <contour>
      <point x="271" y="519" type="line"/>
      <point x="381" y="280" type="line"/>
      <point x="277" y="39" type="line"/>
      <point x="269" y="39" type="line"/>
      <point x="160" y="272" type="line"/>
      <point x="263" y="519" type="line"/>
    </contour>
  </outline>
</glyph>
<glyph name="rightanglebracket-math" format="2">
  <advance width="322"/>
  <unicode hex="27E9"/>
  <outline>
    <contour>
      <point x="135" y="-132" type="line"/>
      <point x="149" y="-127" type="line"/>
      <point x="316" y="227" type="line"/>
      <point x="316" y="301" type="line"/>
      <point x="149" y="655" type="line"/>
      <point x="135" y="660" type="line"/>
      <point x="12" y="620" type="line"/>
      <point x="138" y="265" type="line"/>
      <point x="12" y="-92" type="line"/>
    </contour>
  </outline>
</glyph>
<glyph name="Saltillo" format="2">
  <advance width="177"/>
  <unicode hex="A78B"/>
  <outline>
    <contour>
      <point x="96" y="153" type="move"/>
    </contour>
    <contour>
      <point x="167" y="618.358" type="line"/>
      <point x="16" y="606.901" type="line"/>
      <point x="26" y="265.737" type="line"/>
      <point x="41" y="251.734" type="line"/>
      <point x="129" y="269.556" type="line"/>
      <point x="177" y="603.082" type="line"/>
    </contour>
  </outline>
</glyph>
<glyph name="C.ss01" format="2">
  <advance width="542"/>
  <anchor x="326" y="0" name="bottom"/>
  <anchor x="324" y="647" name="top"/>
  <outline>
    <contour>
      <point x="348" y="0" type="curve" smooth="yes"/>
      <point x="392" y="0"/>
      <point x="440" y="4"/>
      <point x="487" y="19" type="curve"/>
      <point x="503" y="177" type="line"/>
      <point x="487" y="187" type="line"/>
      <point x="451" y="174"/>
      <point x="400" y="166"/>
      <point x="364" y="166" type="curve" smooth="yes"/>
      <point x="276" y="166"/>
      <point x="236" y="220"/>
      <point x="236" y="341" type="curve" smooth="yes"/>
      <point x="236" y="444"/>
      <point x="271" y="484"/>
      <point x="351" y="484" type="curve" smooth="yes"/>
      <point x="389" y="484"/>
      <point x="439" y="472"/>
      <point x="474" y="453" type="curve"/>
      <point x="487" y="461" type="line"/>
      <point x="521" y="620" type="line"/>
      <point x="473" y="637"/>
      <point x="419" y="647"/>
      <point x="359" y="647" type="curve" smooth="yes"/>
      <point x="145" y="647"/>
      <point x="24" y="526"/>
      <point x="24" y="318" type="curve" smooth="yes"/>
      <point x="24" y="112"/>
      <point x="131" y="0"/>
    </contour>
    <contour>
      <point x="-40" y="0" type="line"/>
      <point x="582" y="0" type="line"/>
      <point x="582" y="65" type="line"/>
      <point x="-40" y="65" type="line"/>
    </contour>
    <contour>
      <point x="-40" y="582" type="line"/>
      <point x="582" y="582" type="line"/>
      <point x="582" y="647" type="line"/>
      <point x="-40" y="647" type="line"/>
    </contour>
  </outline>
</glyph>
<glyph name="Chi.sups" format="2">
  <advance width="466"/>
  <outline>
    <contour>
      <point x="457" y="773" type="line"/>
      <point x="310" y="773" type="line"/>
      <point x="289" y="724" type="line"/>
      <point x="240" y="645" type="line"/>
      <point x="197" y="716" type="line"/>
      <point x="172" y="773" type="line"/>
      <point x="3" y="773" type="line"/>
      <point x="146" y="538" type="line"/>
      <point x="7" y="320" type="line"/>
      <point x="150" y="320" type="line"/>
      <point x="173" y="368" type="line"/>
      <point x="228" y="448" type="line"/>
      <point x="272" y="375" type="line"/>
      <point x="297" y="320" type="line"/>
      <point x="465" y="320" type="line"/>
      <point x="324" y="559" type="line"/>
    </contour>
  </outline>
</glyph>
<glyph name="Delta.sups" format="2">
  <advance width="456"/>
  <outline>
    <contour>
      <point x="27" y="320" type="line"/>
      <point x="432" y="320" type="line"/>
      <point x="432" y="410" type="line"/>
      <point x="319" y="773" type="line"/>
      <point x="150" y="773" type="line"/>
      <point x="27" y="410" type="line"/>
    </contour>
    <contour>
      <point x="158" y="428" type="line"/>
      <point x="227" y="647" type="line"/>
      <point x="236" y="647" type="line"/>
      <point x="295" y="428" type="line"/>
    </contour>
  </outline>
</glyph>
<glyph name="Gamma.sups" format="2">
  <advance width="366"/>
  <anchor x="160" y="529" name="center"/>
  <outline>
    <contour>
      <point x="198" y="773" type="line"/>
      <point x="55" y="773" type="line"/>
      <point x="62" y="453" type="line"/>
      <point x="55" y="320" type="line"/>
      <point x="196" y="320" type="line"/>
      <point x="191" y="467" type="line"/>
    </contour>
    <contour>
      <point x="354" y="773" type="line"/>
      <point x="160" y="773" type="line"/>
      <point x="160" y="672" type="line"/>
      <point x="160" y="665" type="line"/>
      <point x="249" y="665" type="line"/>
      <point x="353" y="660" type="line"/>
      <point x="361" y="763" type="line"/>
    </contour>
  </outline>
</glyph>
<glyph name="Iota.sups" format="2">
  <advance width="243"/>
  <anchor x="190" y="320" name="ogonek"/>
  <anchor x="122" y="773" name="top"/>
  <anchor x="-37" y="773" name="topleft"/>
  <outline>
    <contour>
      <point x="192" y="773" type="line"/>
      <point x="49" y="773" type="line"/>
      <point x="56" y="453" type="line"/>
      <point x="49" y="320" type="line"/>
      <point x="190" y="320" type="line"/>
      <point x="185" y="467" type="line"/>
    </contour>
  </outline>
</glyph>
<glyph name="Lambda.sups" format="2">
  <advance width="457"/>
  <outline>
    <contour>
      <point x="320" y="773" type="line"/>
      <point x="145" y="773" type="line"/>
      <point x="7" y="320" type="line"/>
      <point x="149" y="320" type="line"/>
      <point x="163" y="405" type="line"/>
      <point x="225" y="644" type="line"/>
      <point x="234" y="644" type="line"/>
      <point x="285" y="397" type="line"/>
      <point x="298" y="320" type="line"/>
      <point x="444" y="320" type="line"/>
    </contour>
  </outline>
</glyph>
<glyph name="M.ss01" format="2">
  <advance width="819"/>
  <anchor x="410" y="0" name="bottom"/>
  <anchor x="410" y="647" name="top"/>
  <outline>
    <contour>
      <point x="33" y="0" type="line"/>
      <point x="200" y="0" type="line"/>
      <point x="210" y="215" type="line"/>
      <point x="224" y="359" type="line"/>
      <point x="236" y="359" type="line"/>
      <point x="303" y="126" type="line"/>
      <point x="496" y="126" type="line"/>
      <point x="577" y="359" type="line"/>
      <point x="589" y="359" type="line"/>
      <point x="600" y="196" type="line"/>
      <point x="605" y="0" type="line"/>
      <point x="781" y="0" type="line"/>
      <point x="729" y="647" type="line"/>
      <point x="501" y="647" type="line"/>
      <point x="478" y="548" type="line"/>
      <point x="415" y="320" type="line"/>
      <point x="403" y="320" type="line"/>
      <point x="346" y="555" type="line"/>
      <point x="327" y="647" type="line"/>
      <point x="96" y="647" type="line"/>
    </contour>
    <contour>
      <point x="-40" y="0" type="line"/>
      <point x="859" y="0" type="line"/>
      <point x="859" y="65" type="line"/>
      <point x="-40" y="65" type="line"/>
    </contour>
    <contour>
      <point x="-40" y="582" type="line"/>
      <point x="859" y="582" type="line"/>
      <point x="859" y="647" type="line"/>
      <point x="-40" y="647" type="line"/>
    </contour>
  </outline>
</glyph>
<glyph name="Mu.sups" format="2">
  <advance width="590"/>
  <anchor x="295" y="320" name="bottom"/>
  <anchor x="295" y="773" name="top"/>
  <outline>
    <contour>
      <point x="524" y="773" type="line"/>
      <point x="363" y="773" type="line"/>
      <point x="346" y="704" type="line"/>
      <point x="299" y="545" type="line"/>
      <point x="290" y="545" type="line"/>
      <point x="247" y="709" type="line"/>
      <point x="233" y="773" type="line"/>
      <point x="70" y="773" type="line"/>
      <point x="25" y="320" type="line"/>
      <point x="142" y="320" type="line"/>
      <point x="150" y="471" type="line"/>
      <point x="160" y="571" type="line"/>
      <point x="169" y="571" type="line"/>
      <point x="233" y="363" type="line"/>
      <point x="340" y="363" type="line"/>
      <point x="417" y="571" type="line"/>
      <point x="425" y="571" type="line"/>
      <point x="434" y="457" type="line"/>
      <point x="438" y="320" type="line"/>
      <point x="561" y="320" type="line"/>
    </contour>
  </outline>
</glyph>
<glyph name="Oslash.BRACKET.100" format="2">
  <advance width="653"/>
  <anchor x="327" y="0" name="bottom"/>
  <anchor x="327" y="324" name="center"/>
  <anchor x="499" y="46" name="ogonek"/>
  <anchor x="327" y="650" name="top"/>
  <anchor x="20" y="647" name="topleft"/>
  <anchor x="633" y="647" name="topright"/>
  <outline>
    <contour>
      <point x="296" y="85" type="line"/>
      <point x="156" y="132" type="line"/>
      <point x="55" y="-75" type="line"/>
      <point x="63" y="-92" type="line"/>
      <point x="187" y="-139" type="line"/>
    </contour>
    <contour>
      <point x="381" y="589" type="line"/>
      <point x="509" y="517" type="line"/>
      <point x="607" y="714" type="line"/>
      <point x="595" y="733" type="line"/>
      <point x="475" y="779" type="line"/>
    </contour>
    <contour>
      <point x="341" y="659" type="curve" smooth="yes"/>
      <point x="135" y="659"/>
      <point x="17" y="533"/>
      <point x="17" y="312" type="curve" smooth="yes"/>
      <point x="17" y="106"/>
      <point x="124" y="-12"/>
      <point x="312" y="-12" type="curve" smooth="yes"/>
      <point x="518" y="-12"/>
      <point x="636" y="116"/>
      <point x="636" y="340" type="curve" smooth="yes"/>
      <point x="636" y="543"/>
      <point x="529" y="659"/>
    </contour>
    <contour>
      <point x="323" y="499" type="curve" smooth="yes"/>
      <point x="404" y="499"/>
      <point x="426" y="458"/>
      <point x="426" y="297" type="curve" smooth="yes"/>
      <point x="426" y="169"/>
      <point x="405" y="136"/>
      <point x="330" y="136" type="curve" smooth="yes"/>
      <point x="249" y="136"/>
      <point x="227" y="177"/>
      <point x="227" y="339" type="curve" smooth="yes"/>
      <point x="227" y="466"/>
      <point x="248" y="499"/>
    </contour>
  </outline>
</glyph>
<glyph name="Pi.sups" format="2">
  <advance width="506"/>
  <anchor x="311" y="320" name="bottomright"/>
  <outline>
    <contour>
      <point x="311" y="320" type="line"/>
      <point x="452" y="320" type="line"/>
      <point x="447" y="467" type="line"/>
      <point x="455" y="773" type="line"/>
      <point x="311" y="773" type="line"/>
      <point x="318" y="453" type="line"/>
    </contour>
    <contour>
      <point x="49" y="320" type="line"/>
      <point x="190" y="320" type="line"/>
      <point x="185" y="467" type="line"/>
      <point x="192" y="773" type="line"/>
      <point x="49" y="773" type="line"/>
      <point x="56" y="453" type="line"/>
    </contour>
    <contour>
      <point x="164" y="666" type="line"/>
      <point x="330" y="666" type="line"/>
      <point x="330" y="773" type="line"/>
      <point x="164" y="773" type="line"/>
    </contour>
  </outline>
</glyph>
<glyph name="Psi.sups" format="2">
  <advance width="596"/>
  <outline>
    <contour>
      <point x="368" y="773" type="line"/>
      <point x="231" y="773" type="line"/>
      <point x="238" y="453" type="line"/>
      <point x="231" y="320" type="line"/>
      <point x="366" y="320" type="line"/>
      <point x="360" y="466" type="line"/>
    </contour>
    <contour>
      <point x="567" y="773" type="line"/>
      <point x="431" y="773" type="line"/>
      <point x="437" y="592" type="line" smooth="yes"/>
      <point x="439" y="529"/>
      <point x="401" y="500"/>
      <point x="298" y="500" type="curve" smooth="yes"/>
      <point x="195" y="500"/>
      <point x="160" y="529"/>
      <point x="162" y="592" type="curve" smooth="yes"/>
      <point x="168" y="773" type="line"/>
      <point x="30" y="773" type="line"/>
      <point x="32" y="641" type="line"/>
      <point x="32" y="572" type="line" smooth="yes"/>
      <point x="32" y="457"/>
      <point x="119" y="391"/>
      <point x="293" y="391" type="curve" smooth="yes"/>
      <point x="470" y="391"/>
      <point x="561" y="457"/>
      <point x="563" y="572" type="curve" smooth="yes"/>
      <point x="564" y="640" type="line"/>
    </contour>
  </outline>
</glyph>
<glyph name="Tau.sups" format="2">
  <advance width="383"/>
  <anchor x="192" y="320" name="bottom"/>
  <anchor x="192" y="547" name="center"/>
  <anchor x="192" y="773" name="top"/>
  <outline>
    <contour>
      <point x="263" y="759" type="line"/>
      <point x="124" y="759" type="line"/>
      <point x="129" y="453" type="line"/>
      <point x="122" y="320" type="line"/>
      <point x="263" y="320" type="line"/>
      <point x="257" y="467" type="line"/>
    </contour>
    <contour>
      <point x="365" y="773" type="line"/>
      <point x="19" y="773" type="line"/>
      <point x="11" y="670" type="line"/>
      <point x="19" y="660" type="line"/>
      <point x="115" y="665" type="line"/>
      <point x="271" y="665" type="line"/>
      <point x="365" y="660" type="line"/>
      <point x="373" y="763" type="line"/>
    </contour>
  </outline>
</glyph>
<glyph name="V.ss01" format="2">
  <advance width="626"/>
  <outline>
    <contour>
      <point x="183" y="0" type="line"/>
      <point x="425" y="0" type="line"/>
      <point x="621" y="647" type="line"/>
      <point x="425" y="647" type="line"/>
      <point x="406" y="528" type="line"/>
      <point x="314" y="179" type="line"/>
      <point x="302" y="179" type="line"/>
      <point x="227" y="540" type="line"/>
      <point x="209" y="647" type="line"/>
      <point x="6" y="647" type="line"/>
    </contour>
    <contour>
      <point x="-40" y="0" type="line"/>
      <point x="666" y="0" type="line"/>
      <point x="666" y="65" type="line"/>
      <point x="-40" y="65" type="line"/>
    </contour>
    <contour>
      <point x="-40" y="582" type="line"/>
      <point x="666" y="582" type="line"/>
      <point x="666" y="647" type="line"/>
      <point x="-40" y="647" type="line"/>
    </contour>
  </outline>
</glyph>
<glyph name="Xi.sups" format="2">
  <advance width="442"/>
  <outline>
    <contour>
      <point x="42" y="320" type="line"/>
      <point x="399" y="320" type="line"/>
      <point x="409" y="433" type="line"/>
      <point x="399" y="444" type="line"/>
      <point x="217" y="439" type="line"/>
      <point x="41" y="444" type="line"/>
      <point x="33" y="433" type="line"/>
    </contour>
    <contour>
      <point x="81" y="486" type="line"/>
      <point x="229" y="488" type="line"/>
      <point x="357" y="486" type="line"/>
      <point x="366" y="598" type="line"/>
      <point x="358" y="609" type="line"/>
      <point x="229" y="606" type="line"/>
      <point x="81" y="609" type="line"/>
      <point x="72" y="496" type="line"/>
    </contour>
    <contour>
      <point x="42" y="649" type="line"/>
      <point x="231" y="654" type="line"/>
      <point x="401" y="649" type="line"/>
      <point x="411" y="762" type="line"/>
      <point x="402" y="773" type="line"/>
      <point x="44" y="773" type="line"/>
      <point x="33" y="660" type="line"/>
    </contour>
  </outline>
</glyph>
<glyph name="Ze-cy.001" format="2">
  <advance width="500"/>
  <anchor x="248" y="0" name="bottom"/>
  <anchor x="248" y="647" name="top"/>
  <outline>
    <contour>
      <point x="199" y="-12" type="curve" smooth="yes"/>
      <point x="380" y="-12"/>
      <point x="477" y="58"/>
      <point x="477" y="187" type="curve" smooth="yes"/>
      <point x="477" y="284"/>
      <point x="426" y="332"/>
      <point x="301" y="347" type="curve"/>
      <point x="317" y="313" type="line"/>
      <point x="408" y="333"/>
      <point x="462" y="395"/>
      <point x="462" y="482" type="curve" smooth="yes"/>
      <point x="462" y="595"/>
      <point x="370" y="658"/>
      <point x="201" y="658" type="curve" smooth="yes"/>
      <point x="149" y="658"/>
      <point x="101" y="652"/>
      <point x="56" y="639" type="curve"/>
      <point x="40" y="481" type="line"/>
      <point x="56" y="471" type="line"/>
      <point x="117" y="485"/>
      <point x="156" y="491"/>
      <point x="195" y="491" type="curve" smooth="yes"/>
      <point x="246" y="491"/>
      <point x="257" y="481"/>
      <point x="257" y="449" type="curve" smooth="yes"/>
      <point x="257" y="429"/>
      <point x="257" y="411"/>
      <point x="246" y="398" type="curve"/>
      <point x="119" y="400" type="line"/>
      <point x="107" y="266" type="line"/>
      <point x="117" y="252" type="line"/>
      <point x="262" y="252" type="line"/>
      <point x="271" y="241"/>
      <point x="273" y="227"/>
      <point x="273" y="207" type="curve" smooth="yes"/>
      <point x="273" y="172"/>
      <point x="247" y="152"/>
      <point x="198" y="152" type="curve" smooth="yes"/>
      <point x="157" y="152"/>
      <point x="105" y="164"/>
      <point x="68" y="183" type="curve"/>
      <point x="54" y="175" type="line"/>
      <point x="21" y="16" type="line"/>
      <point x="66" y="-2"/>
      <point x="132" y="-12"/>
    </contour>
  </outline>
</glyph>
<glyph name="a.sups" format="2">
  <advance width="364"/>
  <anchor x="344" y="7" name="ogonek"/>
  <anchor x="182" y="324" name="top"/>
  <outline>
    <contour>
      <point x="187" y="655" type="curve" smooth="yes"/>
      <point x="137" y="655"/>
      <point x="82" y="643"/>
      <point x="38" y="622" type="curve"/>
      <point x="53" y="533" type="line"/>
      <point x="61" y="528" type="line"/>
      <point x="106" y="551"/>
      <point x="137" y="560"/>
      <point x="164" y="560" type="curve" smooth="yes"/>
      <point x="187" y="560"/>
      <point x="196" y="552"/>
      <point x="196" y="529" type="curve" smooth="yes"/>
      <point x="195" y="524" type="line"/>
      <point x="96" y="512" type="line" smooth="yes"/>
      <point x="42" y="504"/>
      <point x="15" y="473"/>
      <point x="15" y="423" type="curve" smooth="yes"/>
      <point x="15" y="356"/>
      <point x="62" y="315"/>
      <point x="133" y="315" type="curve"/>
      <point x="160" y="325"/>
      <point x="184" y="342"/>
      <point x="203" y="364" type="curve"/>
      <point x="208" y="364" type="line"/>
      <point x="220" y="329"/>
      <point x="236" y="316"/>
      <point x="276" y="316" type="curve" smooth="yes"/>
      <point x="298" y="316"/>
      <point x="315" y="321"/>
      <point x="335" y="336" type="curve"/>
      <point x="348" y="407" type="line"/>
      <point x="339" y="415" type="line"/>
      <point x="335" y="413"/>
      <point x="331" y="413"/>
      <point x="327" y="413" type="curve" smooth="yes"/>
      <point x="320" y="413"/>
      <point x="318" y="418"/>
      <point x="318" y="429" type="curve" smooth="yes"/>
      <point x="318" y="446"/>
      <point x="323" y="533"/>
      <point x="323" y="555" type="curve" smooth="yes"/>
      <point x="323" y="619"/>
      <point x="275" y="655"/>
    </contour>
    <contour>
      <point x="195" y="463" type="line"/>
      <point x="195" y="418" type="line"/>
      <point x="185" y="412"/>
      <point x="174" y="409"/>
      <point x="164" y="409" type="curve" smooth="yes"/>
      <point x="148" y="409"/>
      <point x="139" y="418"/>
      <point x="139" y="436" type="curve" smooth="yes"/>
      <point x="139" y="451"/>
      <point x="146" y="456"/>
      <point x="158" y="459" type="curve" smooth="yes"/>
    </contour>
  </outline>
</glyph>
<glyph name="ae.sc" format="2">
  <advance width="724"/>
  <anchor x="425" y="512" name="top"/>
  <outline>
    <contour>
      <point x="667" y="513" type="line"/>
      <point x="227" y="513" type="line"/>
      <point x="-11" y="0" type="line"/>
      <point x="154" y="0" type="line"/>
      <point x="182" y="98" type="line"/>
      <point x="301" y="363" type="line"/>
      <point x="312" y="363" type="line"/>
      <point x="338" y="88" type="line"/>
      <point x="342" y="0" type="line"/>
      <point x="712" y="0" type="line"/>
      <point x="723" y="122" type="line"/>
      <point x="713" y="134" type="line"/>
      <point x="572" y="129" type="line"/>
      <point x="494" y="129" type="line"/>
      <point x="473" y="384" type="line"/>
      <point x="537" y="384" type="line"/>
      <point x="666" y="378" type="line"/>
      <point x="677" y="500" type="line"/>
    </contour>
    <contour>
      <point x="626" y="347" type="line"/>
      <point x="449" y="293" type="line"/>
      <point x="143" y="203" type="line"/>
      <point x="105" y="64" type="line"/>
      <point x="467" y="171" type="line"/>
      <point x="652" y="222" type="line"/>
      <point x="637" y="337" type="line"/>
    </contour>
  </outline>
</glyph>
<glyph name="areas" format="2">
  <advance width="325"/>
  <outline>
    <contour>
      <point x="15.078" y="522.2" type="line"/>
      <point x="15.078" y="-55.2" type="line"/>
      <point x="15.078" y="-55.2" type="line"/>
      <point x="95.318" y="-55" type="line"/>
      <point x="95.318" y="-50" type="line"/>
      <point x="95.318" y="-45" type="line"/>
      <point x="95.318" y="-40" type="line"/>
      <point x="95.318" y="-35" type="line"/>
      <point x="95.318" y="-30" type="line"/>
      <point x="95.318" y="-25" type="line"/>
      <point x="95.318" y="-20" type="line"/>
      <point x="95.318" y="-15" type="line"/>
      <point x="95.318" y="-10" type="line"/>
      <point x="89" y="-5" type="line"/>
      <point x="84" y="0" type="line"/>
      <point x="84.237" y="5" type="line"/>
      <point x="84.474" y="10" type="line"/>
      <point x="84.711" y="15" type="line"/>
      <point x="84.947" y="20" type="line"/>
      <point x="85.184" y="25" type="line"/>
      <point x="85.421" y="30" type="line"/>
      <point x="85.658" y="35" type="line"/>
      <point x="85.895" y="40" type="line"/>
      <point x="86.132" y="45" type="line"/>
      <point x="86.368" y="50" type="line"/>
      <point x="86.605" y="55" type="line"/>
      <point x="86.842" y="60" type="line"/>
      <point x="87.079" y="65" type="line"/>
      <point x="87.316" y="70" type="line"/>
      <point x="87.553" y="75" type="line"/>
      <point x="87.789" y="80" type="line"/>
      <point x="88.026" y="85" type="line"/>
      <point x="88.263" y="90" type="line"/>
      <point x="88.5" y="95" type="line"/>
      <point x="88.737" y="100" type="line"/>
      <point x="88.974" y="105" type="line"/>
      <point x="89.211" y="110" type="line"/>
      <point x="89.447" y="115" type="line"/>
      <point x="89.684" y="120" type="line"/>
      <point x="89.921" y="125" type="line"/>
      <point x="90.158" y="130" type="line"/>
      <point x="90.395" y="135" type="line"/>
      <point x="90.632" y="140" type="line"/>
      <point x="90.868" y="145" type="line"/>
      <point x="91.105" y="150" type="line"/>
      <point x="91.342" y="155" type="line"/>
      <point x="91.579" y="160" type="line"/>
      <point x="91.816" y="165" type="line"/>
      <point x="92.053" y="170" type="line"/>
      <point x="92.289" y="175" type="line"/>
      <point x="92.526" y="180" type="line"/>
      <point x="92.763" y="185" type="line"/>
      <point x="93" y="190" type="line"/>
      <point x="92.919" y="195" type="line"/>
      <point x="92.837" y="200" type="line"/>
      <point x="92.756" y="205" type="line"/>
      <point x="92.674" y="210" type="line"/>
      <point x="92.593" y="215" type="line"/>
      <point x="92.511" y="220" type="line"/>
      <point x="92.43" y="225" type="line"/>
      <point x="92.349" y="230" type="line"/>
      <point x="92.267" y="235" type="line"/>
      <point x="92.186" y="240" type="line"/>
      <point x="92.104" y="245" type="line"/>
      <point x="92.023" y="250" type="line"/>
      <point x="91.941" y="255" type="line"/>
      <point x="91.86" y="260" type="line"/>
      <point x="91.779" y="265" type="line"/>
      <point x="91.697" y="270" type="line"/>
      <point x="91.616" y="275" type="line"/>
      <point x="91.534" y="280" type="line"/>
      <point x="91.453" y="285" type="line"/>
      <point x="84.5" y="290" type="line"/>
      <point x="79.5" y="295" type="line"/>
      <point x="74.5" y="300" type="line"/>
      <point x="69.5" y="305" type="line"/>
      <point x="64.5" y="310" type="line"/>
      <point x="59.5" y="315" type="line"/>
      <point x="54.5" y="320" type="line"/>
      <point x="49.5" y="325" type="line"/>
      <point x="44.5" y="330" type="line"/>
      <point x="39.5" y="335" type="line"/>
      <point x="34.5" y="340" type="line"/>
      <point x="29.5" y="345" type="line"/>
      <point x="24.5" y="350" type="line"/>
      <point x="19.5" y="355" type="line"/>
      <point x="17" y="360" type="line"/>
      <point x="15.078" y="365" type="line"/>
      <point x="15.466" y="370" type="line"/>
      <point x="15.854" y="375" type="line"/>
      <point x="16.243" y="380" type="line"/>
      <point x="16.631" y="385" type="line"/>
      <point x="17.019" y="390" type="line"/>
      <point x="17.408" y="395" type="line"/>
      <point x="17.796" y="400" type="line"/>
      <point x="18.184" y="405" type="line"/>
      <point x="18.573" y="410" type="line"/>
      <point x="18.961" y="415" type="line"/>
      <point x="19.35" y="420" type="line"/>
      <point x="19.738" y="425" type="line"/>
      <point x="20.126" y="430" type="line"/>
      <point x="20.515" y="435" type="line"/>
      <point x="20.903" y="440" type="line"/>
      <point x="21.291" y="445" type="line"/>
      <point x="21.68" y="450" type="line"/>
      <point x="22.068" y="455" type="line"/>
      <point x="22.456" y="460" type="line"/>
      <point x="22.845" y="465" type="line"/>
      <point x="27.845" y="470" type="line"/>
      <point x="32.845" y="475" type="line"/>
      <point x="37.845" y="480" type="line"/>
      <point x="42.845" y="485" type="line"/>
      <point x="47.845" y="490" type="line"/>
      <point x="52.845" y="495" type="line"/>
      <point x="57.845" y="500" type="line"/>
      <point x="62.845" y="505" type="line"/>
      <point x="67.845" y="510" type="line"/>
      <point x="72.845" y="515" type="line"/>
      <point x="77.845" y="520" type="line"/>
    </contour>
    <contour>
      <point x="279" y="522.2" type="line"/>
      <point x="279" y="-55.2" type="line"/>
      <point x="279" y="-55.2" type="line"/>
      <point x="224" y="-55" type="line"/>
      <point x="229" y="-50" type="line"/>
      <point x="234" y="-45" type="line"/>
      <point x="239" y="-40" type="line"/>
      <point x="244" y="-35" type="line"/>
      <point x="249" y="-30" type="line"/>
      <point x="254" y="-25" type="line"/>
      <point x="259" y="-20" type="line"/>
      <point x="264" y="-15" type="line"/>
      <point x="269" y="-10" type="line"/>
      <point x="274" y="-5" type="line"/>
      <point x="279" y="0" type="line"/>
      <point x="278.81" y="5" type="line"/>
      <point x="278.619" y="10" type="line"/>
      <point x="278.429" y="15" type="line"/>
      <point x="278.238" y="20" type="line"/>
      <point x="278.048" y="25" type="line"/>
      <point x="277.857" y="30" type="line"/>
      <point x="277.667" y="35" type="line"/>
      <point x="277.476" y="40" type="line"/>
      <point x="277.286" y="45" type="line"/>
      <point x="277.095" y="50" type="line"/>
      <point x="276.905" y="55" type="line"/>
      <point x="276.714" y="60" type="line"/>
      <point x="276.524" y="65" type="line"/>
      <point x="276.333" y="70" type="line"/>
      <point x="276.143" y="75" type="line"/>
      <point x="275.952" y="80" type="line"/>
      <point x="275.762" y="85" type="line"/>
      <point x="275.571" y="90" type="line"/>
      <point x="275.381" y="95" type="line"/>
      <point x="275.19" y="100" type="line"/>
      <point x="275" y="105" type="line"/>
      <point x="274.81" y="110" type="line"/>
      <point x="274.619" y="115" type="line"/>
      <point x="274.429" y="120" type="line"/>
      <point x="274.238" y="125" type="line"/>
      <point x="274.048" y="130" type="line"/>
      <point x="273.857" y="135" type="line"/>
      <point x="273.667" y="140" type="line"/>
      <point x="273.476" y="145" type="line"/>
      <point x="273.286" y="150" type="line"/>
      <point x="273.095" y="155" type="line"/>
      <point x="272.905" y="160" type="line"/>
      <point x="272.714" y="165" type="line"/>
      <point x="272.524" y="170" type="line"/>
      <point x="272.333" y="175" type="line"/>
      <point x="272.143" y="180" type="line"/>
      <point x="271.952" y="185" type="line"/>
      <point x="271.762" y="190" type="line"/>
      <point x="271.571" y="195" type="line"/>
      <point x="271.381" y="200" type="line"/>
      <point x="271.19" y="205" type="line"/>
      <point x="271" y="210" type="line"/>
      <point x="271.079" y="215" type="line"/>
      <point x="271.158" y="220" type="line"/>
      <point x="271.237" y="225" type="line"/>
      <point x="271.316" y="230" type="line"/>
      <point x="271.396" y="235" type="line"/>
      <point x="271.475" y="240" type="line"/>
      <point x="271.554" y="245" type="line"/>
      <point x="271.633" y="250" type="line"/>
      <point x="271.712" y="255" type="line"/>
      <point x="271.791" y="260" type="line"/>
      <point x="271.87" y="265" type="line"/>
      <point x="271.949" y="270" type="line"/>
      <point x="272.028" y="275" type="line"/>
      <point x="272.108" y="280" type="line"/>
      <point x="272.187" y="285" type="line"/>
      <point x="272.266" y="290" type="line"/>
      <point x="272.345" y="295" type="line"/>
      <point x="272.424" y="300" type="line"/>
      <point x="272.503" y="305" type="line"/>
      <point x="272.582" y="310" type="line"/>
      <point x="272.661" y="315" type="line"/>
      <point x="272.741" y="320" type="line"/>
      <point x="272.82" y="325" type="line"/>
      <point x="272.899" y="330" type="line"/>
      <point x="272.978" y="335" type="line"/>
      <point x="273.057" y="340" type="line"/>
      <point x="273.136" y="345" type="line"/>
      <point x="273.215" y="350" type="line"/>
      <point x="273.294" y="355" type="line"/>
      <point x="273.373" y="360" type="line"/>
      <point x="273.453" y="365" type="line"/>
      <point x="273.532" y="370" type="line"/>
      <point x="273.611" y="375" type="line"/>
      <point x="273.69" y="380" type="line"/>
      <point x="273.769" y="385" type="line"/>
      <point x="273.848" y="390" type="line"/>
      <point x="273.927" y="395" type="line"/>
      <point x="274.006" y="400" type="line"/>
      <point x="274.085" y="405" type="line"/>
      <point x="274.165" y="410" type="line"/>
      <point x="274.244" y="415" type="line"/>
      <point x="274.323" y="420" type="line"/>
      <point x="274.402" y="425" type="line"/>
      <point x="274.481" y="430" type="line"/>
      <point x="274.56" y="435" type="line"/>
      <point x="274.639" y="440" type="line"/>
      <point x="274.718" y="445" type="line"/>
      <point x="274.797" y="450" type="line"/>
      <point x="274.877" y="455" type="line"/>
      <point x="274.956" y="460" type="line"/>
      <point x="275.035" y="465" type="line"/>
      <point x="275.114" y="470" type="line"/>
      <point x="275.193" y="475" type="line"/>
      <point x="275.272" y="480" type="line"/>
      <point x="275.351" y="485" type="line"/>
      <point x="275.43" y="490" type="line"/>
      <point x="275.509" y="495" type="line"/>
      <point x="275.589" y="500" type="line"/>
      <point x="275.668" y="505" type="line"/>
      <point x="275.747" y="510" type="line"/>
      <point x="275.826" y="515" type="line"/>
      <point x="275.905" y="520" type="line"/>
    </contour>
  </outline>
</glyph>
<glyph name="b.sups" format="2">
  <advance width="384"/>
  <outline>
    <contour>
      <point x="238" y="651" type="curve"/>
      <point x="213" y="639"/>
      <point x="190" y="622"/>
      <point x="171" y="600" type="curve"/>
      <point x="154" y="600" type="line"/>
      <point x="154" y="528" type="line"/>
      <point x="169" y="538"/>
      <point x="181" y="542"/>
      <point x="194" y="542" type="curve" smooth="yes"/>
      <point x="227" y="542"/>
      <point x="240" y="520"/>
      <point x="240" y="474" type="curve" smooth="yes"/>
      <point x="240" y="415"/>
      <point x="220" y="399"/>
      <point x="189" y="399" type="curve" smooth="yes"/>
      <point x="158" y="399"/>
      <point x="108" y="423"/>
      <point x="59" y="472" type="curve"/>
      <point x="59" y="350" type="line"/>
      <point x="106" y="327"/>
      <point x="155" y="314"/>
      <point x="199" y="314" type="curve"/>
      <point x="302" y="314"/>
      <point x="370" y="375"/>
      <point x="370" y="493" type="curve" smooth="yes"/>
      <point x="370" y="592"/>
      <point x="322" y="651"/>
    </contour>
    <contour>
      <point x="172" y="804" type="line"/>
      <point x="34" y="795" type="line"/>
      <point x="39" y="453" type="line"/>
      <point x="33" y="327" type="line"/>
      <point x="45" y="314" type="line"/>
      <point x="166" y="351" type="line"/>
      <point x="165" y="470" type="line"/>
    </contour>
  </outline>
</glyph>
<glyph name="be-cy.sc" format="2">
  <advance width="551"/>
  <outline>
    <contour>
      <point x="116" y="0" type="line"/>
      <point x="261" y="0" type="line"/>
      <point x="426" y="0"/>
      <point x="528" y="73"/>
      <point x="528" y="191" type="curve" smooth="yes"/>
      <point x="528" y="283"/>
      <point x="463" y="331"/>
      <point x="342" y="331" type="curve" smooth="yes"/>
      <point x="108" y="331" type="line"/>
      <point x="108" y="202" type="line"/>
      <point x="280" y="207" type="line" smooth="yes"/>
      <point x="314" y="208"/>
      <point x="333" y="193"/>
      <point x="333" y="167" type="curve" smooth="yes"/>
      <point x="333" y="148"/>
      <point x="320" y="132"/>
      <point x="297" y="122" type="curve"/>
      <point x="116" y="135" type="line"/>
    </contour>
    <contour>
      <point x="50" y="0" type="line"/>
      <point x="234" y="0" type="line"/>
      <point x="227" y="167" type="line"/>
      <point x="237" y="513" type="line"/>
      <point x="50" y="513" type="line"/>
      <point x="60" y="149" type="line"/>
    </contour>
    <contour>
      <point x="178" y="372" type="line"/>
      <point x="352" y="372" type="line"/>
      <point x="494" y="366" type="line"/>
      <point x="504" y="501" type="line"/>
      <point x="495" y="513" type="line"/>
      <point x="178" y="513" type="line"/>
    </contour>
  </outline>
</glyph>
<glyph name="beta.sups" format="2">
  <advance width="400"/>
  <outline>
    <contour>
      <point x="38" y="190" type="line"/>
      <point x="174" y="190" type="line"/>
      <point x="168" y="659" type="line"/>
      <point x="168" y="696"/>
      <point x="180" y="712"/>
      <point x="206" y="712" type="curve" smooth="yes"/>
      <point x="229" y="712"/>
      <point x="241" y="700"/>
      <point x="241" y="675" type="curve" smooth="yes"/>
      <point x="241" y="655"/>
      <point x="232" y="637"/>
      <point x="213" y="621" type="curve"/>
      <point x="190" y="621" type="line"/>
      <point x="186" y="534" type="line"/>
      <point x="192" y="526" type="line"/>
      <point x="214" y="526" type="line" smooth="yes"/>
      <point x="241" y="526"/>
      <point x="259" y="500"/>
      <point x="259" y="464" type="curve" smooth="yes"/>
      <point x="259" y="425"/>
      <point x="239" y="403"/>
      <point x="203" y="403" type="curve" smooth="yes"/>
      <point x="165" y="403"/>
      <point x="110" y="428"/>
      <point x="64" y="466" type="curve"/>
      <point x="64" y="348" type="line"/>
      <point x="110" y="325"/>
      <point x="160" y="312"/>
      <point x="206" y="312" type="curve" smooth="yes"/>
      <point x="313" y="312"/>
      <point x="386" y="375"/>
      <point x="386" y="468" type="curve" smooth="yes"/>
      <point x="386" y="550"/>
      <point x="330" y="596"/>
      <point x="233" y="596" type="curve"/>
      <point x="245" y="565" type="line"/>
      <point x="322" y="589"/>
      <point x="365" y="636"/>
      <point x="365" y="697" type="curve" smooth="yes"/>
      <point x="365" y="768"/>
      <point x="308" y="813"/>
      <point x="220" y="813" type="curve" smooth="yes"/>
      <point x="108" y="813"/>
      <point x="44" y="743"/>
      <point x="44" y="624" type="curve" smooth="yes"/>
      <point x="44" y="453" type="line"/>
    </contour>
  </outline>
</glyph>
<glyph name="brevecomb_gravecomb" format="2">
  <anchor x="194" y="472" name="_top"/>
  <anchor x="194" y="881" name="top"/>
  <outline>
    <contour>
      <point x="202" y="686" type="line"/>
      <point x="260" y="731" type="line"/>
      <point x="227" y="779"/>
      <point x="194" y="827"/>
      <point x="163" y="877" type="curve"/>
      <point x="150" y="881" type="line"/>
      <point x="67" y="819" type="line"/>
      <point x="64" y="805" type="line"/>
      <point x="187" y="691" type="line"/>
    </contour>
    <contour>
      <point x="332" y="705" type="line"/>
      <point x="305" y="705" type="line"/>
      <point x="284" y="673"/>
      <point x="245" y="655"/>
      <point x="198" y="655" type="curve" smooth="yes"/>
      <point x="146" y="655"/>
      <point x="105" y="673"/>
      <point x="83" y="705" type="curve"/>
      <point x="56" y="705" type="line"/>
      <point x="16" y="645" type="line"/>
      <point x="44" y="565"/>
      <point x="106" y="521"/>
      <point x="191" y="521" type="curve" smooth="yes"/>
      <point x="278" y="521"/>
      <point x="342" y="565"/>
      <point x="372" y="645" type="curve" smooth="yes"/>
    </contour>
  </outline>
</glyph>
<glyph name="c.sc" format="2">
  <advance width="447"/>
  <anchor x="274" y="0" name="bottom"/>
  <anchor x="279" y="513" name="top"/>
  <outline>
    <contour>
      <point x="306" y="522" type="curve" smooth="yes"/>
      <point x="122" y="522"/>
      <point x="18" y="422"/>
      <point x="18" y="251" type="curve" smooth="yes"/>
      <point x="18" y="82"/>
      <point x="109" y="-10"/>
      <point x="297" y="-10" type="curve" smooth="yes"/>
      <point x="332" y="-10"/>
      <point x="370" y="-9"/>
      <point x="409" y="-2" type="curve"/>
      <point x="424" y="144" type="line"/>
      <point x="409" y="153" type="line"/>
      <point x="381" y="147"/>
      <point x="339" y="143"/>
      <point x="312" y="143" type="curve" smooth="yes"/>
      <point x="244" y="143"/>
      <point x="214" y="181"/>
      <point x="214" y="273" type="curve" smooth="yes"/>
      <point x="214" y="348"/>
      <point x="239" y="372"/>
      <point x="299" y="372" type="curve" smooth="yes"/>
      <point x="328" y="372"/>
      <point x="370" y="364"/>
      <point x="398" y="351" type="curve"/>
      <point x="410" y="359" type="line"/>
      <point x="441" y="506" type="line"/>
      <point x="401" y="516"/>
      <point x="356" y="522"/>
    </contour>
  </outline>
</glyph>
<glyph name="cent.BRACKET.100" format="2">
  <advance width="382"/>
  <anchor x="219" y="39" name="bottom"/>
  <anchor x="243" y="511" name="top"/>
  <outline>
    <contour>
      <point x="300" y="108" type="line"/>
      <point x="150" y="108" type="line"/>
      <point x="139" y="-114" type="line" smooth="yes"/>
      <point x="153" y="-129" type="line" smooth="yes"/>
      <point x="288" y="-129" type="line" smooth="yes"/>
    </contour>
    <contour>
      <point x="308" y="662" type="line" smooth="yes"/>
      <point x="177" y="662" type="line" smooth="yes"/>
      <point x="166" y="434" type="line"/>
      <point x="316" y="434" type="line"/>
      <point x="327" y="646" type="line" smooth="yes"/>
    </contour>
    <contour>
      <point x="260" y="523" type="curve" smooth="yes"/>
      <point x="104" y="523"/>
      <point x="14" y="430"/>
      <point x="14" y="267" type="curve" smooth="yes"/>
      <point x="14" y="114"/>
      <point x="91" y="27"/>
      <point x="226" y="27" type="curve" smooth="yes"/>
      <point x="268" y="27"/>
      <point x="311" y="30"/>
      <point x="351" y="40" type="curve"/>
      <point x="371" y="183" type="line"/>
      <point x="358" y="194" type="line"/>
      <point x="322" y="184"/>
      <point x="297" y="179"/>
      <point x="273" y="179" type="curve" smooth="yes"/>
      <point x="223" y="179"/>
      <point x="200" y="212"/>
      <point x="200" y="288" type="curve" smooth="yes"/>
      <point x="200" y="341"/>
      <point x="219" y="365"/>
      <point x="261" y="365" type="curve" smooth="yes"/>
      <point x="283" y="365"/>
      <point x="305" y="357"/>
      <point x="337" y="344" type="curve"/>
      <point x="351" y="351" type="line"/>
      <point x="382" y="499" type="line"/>
      <point x="348" y="514"/>
      <point x="305" y="523"/>
    </contour>
  </outline>
</glyph>
<glyph name="chekhakassian-cy.sc" format="2">
  <advance width="543"/>
  <outline>
    <contour>
      <point x="212" y="145" type="curve"/>
      <point x="248" y="159"/>
      <point x="280" y="179"/>
      <point x="304" y="202" type="curve"/>
      <point x="327" y="202" type="line"/>
      <point x="323" y="312" type="line"/>
      <point x="292" y="301"/>
      <point x="270" y="298"/>
      <point x="255" y="298" type="curve" smooth="yes"/>
      <point x="223" y="298"/>
      <point x="206" y="319"/>
      <point x="207" y="362" type="curve" smooth="yes"/>
      <point x="210" y="513" type="line"/>
      <point x="22" y="513" type="line"/>
      <point x="27" y="314" type="line" smooth="yes"/>
      <point x="30" y="200"/>
      <point x="90" y="145"/>
    </contour>
    <contour>
      <point x="236" y="-135" type="line"/>
      <point x="372" y="-126" type="line"/>
      <point x="418" y="129" type="line"/>
      <point x="236" y="129" type="line"/>
    </contour>
    <contour>
      <point x="245" y="0" type="line"/>
      <point x="490" y="0" type="line"/>
      <point x="443" y="129" type="line"/>
      <point x="236" y="129" type="line"/>
    </contour>
    <contour>
      <point x="305" y="0" type="line"/>
      <point x="490" y="0" type="line"/>
      <point x="482" y="168" type="line"/>
      <point x="493" y="513" type="line"/>
      <point x="305" y="513" type="line"/>
      <point x="314" y="160" type="line"/>
    </contour>
  </outline>
</glyph>
<glyph name="cheverticalstroke-cy.sc" format="2">
  <advance width="592"/>
  <outline>
    <contour>
      <point x="542" y="513" type="line"/>
      <point x="355" y="513" type="line"/>
      <point x="363" y="150" type="line"/>
      <point x="355" y="0" type="line"/>
      <point x="539" y="0" type="line"/>
      <point x="531" y="168" type="line"/>
    </contour>
    <contour>
      <point x="374" y="302" type="line"/>
      <point x="334" y="291"/>
      <point x="302" y="288"/>
      <point x="275" y="288" type="curve" smooth="yes"/>
      <point x="229" y="288"/>
      <point x="206" y="309"/>
      <point x="207" y="352" type="curve" smooth="yes"/>
      <point x="210" y="513" type="line"/>
      <point x="22" y="513" type="line"/>
      <point x="27" y="304" type="line" smooth="yes"/>
      <point x="30" y="190"/>
      <point x="97" y="135"/>
      <point x="234" y="135" type="curve"/>
      <point x="280" y="149"/>
      <point x="321" y="169"/>
      <point x="353" y="192" type="curve"/>
      <point x="378" y="192" type="line"/>
    </contour>
    <contour>
      <point x="249" y="67" type="line"/>
      <point x="331" y="72" type="line"/>
      <point x="331" y="411" type="line"/>
      <point x="322" y="418" type="line"/>
      <point x="239" y="412" type="line"/>
      <point x="239" y="74" type="line"/>
    </contour>
  </outline>
</glyph>
<glyph name="chi.sups" format="2">
  <advance width="381"/>
  <outline>
    <contour>
      <point x="310" y="182" type="curve"/>
      <point x="332" y="186"/>
      <point x="351" y="192"/>
      <point x="370" y="202" type="curve"/>
      <point x="384" y="276" type="line"/>
      <point x="375" y="283" type="line"/>
      <point x="359" y="278"/>
      <point x="350" y="282"/>
      <point x="342" y="296" type="curve" smooth="yes"/>
      <point x="278" y="418" type="line"/>
      <point x="381" y="650" type="line"/>
      <point x="256" y="650" type="line"/>
      <point x="244" y="605" type="line"/>
      <point x="179" y="431" type="line"/>
      <point x="168" y="398" type="line"/>
      <point x="229" y="256" type="line" smooth="yes"/>
      <point x="254" y="197"/>
      <point x="267" y="185"/>
    </contour>
    <contour>
      <point x="10" y="190" type="line"/>
      <point x="134" y="190" type="line"/>
      <point x="147" y="236" type="line"/>
      <point x="212" y="410" type="line"/>
      <point x="224" y="443" type="line"/>
      <point x="165" y="579" type="line" smooth="yes"/>
      <point x="137" y="645"/>
      <point x="103" y="662"/>
      <point x="20" y="651" type="curve"/>
      <point x="4" y="563" type="line"/>
      <point x="10" y="553" type="line"/>
      <point x="36" y="558"/>
      <point x="44" y="554"/>
      <point x="61" y="521" type="curve" smooth="yes"/>
      <point x="113" y="423" type="line"/>
    </contour>
  </outline>
</glyph>
